G75*
%MOIN*%
%OFA0B0*%
%FSLAX24Y24*%
%IPPOS*%
%LPD*%
%AMOC8*
5,1,8,0,0,1.08239X$1,22.5*
%
%ADD10C,0.0000*%
%ADD11R,0.1300X0.0600*%
%ADD12C,0.0520*%
%ADD13OC8,0.0515*%
%ADD14R,0.0500X0.1000*%
%ADD15R,0.0630X0.0710*%
%ADD16R,0.0860X0.0420*%
%ADD17C,0.0740*%
%ADD18C,0.1266*%
%ADD19R,0.0394X0.1181*%
%ADD20R,0.0700X0.1650*%
%ADD21R,0.1050X0.1650*%
%ADD22R,0.0394X0.0591*%
%ADD23OC8,0.0310*%
%ADD24C,0.0100*%
%ADD25C,0.0160*%
%ADD26OC8,0.0531*%
%ADD27C,0.0240*%
%ADD28C,0.0320*%
%ADD29C,0.0120*%
D10*
X005948Y000850D02*
X005948Y006275D01*
X008998Y009325D01*
X010153Y009325D01*
X010168Y009326D01*
X010182Y009331D01*
X010196Y009338D01*
X010207Y009348D01*
X010217Y009359D01*
X010224Y009373D01*
X010229Y009387D01*
X010230Y009402D01*
X010229Y009402D02*
X010229Y010880D01*
X010228Y010897D01*
X010223Y010914D01*
X010216Y010929D01*
X010206Y010943D01*
X010194Y010955D01*
X010180Y010965D01*
X010165Y010972D01*
X010148Y010977D01*
X010131Y010978D01*
X007031Y010978D01*
X007031Y010979D02*
X006969Y010981D01*
X006908Y010987D01*
X006847Y010996D01*
X006786Y011010D01*
X006727Y011027D01*
X006669Y011048D01*
X006612Y011073D01*
X006557Y011101D01*
X006504Y011132D01*
X006453Y011167D01*
X006404Y011205D01*
X006357Y011246D01*
X006314Y011289D01*
X006273Y011336D01*
X006235Y011385D01*
X006200Y011436D01*
X006169Y011489D01*
X006141Y011544D01*
X006116Y011601D01*
X006095Y011659D01*
X006078Y011718D01*
X006064Y011779D01*
X006055Y011840D01*
X006049Y011901D01*
X006047Y011963D01*
X006046Y011963D02*
X006046Y018852D01*
X006047Y018852D02*
X006049Y018914D01*
X006055Y018975D01*
X006064Y019036D01*
X006078Y019097D01*
X006095Y019156D01*
X006116Y019214D01*
X006141Y019271D01*
X006169Y019326D01*
X006200Y019379D01*
X006235Y019430D01*
X006273Y019479D01*
X006314Y019526D01*
X006357Y019569D01*
X006404Y019610D01*
X006453Y019648D01*
X006504Y019683D01*
X006557Y019714D01*
X006612Y019742D01*
X006669Y019767D01*
X006727Y019788D01*
X006786Y019805D01*
X006847Y019819D01*
X006908Y019828D01*
X006969Y019834D01*
X007031Y019836D01*
X007031Y019837D02*
X025633Y019837D01*
X025633Y010978D01*
X023763Y010978D01*
X023763Y010979D02*
X023740Y010977D01*
X023717Y010972D01*
X023696Y010963D01*
X023676Y010951D01*
X023658Y010936D01*
X023643Y010918D01*
X023631Y010898D01*
X023622Y010877D01*
X023617Y010854D01*
X023615Y010831D01*
X023615Y009404D01*
X023616Y009404D02*
X023617Y009387D01*
X023622Y009370D01*
X023629Y009355D01*
X023639Y009341D01*
X023651Y009329D01*
X023665Y009319D01*
X023680Y009312D01*
X023697Y009307D01*
X023714Y009306D01*
X023714Y009305D02*
X024796Y009305D01*
X024844Y009303D01*
X024891Y009298D01*
X024938Y009289D01*
X024985Y009277D01*
X025030Y009261D01*
X025074Y009242D01*
X025116Y009219D01*
X025157Y009194D01*
X025195Y009165D01*
X025231Y009134D01*
X025265Y009100D01*
X025296Y009064D01*
X025325Y009026D01*
X025350Y008985D01*
X025373Y008943D01*
X025392Y008899D01*
X025408Y008854D01*
X025420Y008807D01*
X025429Y008760D01*
X025434Y008713D01*
X025436Y008665D01*
X025436Y001488D01*
X024173Y000225D01*
X016573Y000225D01*
X016528Y000227D01*
X016483Y000232D01*
X016439Y000241D01*
X016395Y000253D01*
X016353Y000269D01*
X016312Y000288D01*
X016273Y000310D01*
X016235Y000335D01*
X016200Y000363D01*
X016166Y000393D01*
X016136Y000427D01*
X016108Y000462D01*
X016083Y000500D01*
X016061Y000539D01*
X016042Y000580D01*
X016026Y000622D01*
X016014Y000666D01*
X016005Y000710D01*
X016000Y000755D01*
X015998Y000800D01*
X015998Y006225D01*
X019078Y009305D01*
X019924Y009305D01*
X019924Y009306D02*
X019941Y009307D01*
X019958Y009312D01*
X019973Y009319D01*
X019987Y009329D01*
X019999Y009341D01*
X020009Y009355D01*
X020016Y009370D01*
X020021Y009387D01*
X020022Y009404D01*
X020023Y009404D02*
X020023Y010831D01*
X020021Y010854D01*
X020016Y010877D01*
X020007Y010898D01*
X019995Y010918D01*
X019980Y010936D01*
X019962Y010951D01*
X019942Y010963D01*
X019921Y010972D01*
X019898Y010977D01*
X019875Y010979D01*
X019875Y010978D02*
X013871Y010978D01*
X013871Y010979D02*
X013854Y010977D01*
X013837Y010973D01*
X013821Y010966D01*
X013807Y010956D01*
X013794Y010943D01*
X013784Y010929D01*
X013777Y010913D01*
X013773Y010896D01*
X013771Y010879D01*
X013771Y009451D01*
X013773Y009431D01*
X013777Y009412D01*
X013785Y009394D01*
X013795Y009377D01*
X013808Y009362D01*
X013823Y009349D01*
X013840Y009339D01*
X013858Y009331D01*
X013877Y009327D01*
X013897Y009325D01*
X014798Y009325D01*
X014845Y009323D01*
X014892Y009318D01*
X014938Y009308D01*
X014983Y009296D01*
X015028Y009279D01*
X015070Y009260D01*
X015111Y009237D01*
X015151Y009210D01*
X015188Y009181D01*
X015222Y009149D01*
X015254Y009115D01*
X015283Y009078D01*
X015310Y009038D01*
X015333Y008997D01*
X015352Y008955D01*
X015369Y008910D01*
X015381Y008865D01*
X015391Y008819D01*
X015396Y008772D01*
X015398Y008725D01*
X015398Y001550D01*
X014123Y000275D01*
X006523Y000275D01*
X006478Y000277D01*
X006433Y000282D01*
X006389Y000291D01*
X006345Y000303D01*
X006303Y000319D01*
X006262Y000338D01*
X006223Y000360D01*
X006185Y000385D01*
X006150Y000413D01*
X006116Y000443D01*
X006086Y000477D01*
X006058Y000512D01*
X006033Y000550D01*
X006011Y000589D01*
X005992Y000630D01*
X005976Y000672D01*
X005964Y000716D01*
X005955Y000760D01*
X005950Y000805D01*
X005948Y000850D01*
X010368Y009502D02*
X010370Y009527D01*
X010376Y009551D01*
X010385Y009573D01*
X010398Y009594D01*
X010414Y009613D01*
X010433Y009629D01*
X010454Y009642D01*
X010476Y009651D01*
X010500Y009657D01*
X010525Y009659D01*
X010550Y009657D01*
X010574Y009651D01*
X010596Y009642D01*
X010617Y009629D01*
X010636Y009613D01*
X010652Y009594D01*
X010665Y009573D01*
X010674Y009551D01*
X010680Y009527D01*
X010682Y009502D01*
X010680Y009477D01*
X010674Y009453D01*
X010665Y009431D01*
X010652Y009410D01*
X010636Y009391D01*
X010617Y009375D01*
X010596Y009362D01*
X010574Y009353D01*
X010550Y009347D01*
X010525Y009345D01*
X010500Y009347D01*
X010476Y009353D01*
X010454Y009362D01*
X010433Y009375D01*
X010414Y009391D01*
X010398Y009410D01*
X010385Y009431D01*
X010376Y009453D01*
X010370Y009477D01*
X010368Y009502D01*
X010860Y009502D02*
X010862Y009527D01*
X010868Y009551D01*
X010877Y009573D01*
X010890Y009594D01*
X010906Y009613D01*
X010925Y009629D01*
X010946Y009642D01*
X010968Y009651D01*
X010992Y009657D01*
X011017Y009659D01*
X011042Y009657D01*
X011066Y009651D01*
X011088Y009642D01*
X011109Y009629D01*
X011128Y009613D01*
X011144Y009594D01*
X011157Y009573D01*
X011166Y009551D01*
X011172Y009527D01*
X011174Y009502D01*
X011172Y009477D01*
X011166Y009453D01*
X011157Y009431D01*
X011144Y009410D01*
X011128Y009391D01*
X011109Y009375D01*
X011088Y009362D01*
X011066Y009353D01*
X011042Y009347D01*
X011017Y009345D01*
X010992Y009347D01*
X010968Y009353D01*
X010946Y009362D01*
X010925Y009375D01*
X010906Y009391D01*
X010890Y009410D01*
X010877Y009431D01*
X010868Y009453D01*
X010862Y009477D01*
X010860Y009502D01*
X011352Y009502D02*
X011354Y009527D01*
X011360Y009551D01*
X011369Y009573D01*
X011382Y009594D01*
X011398Y009613D01*
X011417Y009629D01*
X011438Y009642D01*
X011460Y009651D01*
X011484Y009657D01*
X011509Y009659D01*
X011534Y009657D01*
X011558Y009651D01*
X011580Y009642D01*
X011601Y009629D01*
X011620Y009613D01*
X011636Y009594D01*
X011649Y009573D01*
X011658Y009551D01*
X011664Y009527D01*
X011666Y009502D01*
X011664Y009477D01*
X011658Y009453D01*
X011649Y009431D01*
X011636Y009410D01*
X011620Y009391D01*
X011601Y009375D01*
X011580Y009362D01*
X011558Y009353D01*
X011534Y009347D01*
X011509Y009345D01*
X011484Y009347D01*
X011460Y009353D01*
X011438Y009362D01*
X011417Y009375D01*
X011398Y009391D01*
X011382Y009410D01*
X011369Y009431D01*
X011360Y009453D01*
X011354Y009477D01*
X011352Y009502D01*
X011844Y009502D02*
X011846Y009527D01*
X011852Y009551D01*
X011861Y009573D01*
X011874Y009594D01*
X011890Y009613D01*
X011909Y009629D01*
X011930Y009642D01*
X011952Y009651D01*
X011976Y009657D01*
X012001Y009659D01*
X012026Y009657D01*
X012050Y009651D01*
X012072Y009642D01*
X012093Y009629D01*
X012112Y009613D01*
X012128Y009594D01*
X012141Y009573D01*
X012150Y009551D01*
X012156Y009527D01*
X012158Y009502D01*
X012156Y009477D01*
X012150Y009453D01*
X012141Y009431D01*
X012128Y009410D01*
X012112Y009391D01*
X012093Y009375D01*
X012072Y009362D01*
X012050Y009353D01*
X012026Y009347D01*
X012001Y009345D01*
X011976Y009347D01*
X011952Y009353D01*
X011930Y009362D01*
X011909Y009375D01*
X011890Y009391D01*
X011874Y009410D01*
X011861Y009431D01*
X011852Y009453D01*
X011846Y009477D01*
X011844Y009502D01*
X012336Y009502D02*
X012338Y009527D01*
X012344Y009551D01*
X012353Y009573D01*
X012366Y009594D01*
X012382Y009613D01*
X012401Y009629D01*
X012422Y009642D01*
X012444Y009651D01*
X012468Y009657D01*
X012493Y009659D01*
X012518Y009657D01*
X012542Y009651D01*
X012564Y009642D01*
X012585Y009629D01*
X012604Y009613D01*
X012620Y009594D01*
X012633Y009573D01*
X012642Y009551D01*
X012648Y009527D01*
X012650Y009502D01*
X012648Y009477D01*
X012642Y009453D01*
X012633Y009431D01*
X012620Y009410D01*
X012604Y009391D01*
X012585Y009375D01*
X012564Y009362D01*
X012542Y009353D01*
X012518Y009347D01*
X012493Y009345D01*
X012468Y009347D01*
X012444Y009353D01*
X012422Y009362D01*
X012401Y009375D01*
X012382Y009391D01*
X012366Y009410D01*
X012353Y009431D01*
X012344Y009453D01*
X012338Y009477D01*
X012336Y009502D01*
X012828Y009502D02*
X012830Y009527D01*
X012836Y009551D01*
X012845Y009573D01*
X012858Y009594D01*
X012874Y009613D01*
X012893Y009629D01*
X012914Y009642D01*
X012936Y009651D01*
X012960Y009657D01*
X012985Y009659D01*
X013010Y009657D01*
X013034Y009651D01*
X013056Y009642D01*
X013077Y009629D01*
X013096Y009613D01*
X013112Y009594D01*
X013125Y009573D01*
X013134Y009551D01*
X013140Y009527D01*
X013142Y009502D01*
X013140Y009477D01*
X013134Y009453D01*
X013125Y009431D01*
X013112Y009410D01*
X013096Y009391D01*
X013077Y009375D01*
X013056Y009362D01*
X013034Y009353D01*
X013010Y009347D01*
X012985Y009345D01*
X012960Y009347D01*
X012936Y009353D01*
X012914Y009362D01*
X012893Y009375D01*
X012874Y009391D01*
X012858Y009410D01*
X012845Y009431D01*
X012836Y009453D01*
X012830Y009477D01*
X012828Y009502D01*
X013320Y009502D02*
X013322Y009527D01*
X013328Y009551D01*
X013337Y009573D01*
X013350Y009594D01*
X013366Y009613D01*
X013385Y009629D01*
X013406Y009642D01*
X013428Y009651D01*
X013452Y009657D01*
X013477Y009659D01*
X013502Y009657D01*
X013526Y009651D01*
X013548Y009642D01*
X013569Y009629D01*
X013588Y009613D01*
X013604Y009594D01*
X013617Y009573D01*
X013626Y009551D01*
X013632Y009527D01*
X013634Y009502D01*
X013632Y009477D01*
X013626Y009453D01*
X013617Y009431D01*
X013604Y009410D01*
X013588Y009391D01*
X013569Y009375D01*
X013548Y009362D01*
X013526Y009353D01*
X013502Y009347D01*
X013477Y009345D01*
X013452Y009347D01*
X013428Y009353D01*
X013406Y009362D01*
X013385Y009375D01*
X013366Y009391D01*
X013350Y009410D01*
X013337Y009431D01*
X013328Y009453D01*
X013322Y009477D01*
X013320Y009502D01*
X013320Y010781D02*
X013322Y010806D01*
X013328Y010830D01*
X013337Y010852D01*
X013350Y010873D01*
X013366Y010892D01*
X013385Y010908D01*
X013406Y010921D01*
X013428Y010930D01*
X013452Y010936D01*
X013477Y010938D01*
X013502Y010936D01*
X013526Y010930D01*
X013548Y010921D01*
X013569Y010908D01*
X013588Y010892D01*
X013604Y010873D01*
X013617Y010852D01*
X013626Y010830D01*
X013632Y010806D01*
X013634Y010781D01*
X013632Y010756D01*
X013626Y010732D01*
X013617Y010710D01*
X013604Y010689D01*
X013588Y010670D01*
X013569Y010654D01*
X013548Y010641D01*
X013526Y010632D01*
X013502Y010626D01*
X013477Y010624D01*
X013452Y010626D01*
X013428Y010632D01*
X013406Y010641D01*
X013385Y010654D01*
X013366Y010670D01*
X013350Y010689D01*
X013337Y010710D01*
X013328Y010732D01*
X013322Y010756D01*
X013320Y010781D01*
X012828Y010781D02*
X012830Y010806D01*
X012836Y010830D01*
X012845Y010852D01*
X012858Y010873D01*
X012874Y010892D01*
X012893Y010908D01*
X012914Y010921D01*
X012936Y010930D01*
X012960Y010936D01*
X012985Y010938D01*
X013010Y010936D01*
X013034Y010930D01*
X013056Y010921D01*
X013077Y010908D01*
X013096Y010892D01*
X013112Y010873D01*
X013125Y010852D01*
X013134Y010830D01*
X013140Y010806D01*
X013142Y010781D01*
X013140Y010756D01*
X013134Y010732D01*
X013125Y010710D01*
X013112Y010689D01*
X013096Y010670D01*
X013077Y010654D01*
X013056Y010641D01*
X013034Y010632D01*
X013010Y010626D01*
X012985Y010624D01*
X012960Y010626D01*
X012936Y010632D01*
X012914Y010641D01*
X012893Y010654D01*
X012874Y010670D01*
X012858Y010689D01*
X012845Y010710D01*
X012836Y010732D01*
X012830Y010756D01*
X012828Y010781D01*
X012336Y010781D02*
X012338Y010806D01*
X012344Y010830D01*
X012353Y010852D01*
X012366Y010873D01*
X012382Y010892D01*
X012401Y010908D01*
X012422Y010921D01*
X012444Y010930D01*
X012468Y010936D01*
X012493Y010938D01*
X012518Y010936D01*
X012542Y010930D01*
X012564Y010921D01*
X012585Y010908D01*
X012604Y010892D01*
X012620Y010873D01*
X012633Y010852D01*
X012642Y010830D01*
X012648Y010806D01*
X012650Y010781D01*
X012648Y010756D01*
X012642Y010732D01*
X012633Y010710D01*
X012620Y010689D01*
X012604Y010670D01*
X012585Y010654D01*
X012564Y010641D01*
X012542Y010632D01*
X012518Y010626D01*
X012493Y010624D01*
X012468Y010626D01*
X012444Y010632D01*
X012422Y010641D01*
X012401Y010654D01*
X012382Y010670D01*
X012366Y010689D01*
X012353Y010710D01*
X012344Y010732D01*
X012338Y010756D01*
X012336Y010781D01*
X011844Y010781D02*
X011846Y010806D01*
X011852Y010830D01*
X011861Y010852D01*
X011874Y010873D01*
X011890Y010892D01*
X011909Y010908D01*
X011930Y010921D01*
X011952Y010930D01*
X011976Y010936D01*
X012001Y010938D01*
X012026Y010936D01*
X012050Y010930D01*
X012072Y010921D01*
X012093Y010908D01*
X012112Y010892D01*
X012128Y010873D01*
X012141Y010852D01*
X012150Y010830D01*
X012156Y010806D01*
X012158Y010781D01*
X012156Y010756D01*
X012150Y010732D01*
X012141Y010710D01*
X012128Y010689D01*
X012112Y010670D01*
X012093Y010654D01*
X012072Y010641D01*
X012050Y010632D01*
X012026Y010626D01*
X012001Y010624D01*
X011976Y010626D01*
X011952Y010632D01*
X011930Y010641D01*
X011909Y010654D01*
X011890Y010670D01*
X011874Y010689D01*
X011861Y010710D01*
X011852Y010732D01*
X011846Y010756D01*
X011844Y010781D01*
X011352Y010781D02*
X011354Y010806D01*
X011360Y010830D01*
X011369Y010852D01*
X011382Y010873D01*
X011398Y010892D01*
X011417Y010908D01*
X011438Y010921D01*
X011460Y010930D01*
X011484Y010936D01*
X011509Y010938D01*
X011534Y010936D01*
X011558Y010930D01*
X011580Y010921D01*
X011601Y010908D01*
X011620Y010892D01*
X011636Y010873D01*
X011649Y010852D01*
X011658Y010830D01*
X011664Y010806D01*
X011666Y010781D01*
X011664Y010756D01*
X011658Y010732D01*
X011649Y010710D01*
X011636Y010689D01*
X011620Y010670D01*
X011601Y010654D01*
X011580Y010641D01*
X011558Y010632D01*
X011534Y010626D01*
X011509Y010624D01*
X011484Y010626D01*
X011460Y010632D01*
X011438Y010641D01*
X011417Y010654D01*
X011398Y010670D01*
X011382Y010689D01*
X011369Y010710D01*
X011360Y010732D01*
X011354Y010756D01*
X011352Y010781D01*
X010860Y010781D02*
X010862Y010806D01*
X010868Y010830D01*
X010877Y010852D01*
X010890Y010873D01*
X010906Y010892D01*
X010925Y010908D01*
X010946Y010921D01*
X010968Y010930D01*
X010992Y010936D01*
X011017Y010938D01*
X011042Y010936D01*
X011066Y010930D01*
X011088Y010921D01*
X011109Y010908D01*
X011128Y010892D01*
X011144Y010873D01*
X011157Y010852D01*
X011166Y010830D01*
X011172Y010806D01*
X011174Y010781D01*
X011172Y010756D01*
X011166Y010732D01*
X011157Y010710D01*
X011144Y010689D01*
X011128Y010670D01*
X011109Y010654D01*
X011088Y010641D01*
X011066Y010632D01*
X011042Y010626D01*
X011017Y010624D01*
X010992Y010626D01*
X010968Y010632D01*
X010946Y010641D01*
X010925Y010654D01*
X010906Y010670D01*
X010890Y010689D01*
X010877Y010710D01*
X010868Y010732D01*
X010862Y010756D01*
X010860Y010781D01*
X010368Y010781D02*
X010370Y010806D01*
X010376Y010830D01*
X010385Y010852D01*
X010398Y010873D01*
X010414Y010892D01*
X010433Y010908D01*
X010454Y010921D01*
X010476Y010930D01*
X010500Y010936D01*
X010525Y010938D01*
X010550Y010936D01*
X010574Y010930D01*
X010596Y010921D01*
X010617Y010908D01*
X010636Y010892D01*
X010652Y010873D01*
X010665Y010852D01*
X010674Y010830D01*
X010680Y010806D01*
X010682Y010781D01*
X010680Y010756D01*
X010674Y010732D01*
X010665Y010710D01*
X010652Y010689D01*
X010636Y010670D01*
X010617Y010654D01*
X010596Y010641D01*
X010574Y010632D01*
X010550Y010626D01*
X010525Y010624D01*
X010500Y010626D01*
X010476Y010632D01*
X010454Y010641D01*
X010433Y010654D01*
X010414Y010670D01*
X010398Y010689D01*
X010385Y010710D01*
X010376Y010732D01*
X010370Y010756D01*
X010368Y010781D01*
X006892Y014494D02*
X006894Y014523D01*
X006900Y014551D01*
X006909Y014579D01*
X006922Y014605D01*
X006939Y014628D01*
X006958Y014650D01*
X006980Y014669D01*
X007005Y014684D01*
X007031Y014697D01*
X007059Y014705D01*
X007087Y014710D01*
X007116Y014711D01*
X007145Y014708D01*
X007173Y014701D01*
X007200Y014691D01*
X007226Y014677D01*
X007249Y014660D01*
X007270Y014640D01*
X007288Y014617D01*
X007303Y014592D01*
X007314Y014565D01*
X007322Y014537D01*
X007326Y014508D01*
X007326Y014480D01*
X007322Y014451D01*
X007314Y014423D01*
X007303Y014396D01*
X007288Y014371D01*
X007270Y014348D01*
X007249Y014328D01*
X007226Y014311D01*
X007200Y014297D01*
X007173Y014287D01*
X007145Y014280D01*
X007116Y014277D01*
X007087Y014278D01*
X007059Y014283D01*
X007031Y014291D01*
X007005Y014304D01*
X006980Y014319D01*
X006958Y014338D01*
X006939Y014360D01*
X006922Y014383D01*
X006909Y014409D01*
X006900Y014437D01*
X006894Y014465D01*
X006892Y014494D01*
X006892Y016266D02*
X006894Y016295D01*
X006900Y016323D01*
X006909Y016351D01*
X006922Y016377D01*
X006939Y016400D01*
X006958Y016422D01*
X006980Y016441D01*
X007005Y016456D01*
X007031Y016469D01*
X007059Y016477D01*
X007087Y016482D01*
X007116Y016483D01*
X007145Y016480D01*
X007173Y016473D01*
X007200Y016463D01*
X007226Y016449D01*
X007249Y016432D01*
X007270Y016412D01*
X007288Y016389D01*
X007303Y016364D01*
X007314Y016337D01*
X007322Y016309D01*
X007326Y016280D01*
X007326Y016252D01*
X007322Y016223D01*
X007314Y016195D01*
X007303Y016168D01*
X007288Y016143D01*
X007270Y016120D01*
X007249Y016100D01*
X007226Y016083D01*
X007200Y016069D01*
X007173Y016059D01*
X007145Y016052D01*
X007116Y016049D01*
X007087Y016050D01*
X007059Y016055D01*
X007031Y016063D01*
X007005Y016076D01*
X006980Y016091D01*
X006958Y016110D01*
X006939Y016132D01*
X006922Y016155D01*
X006909Y016181D01*
X006900Y016209D01*
X006894Y016237D01*
X006892Y016266D01*
X020210Y010781D02*
X020212Y010806D01*
X020218Y010830D01*
X020227Y010852D01*
X020240Y010873D01*
X020256Y010892D01*
X020275Y010908D01*
X020296Y010921D01*
X020318Y010930D01*
X020342Y010936D01*
X020367Y010938D01*
X020392Y010936D01*
X020416Y010930D01*
X020438Y010921D01*
X020459Y010908D01*
X020478Y010892D01*
X020494Y010873D01*
X020507Y010852D01*
X020516Y010830D01*
X020522Y010806D01*
X020524Y010781D01*
X020522Y010756D01*
X020516Y010732D01*
X020507Y010710D01*
X020494Y010689D01*
X020478Y010670D01*
X020459Y010654D01*
X020438Y010641D01*
X020416Y010632D01*
X020392Y010626D01*
X020367Y010624D01*
X020342Y010626D01*
X020318Y010632D01*
X020296Y010641D01*
X020275Y010654D01*
X020256Y010670D01*
X020240Y010689D01*
X020227Y010710D01*
X020218Y010732D01*
X020212Y010756D01*
X020210Y010781D01*
X020702Y010781D02*
X020704Y010806D01*
X020710Y010830D01*
X020719Y010852D01*
X020732Y010873D01*
X020748Y010892D01*
X020767Y010908D01*
X020788Y010921D01*
X020810Y010930D01*
X020834Y010936D01*
X020859Y010938D01*
X020884Y010936D01*
X020908Y010930D01*
X020930Y010921D01*
X020951Y010908D01*
X020970Y010892D01*
X020986Y010873D01*
X020999Y010852D01*
X021008Y010830D01*
X021014Y010806D01*
X021016Y010781D01*
X021014Y010756D01*
X021008Y010732D01*
X020999Y010710D01*
X020986Y010689D01*
X020970Y010670D01*
X020951Y010654D01*
X020930Y010641D01*
X020908Y010632D01*
X020884Y010626D01*
X020859Y010624D01*
X020834Y010626D01*
X020810Y010632D01*
X020788Y010641D01*
X020767Y010654D01*
X020748Y010670D01*
X020732Y010689D01*
X020719Y010710D01*
X020710Y010732D01*
X020704Y010756D01*
X020702Y010781D01*
X021194Y010781D02*
X021196Y010806D01*
X021202Y010830D01*
X021211Y010852D01*
X021224Y010873D01*
X021240Y010892D01*
X021259Y010908D01*
X021280Y010921D01*
X021302Y010930D01*
X021326Y010936D01*
X021351Y010938D01*
X021376Y010936D01*
X021400Y010930D01*
X021422Y010921D01*
X021443Y010908D01*
X021462Y010892D01*
X021478Y010873D01*
X021491Y010852D01*
X021500Y010830D01*
X021506Y010806D01*
X021508Y010781D01*
X021506Y010756D01*
X021500Y010732D01*
X021491Y010710D01*
X021478Y010689D01*
X021462Y010670D01*
X021443Y010654D01*
X021422Y010641D01*
X021400Y010632D01*
X021376Y010626D01*
X021351Y010624D01*
X021326Y010626D01*
X021302Y010632D01*
X021280Y010641D01*
X021259Y010654D01*
X021240Y010670D01*
X021224Y010689D01*
X021211Y010710D01*
X021202Y010732D01*
X021196Y010756D01*
X021194Y010781D01*
X021687Y010781D02*
X021689Y010806D01*
X021695Y010830D01*
X021704Y010852D01*
X021717Y010873D01*
X021733Y010892D01*
X021752Y010908D01*
X021773Y010921D01*
X021795Y010930D01*
X021819Y010936D01*
X021844Y010938D01*
X021869Y010936D01*
X021893Y010930D01*
X021915Y010921D01*
X021936Y010908D01*
X021955Y010892D01*
X021971Y010873D01*
X021984Y010852D01*
X021993Y010830D01*
X021999Y010806D01*
X022001Y010781D01*
X021999Y010756D01*
X021993Y010732D01*
X021984Y010710D01*
X021971Y010689D01*
X021955Y010670D01*
X021936Y010654D01*
X021915Y010641D01*
X021893Y010632D01*
X021869Y010626D01*
X021844Y010624D01*
X021819Y010626D01*
X021795Y010632D01*
X021773Y010641D01*
X021752Y010654D01*
X021733Y010670D01*
X021717Y010689D01*
X021704Y010710D01*
X021695Y010732D01*
X021689Y010756D01*
X021687Y010781D01*
X022179Y010781D02*
X022181Y010806D01*
X022187Y010830D01*
X022196Y010852D01*
X022209Y010873D01*
X022225Y010892D01*
X022244Y010908D01*
X022265Y010921D01*
X022287Y010930D01*
X022311Y010936D01*
X022336Y010938D01*
X022361Y010936D01*
X022385Y010930D01*
X022407Y010921D01*
X022428Y010908D01*
X022447Y010892D01*
X022463Y010873D01*
X022476Y010852D01*
X022485Y010830D01*
X022491Y010806D01*
X022493Y010781D01*
X022491Y010756D01*
X022485Y010732D01*
X022476Y010710D01*
X022463Y010689D01*
X022447Y010670D01*
X022428Y010654D01*
X022407Y010641D01*
X022385Y010632D01*
X022361Y010626D01*
X022336Y010624D01*
X022311Y010626D01*
X022287Y010632D01*
X022265Y010641D01*
X022244Y010654D01*
X022225Y010670D01*
X022209Y010689D01*
X022196Y010710D01*
X022187Y010732D01*
X022181Y010756D01*
X022179Y010781D01*
X022671Y010781D02*
X022673Y010806D01*
X022679Y010830D01*
X022688Y010852D01*
X022701Y010873D01*
X022717Y010892D01*
X022736Y010908D01*
X022757Y010921D01*
X022779Y010930D01*
X022803Y010936D01*
X022828Y010938D01*
X022853Y010936D01*
X022877Y010930D01*
X022899Y010921D01*
X022920Y010908D01*
X022939Y010892D01*
X022955Y010873D01*
X022968Y010852D01*
X022977Y010830D01*
X022983Y010806D01*
X022985Y010781D01*
X022983Y010756D01*
X022977Y010732D01*
X022968Y010710D01*
X022955Y010689D01*
X022939Y010670D01*
X022920Y010654D01*
X022899Y010641D01*
X022877Y010632D01*
X022853Y010626D01*
X022828Y010624D01*
X022803Y010626D01*
X022779Y010632D01*
X022757Y010641D01*
X022736Y010654D01*
X022717Y010670D01*
X022701Y010689D01*
X022688Y010710D01*
X022679Y010732D01*
X022673Y010756D01*
X022671Y010781D01*
X023163Y010781D02*
X023165Y010806D01*
X023171Y010830D01*
X023180Y010852D01*
X023193Y010873D01*
X023209Y010892D01*
X023228Y010908D01*
X023249Y010921D01*
X023271Y010930D01*
X023295Y010936D01*
X023320Y010938D01*
X023345Y010936D01*
X023369Y010930D01*
X023391Y010921D01*
X023412Y010908D01*
X023431Y010892D01*
X023447Y010873D01*
X023460Y010852D01*
X023469Y010830D01*
X023475Y010806D01*
X023477Y010781D01*
X023475Y010756D01*
X023469Y010732D01*
X023460Y010710D01*
X023447Y010689D01*
X023431Y010670D01*
X023412Y010654D01*
X023391Y010641D01*
X023369Y010632D01*
X023345Y010626D01*
X023320Y010624D01*
X023295Y010626D01*
X023271Y010632D01*
X023249Y010641D01*
X023228Y010654D01*
X023209Y010670D01*
X023193Y010689D01*
X023180Y010710D01*
X023171Y010732D01*
X023165Y010756D01*
X023163Y010781D01*
X023163Y009502D02*
X023165Y009527D01*
X023171Y009551D01*
X023180Y009573D01*
X023193Y009594D01*
X023209Y009613D01*
X023228Y009629D01*
X023249Y009642D01*
X023271Y009651D01*
X023295Y009657D01*
X023320Y009659D01*
X023345Y009657D01*
X023369Y009651D01*
X023391Y009642D01*
X023412Y009629D01*
X023431Y009613D01*
X023447Y009594D01*
X023460Y009573D01*
X023469Y009551D01*
X023475Y009527D01*
X023477Y009502D01*
X023475Y009477D01*
X023469Y009453D01*
X023460Y009431D01*
X023447Y009410D01*
X023431Y009391D01*
X023412Y009375D01*
X023391Y009362D01*
X023369Y009353D01*
X023345Y009347D01*
X023320Y009345D01*
X023295Y009347D01*
X023271Y009353D01*
X023249Y009362D01*
X023228Y009375D01*
X023209Y009391D01*
X023193Y009410D01*
X023180Y009431D01*
X023171Y009453D01*
X023165Y009477D01*
X023163Y009502D01*
X022671Y009502D02*
X022673Y009527D01*
X022679Y009551D01*
X022688Y009573D01*
X022701Y009594D01*
X022717Y009613D01*
X022736Y009629D01*
X022757Y009642D01*
X022779Y009651D01*
X022803Y009657D01*
X022828Y009659D01*
X022853Y009657D01*
X022877Y009651D01*
X022899Y009642D01*
X022920Y009629D01*
X022939Y009613D01*
X022955Y009594D01*
X022968Y009573D01*
X022977Y009551D01*
X022983Y009527D01*
X022985Y009502D01*
X022983Y009477D01*
X022977Y009453D01*
X022968Y009431D01*
X022955Y009410D01*
X022939Y009391D01*
X022920Y009375D01*
X022899Y009362D01*
X022877Y009353D01*
X022853Y009347D01*
X022828Y009345D01*
X022803Y009347D01*
X022779Y009353D01*
X022757Y009362D01*
X022736Y009375D01*
X022717Y009391D01*
X022701Y009410D01*
X022688Y009431D01*
X022679Y009453D01*
X022673Y009477D01*
X022671Y009502D01*
X022179Y009502D02*
X022181Y009527D01*
X022187Y009551D01*
X022196Y009573D01*
X022209Y009594D01*
X022225Y009613D01*
X022244Y009629D01*
X022265Y009642D01*
X022287Y009651D01*
X022311Y009657D01*
X022336Y009659D01*
X022361Y009657D01*
X022385Y009651D01*
X022407Y009642D01*
X022428Y009629D01*
X022447Y009613D01*
X022463Y009594D01*
X022476Y009573D01*
X022485Y009551D01*
X022491Y009527D01*
X022493Y009502D01*
X022491Y009477D01*
X022485Y009453D01*
X022476Y009431D01*
X022463Y009410D01*
X022447Y009391D01*
X022428Y009375D01*
X022407Y009362D01*
X022385Y009353D01*
X022361Y009347D01*
X022336Y009345D01*
X022311Y009347D01*
X022287Y009353D01*
X022265Y009362D01*
X022244Y009375D01*
X022225Y009391D01*
X022209Y009410D01*
X022196Y009431D01*
X022187Y009453D01*
X022181Y009477D01*
X022179Y009502D01*
X021687Y009502D02*
X021689Y009527D01*
X021695Y009551D01*
X021704Y009573D01*
X021717Y009594D01*
X021733Y009613D01*
X021752Y009629D01*
X021773Y009642D01*
X021795Y009651D01*
X021819Y009657D01*
X021844Y009659D01*
X021869Y009657D01*
X021893Y009651D01*
X021915Y009642D01*
X021936Y009629D01*
X021955Y009613D01*
X021971Y009594D01*
X021984Y009573D01*
X021993Y009551D01*
X021999Y009527D01*
X022001Y009502D01*
X021999Y009477D01*
X021993Y009453D01*
X021984Y009431D01*
X021971Y009410D01*
X021955Y009391D01*
X021936Y009375D01*
X021915Y009362D01*
X021893Y009353D01*
X021869Y009347D01*
X021844Y009345D01*
X021819Y009347D01*
X021795Y009353D01*
X021773Y009362D01*
X021752Y009375D01*
X021733Y009391D01*
X021717Y009410D01*
X021704Y009431D01*
X021695Y009453D01*
X021689Y009477D01*
X021687Y009502D01*
X021194Y009502D02*
X021196Y009527D01*
X021202Y009551D01*
X021211Y009573D01*
X021224Y009594D01*
X021240Y009613D01*
X021259Y009629D01*
X021280Y009642D01*
X021302Y009651D01*
X021326Y009657D01*
X021351Y009659D01*
X021376Y009657D01*
X021400Y009651D01*
X021422Y009642D01*
X021443Y009629D01*
X021462Y009613D01*
X021478Y009594D01*
X021491Y009573D01*
X021500Y009551D01*
X021506Y009527D01*
X021508Y009502D01*
X021506Y009477D01*
X021500Y009453D01*
X021491Y009431D01*
X021478Y009410D01*
X021462Y009391D01*
X021443Y009375D01*
X021422Y009362D01*
X021400Y009353D01*
X021376Y009347D01*
X021351Y009345D01*
X021326Y009347D01*
X021302Y009353D01*
X021280Y009362D01*
X021259Y009375D01*
X021240Y009391D01*
X021224Y009410D01*
X021211Y009431D01*
X021202Y009453D01*
X021196Y009477D01*
X021194Y009502D01*
X020702Y009502D02*
X020704Y009527D01*
X020710Y009551D01*
X020719Y009573D01*
X020732Y009594D01*
X020748Y009613D01*
X020767Y009629D01*
X020788Y009642D01*
X020810Y009651D01*
X020834Y009657D01*
X020859Y009659D01*
X020884Y009657D01*
X020908Y009651D01*
X020930Y009642D01*
X020951Y009629D01*
X020970Y009613D01*
X020986Y009594D01*
X020999Y009573D01*
X021008Y009551D01*
X021014Y009527D01*
X021016Y009502D01*
X021014Y009477D01*
X021008Y009453D01*
X020999Y009431D01*
X020986Y009410D01*
X020970Y009391D01*
X020951Y009375D01*
X020930Y009362D01*
X020908Y009353D01*
X020884Y009347D01*
X020859Y009345D01*
X020834Y009347D01*
X020810Y009353D01*
X020788Y009362D01*
X020767Y009375D01*
X020748Y009391D01*
X020732Y009410D01*
X020719Y009431D01*
X020710Y009453D01*
X020704Y009477D01*
X020702Y009502D01*
X020210Y009502D02*
X020212Y009527D01*
X020218Y009551D01*
X020227Y009573D01*
X020240Y009594D01*
X020256Y009613D01*
X020275Y009629D01*
X020296Y009642D01*
X020318Y009651D01*
X020342Y009657D01*
X020367Y009659D01*
X020392Y009657D01*
X020416Y009651D01*
X020438Y009642D01*
X020459Y009629D01*
X020478Y009613D01*
X020494Y009594D01*
X020507Y009573D01*
X020516Y009551D01*
X020522Y009527D01*
X020524Y009502D01*
X020522Y009477D01*
X020516Y009453D01*
X020507Y009431D01*
X020494Y009410D01*
X020478Y009391D01*
X020459Y009375D01*
X020438Y009362D01*
X020416Y009353D01*
X020392Y009347D01*
X020367Y009345D01*
X020342Y009347D01*
X020318Y009353D01*
X020296Y009362D01*
X020275Y009375D01*
X020256Y009391D01*
X020240Y009410D01*
X020227Y009431D01*
X020218Y009453D01*
X020212Y009477D01*
X020210Y009502D01*
X023562Y018857D02*
X023564Y018905D01*
X023570Y018953D01*
X023580Y019000D01*
X023593Y019046D01*
X023611Y019091D01*
X023631Y019135D01*
X023656Y019177D01*
X023684Y019216D01*
X023714Y019253D01*
X023748Y019287D01*
X023785Y019319D01*
X023823Y019348D01*
X023864Y019373D01*
X023907Y019395D01*
X023952Y019413D01*
X023998Y019427D01*
X024045Y019438D01*
X024093Y019445D01*
X024141Y019448D01*
X024189Y019447D01*
X024237Y019442D01*
X024285Y019433D01*
X024331Y019421D01*
X024376Y019404D01*
X024420Y019384D01*
X024462Y019361D01*
X024502Y019334D01*
X024540Y019304D01*
X024575Y019271D01*
X024607Y019235D01*
X024637Y019197D01*
X024663Y019156D01*
X024685Y019113D01*
X024705Y019069D01*
X024720Y019024D01*
X024732Y018977D01*
X024740Y018929D01*
X024744Y018881D01*
X024744Y018833D01*
X024740Y018785D01*
X024732Y018737D01*
X024720Y018690D01*
X024705Y018645D01*
X024685Y018601D01*
X024663Y018558D01*
X024637Y018517D01*
X024607Y018479D01*
X024575Y018443D01*
X024540Y018410D01*
X024502Y018380D01*
X024462Y018353D01*
X024420Y018330D01*
X024376Y018310D01*
X024331Y018293D01*
X024285Y018281D01*
X024237Y018272D01*
X024189Y018267D01*
X024141Y018266D01*
X024093Y018269D01*
X024045Y018276D01*
X023998Y018287D01*
X023952Y018301D01*
X023907Y018319D01*
X023864Y018341D01*
X023823Y018366D01*
X023785Y018395D01*
X023748Y018427D01*
X023714Y018461D01*
X023684Y018498D01*
X023656Y018537D01*
X023631Y018579D01*
X023611Y018623D01*
X023593Y018668D01*
X023580Y018714D01*
X023570Y018761D01*
X023564Y018809D01*
X023562Y018857D01*
D11*
X024722Y007633D03*
X024722Y006633D03*
X024722Y005633D03*
X024722Y004633D03*
X014672Y004683D03*
X014672Y005683D03*
X014672Y006683D03*
X014672Y007683D03*
D12*
X013499Y008398D03*
X011599Y008398D03*
X021649Y008348D03*
X023549Y008348D03*
D13*
X017198Y003644D03*
X017198Y002856D03*
X007148Y002906D03*
X007148Y003694D03*
D14*
X007048Y000800D03*
X008048Y000800D03*
X009048Y000800D03*
X010048Y000800D03*
X011048Y000800D03*
X012048Y000800D03*
X013048Y000800D03*
X017098Y000750D03*
X018098Y000750D03*
X019098Y000750D03*
X020098Y000750D03*
X021098Y000750D03*
X022098Y000750D03*
X023098Y000750D03*
D15*
G36*
X023721Y000782D02*
X024166Y001227D01*
X024667Y000726D01*
X024222Y000281D01*
X023721Y000782D01*
G37*
G36*
X024513Y001574D02*
X024958Y002019D01*
X025459Y001518D01*
X025014Y001073D01*
X024513Y001574D01*
G37*
G36*
X014463Y001624D02*
X014908Y002069D01*
X015409Y001568D01*
X014964Y001123D01*
X014463Y001624D01*
G37*
G36*
X013671Y000832D02*
X014116Y001277D01*
X014617Y000776D01*
X014172Y000331D01*
X013671Y000832D01*
G37*
D16*
X010348Y012506D03*
X010348Y013293D03*
X010348Y014131D03*
X010348Y014955D03*
X010348Y015805D03*
X010348Y016593D03*
X010348Y017380D03*
X010348Y018105D03*
X018085Y018105D03*
X018085Y017380D03*
X018085Y016593D03*
X018085Y015743D03*
X018085Y014955D03*
X018085Y014168D03*
X018085Y013318D03*
X018085Y012480D03*
D17*
X017616Y019130D03*
X016616Y019130D03*
X015616Y019130D03*
X014616Y019130D03*
X013616Y019130D03*
X012616Y019130D03*
X008093Y016758D03*
X008093Y015824D03*
X008093Y014936D03*
X008093Y014002D03*
D18*
X007148Y013096D03*
X007148Y017663D03*
D19*
X020499Y016483D03*
X021286Y016483D03*
X022074Y016483D03*
X022861Y016483D03*
X023649Y016483D03*
X024436Y016483D03*
X025223Y016483D03*
X025223Y011680D03*
X024436Y011680D03*
X023649Y011680D03*
X022861Y011680D03*
X022074Y011680D03*
X021286Y011680D03*
X020499Y011680D03*
D20*
X020416Y019005D03*
D21*
X019041Y019005D03*
X021792Y019005D03*
D22*
X022074Y017659D03*
X022861Y017659D03*
X023649Y017659D03*
X024436Y017659D03*
X025223Y017659D03*
X021286Y017659D03*
X020499Y017659D03*
X020499Y011380D03*
X021286Y011380D03*
X022074Y011380D03*
X022861Y011380D03*
X023649Y011380D03*
X024436Y011380D03*
X025223Y011380D03*
D23*
X024648Y012780D03*
X024349Y012775D03*
X023848Y012780D03*
X023848Y013180D03*
X022948Y013980D03*
X022048Y014780D03*
X022948Y015680D03*
X021748Y015880D03*
X020748Y015380D03*
X020448Y014880D03*
X019948Y015680D03*
X019348Y015380D03*
X019148Y016880D03*
X019448Y017080D03*
X019748Y017380D03*
X020048Y017680D03*
X020548Y017880D03*
X021148Y018280D03*
X022648Y018280D03*
X022648Y018680D03*
X022648Y019080D03*
X022648Y019480D03*
X025248Y019480D03*
X025248Y018380D03*
X025048Y015080D03*
X025048Y013580D03*
X025343Y013580D03*
X021748Y012680D03*
X020948Y012780D03*
X019648Y012280D03*
X019448Y012080D03*
X018948Y012380D03*
X017548Y013280D03*
X017248Y012780D03*
X016548Y013180D03*
X015398Y012880D03*
X014948Y013030D03*
X014348Y012780D03*
X014198Y013180D03*
X014198Y013930D03*
X013548Y014480D03*
X013148Y014680D03*
X012748Y013980D03*
X011148Y014080D03*
X011148Y014480D03*
X011148Y014780D03*
X011048Y015080D03*
X011448Y015580D03*
X012048Y016880D03*
X012348Y016880D03*
X012048Y017180D03*
X011648Y018180D03*
X012148Y018280D03*
X013148Y018680D03*
X012048Y019580D03*
X010448Y018880D03*
X010148Y019480D03*
X010948Y017880D03*
X009048Y015480D03*
X009048Y013380D03*
X008748Y013380D03*
X008748Y013080D03*
X008748Y012780D03*
X009048Y012080D03*
X009048Y011680D03*
X009348Y011380D03*
X009748Y011380D03*
X010148Y011380D03*
X010548Y011380D03*
X011448Y012380D03*
X011048Y012880D03*
X011048Y013480D03*
X008748Y011380D03*
X009148Y009000D03*
X009551Y008500D03*
X010048Y009000D03*
X008748Y007800D03*
X008448Y008300D03*
X010048Y007300D03*
X010648Y006700D03*
X010948Y006300D03*
X010048Y005600D03*
X010198Y004800D03*
X009498Y004900D03*
X010148Y004000D03*
X009048Y003650D03*
X008148Y004800D03*
X007448Y004500D03*
X006248Y005400D03*
X006248Y006200D03*
X006948Y006900D03*
X011648Y004800D03*
X012148Y003800D03*
X013048Y003500D03*
X012148Y002900D03*
X012748Y002500D03*
X013248Y002400D03*
X013748Y002100D03*
X014448Y001900D03*
X014748Y002300D03*
X013848Y001400D03*
X013548Y000600D03*
X012448Y001700D03*
X010948Y001800D03*
X010448Y001600D03*
X009948Y001600D03*
X010748Y002500D03*
X011148Y002800D03*
X008748Y002050D03*
X008048Y002300D03*
X007548Y002300D03*
X006998Y002200D03*
X013248Y005100D03*
X013748Y005300D03*
X013848Y004400D03*
X016298Y005350D03*
X016298Y006150D03*
X016998Y006850D03*
X018498Y008250D03*
X018798Y007750D03*
X019601Y008450D03*
X019198Y008950D03*
X020098Y008950D03*
X020098Y007250D03*
X020698Y006650D03*
X020998Y006250D03*
X020098Y005550D03*
X020248Y004750D03*
X019548Y004850D03*
X020198Y003950D03*
X019098Y003600D03*
X018198Y004750D03*
X017498Y004450D03*
X017598Y002250D03*
X018098Y002250D03*
X018798Y002000D03*
X019998Y001550D03*
X020498Y001550D03*
X020998Y001750D03*
X020798Y002450D03*
X021198Y002750D03*
X022198Y002850D03*
X022798Y002450D03*
X023298Y002350D03*
X023798Y002050D03*
X024498Y001850D03*
X024798Y002250D03*
X023898Y001350D03*
X023598Y000550D03*
X022498Y001650D03*
X023098Y003450D03*
X022198Y003750D03*
X021698Y004750D03*
X023298Y005050D03*
X023798Y005250D03*
X023898Y004350D03*
X025098Y008052D03*
X017048Y002150D03*
X015048Y008102D03*
X014648Y011380D03*
X015048Y011880D03*
X015648Y011880D03*
X016398Y014280D03*
X015748Y015280D03*
X014948Y016180D03*
X015148Y016980D03*
X014848Y017480D03*
X014448Y017330D03*
X014048Y017380D03*
X013948Y016380D03*
X014448Y015380D03*
X016148Y016580D03*
X015548Y017480D03*
X016448Y018280D03*
X016948Y018380D03*
X017248Y017580D03*
X018248Y018680D03*
X018248Y019080D03*
X018248Y019480D03*
X018748Y016880D03*
D24*
X018654Y016861D02*
X018635Y016895D01*
X018607Y016923D01*
X018572Y016942D01*
X018534Y016953D01*
X018135Y016953D01*
X018135Y016643D01*
X018665Y016643D01*
X018665Y016822D01*
X018654Y016861D01*
X018633Y016897D02*
X020152Y016897D01*
X020152Y016995D02*
X008556Y016995D01*
X008537Y017030D02*
X008489Y017097D01*
X008432Y017155D01*
X008365Y017203D01*
X008292Y017240D01*
X008215Y017265D01*
X008134Y017278D01*
X008133Y017278D01*
X008133Y016798D01*
X008053Y016798D01*
X008053Y017278D01*
X008052Y017278D01*
X007971Y017265D01*
X007893Y017240D01*
X007820Y017203D01*
X007754Y017155D01*
X007696Y017097D01*
X007648Y017030D01*
X007648Y017056D01*
X007812Y017220D01*
X007841Y017290D01*
X007948Y017397D01*
X007948Y017563D01*
X007931Y017580D01*
X007931Y017651D01*
X007979Y017608D01*
X008006Y017580D01*
X008009Y017580D01*
X008011Y017578D01*
X008050Y017580D01*
X009768Y017580D01*
X009768Y017108D01*
X009856Y017020D01*
X010840Y017020D01*
X010928Y017108D01*
X010928Y017575D01*
X011074Y017575D01*
X011253Y017754D01*
X011253Y018006D01*
X011074Y018185D01*
X010928Y018185D01*
X010928Y018377D01*
X010840Y018465D01*
X010048Y018465D01*
X010048Y019687D01*
X018366Y019687D01*
X018366Y019055D01*
X018991Y019055D01*
X018991Y018955D01*
X019091Y018955D01*
X019091Y019055D01*
X019716Y019055D01*
X019716Y019687D01*
X019916Y019687D01*
X019916Y018603D01*
X019897Y018567D01*
X019716Y018386D01*
X019716Y018955D01*
X019091Y018955D01*
X019091Y018030D01*
X019360Y018030D01*
X019020Y017690D01*
X018627Y017690D01*
X018577Y017740D01*
X017592Y017740D01*
X017505Y017652D01*
X017505Y017108D01*
X017592Y017020D01*
X018577Y017020D01*
X018627Y017070D01*
X019210Y017070D01*
X019324Y017117D01*
X020152Y017946D01*
X020152Y017708D01*
X020451Y017708D01*
X020451Y017611D01*
X020547Y017611D01*
X020547Y017224D01*
X020547Y016532D01*
X020451Y016532D01*
X020451Y017611D01*
X020152Y017611D01*
X020152Y017344D01*
X020162Y017306D01*
X020182Y017272D01*
X020210Y017244D01*
X020244Y017224D01*
X020265Y017219D01*
X020244Y017213D01*
X020210Y017194D01*
X020182Y017166D01*
X020162Y017132D01*
X020152Y017093D01*
X020152Y016531D01*
X020451Y016531D01*
X020451Y016435D01*
X020547Y016435D01*
X020547Y015743D01*
X020716Y015743D01*
X020754Y015753D01*
X020788Y015772D01*
X020816Y015800D01*
X020836Y015835D01*
X020846Y015873D01*
X020846Y016435D01*
X020547Y016435D01*
X020547Y016531D01*
X020846Y016531D01*
X020846Y017093D01*
X020836Y017132D01*
X020816Y017166D01*
X020788Y017194D01*
X020754Y017213D01*
X020733Y017219D01*
X020754Y017224D01*
X020788Y017244D01*
X020816Y017272D01*
X020836Y017306D01*
X020846Y017344D01*
X020846Y017611D01*
X020547Y017611D01*
X020547Y017708D01*
X020846Y017708D01*
X020846Y017974D01*
X020836Y018013D01*
X020825Y018030D01*
X020829Y018030D01*
X020916Y018118D01*
X020916Y019687D01*
X021117Y019687D01*
X021117Y019055D01*
X021742Y019055D01*
X021742Y018955D01*
X021117Y018955D01*
X021117Y018161D01*
X021127Y018122D01*
X021138Y018105D01*
X021027Y018105D01*
X020940Y018017D01*
X020940Y017302D01*
X021023Y017219D01*
X020940Y017136D01*
X020940Y015830D01*
X021027Y015743D01*
X021454Y015743D01*
X021622Y015575D01*
X021874Y015575D01*
X022042Y015743D01*
X022333Y015743D01*
X022421Y015830D01*
X022421Y017136D01*
X022338Y017219D01*
X022421Y017302D01*
X022421Y018017D01*
X022389Y018049D01*
X022409Y018060D01*
X022437Y018088D01*
X022457Y018122D01*
X022467Y018161D01*
X022467Y018955D01*
X021842Y018955D01*
X021842Y019055D01*
X022467Y019055D01*
X022467Y019687D01*
X025483Y019687D01*
X025483Y018104D01*
X025482Y018105D01*
X024964Y018105D01*
X024877Y018017D01*
X024877Y017302D01*
X024960Y017219D01*
X024877Y017136D01*
X024877Y015830D01*
X024964Y015743D01*
X025482Y015743D01*
X025483Y015743D01*
X025483Y012420D01*
X025482Y012420D01*
X025218Y012420D01*
X025218Y013134D01*
X025177Y013233D01*
X025101Y013309D01*
X024601Y013809D01*
X024502Y013850D01*
X020494Y013850D01*
X020395Y013809D01*
X020319Y013733D01*
X019419Y012833D01*
X019378Y012734D01*
X019378Y012441D01*
X019343Y012406D01*
X019343Y012385D01*
X019322Y012385D01*
X019143Y012206D01*
X019143Y011954D01*
X019191Y011905D01*
X018936Y011650D01*
X014809Y011650D01*
X014774Y011685D01*
X014522Y011685D01*
X014487Y011650D01*
X010961Y011650D01*
X010931Y011680D01*
X010895Y011680D01*
X010766Y011744D01*
X010731Y011780D01*
X010695Y011780D01*
X010663Y011796D01*
X010615Y011780D01*
X009448Y011780D01*
X009448Y012263D01*
X009331Y012380D01*
X009179Y012380D01*
X009174Y012385D01*
X008922Y012385D01*
X008917Y012380D01*
X007981Y012380D01*
X007848Y012480D01*
X007848Y012740D01*
X007931Y012941D01*
X007931Y013252D01*
X009768Y013252D01*
X009768Y013154D02*
X007931Y013154D01*
X007931Y013252D02*
X007848Y013453D01*
X007848Y013463D01*
X007841Y013470D01*
X007812Y013540D01*
X007771Y013581D01*
X007764Y013596D01*
X007798Y013561D01*
X007989Y013482D01*
X008196Y013482D01*
X008387Y013561D01*
X008534Y013707D01*
X008613Y013899D01*
X008613Y014105D01*
X008534Y014297D01*
X008387Y014443D01*
X008324Y014469D01*
X008387Y014495D01*
X008534Y014642D01*
X008613Y014833D01*
X008613Y015040D01*
X008534Y015231D01*
X008484Y015280D01*
X008817Y015280D01*
X008922Y015175D01*
X009174Y015175D01*
X009353Y015354D01*
X009353Y015606D01*
X009174Y015785D01*
X008922Y015785D01*
X008817Y015680D01*
X008596Y015680D01*
X008613Y015720D01*
X008613Y015927D01*
X008534Y016118D01*
X008387Y016264D01*
X008322Y016291D01*
X008365Y016313D01*
X008432Y016361D01*
X008489Y016419D01*
X008537Y016485D01*
X008575Y016558D01*
X008600Y016636D01*
X008613Y016717D01*
X008613Y016718D01*
X008133Y016718D01*
X008133Y016798D01*
X008613Y016798D01*
X009768Y016798D01*
X009768Y016865D02*
X009768Y016320D01*
X009856Y016233D01*
X010840Y016233D01*
X010928Y016320D01*
X010928Y016865D01*
X010840Y016953D01*
X009856Y016953D01*
X009768Y016865D01*
X009800Y016897D02*
X008594Y016897D01*
X008600Y016880D02*
X008575Y016957D01*
X008537Y017030D01*
X008492Y017094D02*
X009782Y017094D01*
X009768Y017192D02*
X008380Y017192D01*
X008133Y017192D02*
X008053Y017192D01*
X008053Y017094D02*
X008133Y017094D01*
X008133Y016995D02*
X008053Y016995D01*
X008053Y016897D02*
X008133Y016897D01*
X008133Y016798D02*
X008053Y016798D01*
X007648Y017030D02*
X007648Y017030D01*
X007685Y017094D02*
X007694Y017094D01*
X007784Y017192D02*
X007806Y017192D01*
X007841Y017291D02*
X009768Y017291D01*
X009768Y017389D02*
X007940Y017389D01*
X007948Y017488D02*
X009768Y017488D01*
X009768Y016700D02*
X008610Y016700D01*
X008613Y016798D02*
X008613Y016799D01*
X008600Y016880D01*
X008589Y016601D02*
X009768Y016601D01*
X009768Y016503D02*
X008546Y016503D01*
X008474Y016404D02*
X009768Y016404D01*
X009783Y016306D02*
X008350Y016306D01*
X008445Y016207D02*
X020152Y016207D01*
X020152Y016109D02*
X010897Y016109D01*
X010928Y016077D02*
X010840Y016165D01*
X009856Y016165D01*
X009768Y016077D01*
X009768Y015533D01*
X009856Y015445D01*
X010840Y015445D01*
X010928Y015533D01*
X010928Y016077D01*
X010928Y016010D02*
X017505Y016010D01*
X017505Y016015D02*
X017505Y015619D01*
X017365Y015480D01*
X017248Y015363D01*
X017248Y014963D01*
X017165Y014880D01*
X017048Y014763D01*
X017048Y014463D01*
X016665Y014080D01*
X014479Y014080D01*
X014324Y014235D01*
X014072Y014235D01*
X013893Y014056D01*
X013893Y013804D01*
X014072Y013625D01*
X014324Y013625D01*
X014379Y013680D01*
X014965Y013680D01*
X014865Y013580D01*
X014748Y013463D01*
X014748Y013261D01*
X014643Y013156D01*
X014643Y012916D01*
X014503Y013056D01*
X014503Y013306D01*
X014324Y013485D01*
X014072Y013485D01*
X013967Y013380D01*
X013631Y013380D01*
X013548Y013463D01*
X013548Y014175D01*
X013674Y014175D01*
X013853Y014354D01*
X013853Y014606D01*
X013674Y014785D01*
X013453Y014785D01*
X013453Y014806D01*
X013274Y014985D01*
X013022Y014985D01*
X012843Y014806D01*
X012843Y014554D01*
X012948Y014449D01*
X012948Y012997D01*
X013165Y012780D01*
X012131Y012780D01*
X011648Y013263D01*
X011531Y013380D01*
X010928Y013380D01*
X010928Y013565D01*
X010840Y013653D01*
X009856Y013653D01*
X009768Y013565D01*
X009768Y013021D01*
X009856Y012933D01*
X010743Y012933D01*
X010743Y012880D01*
X010665Y012880D01*
X010651Y012866D01*
X009856Y012866D01*
X009768Y012778D01*
X009768Y012233D01*
X009856Y012146D01*
X010840Y012146D01*
X010928Y012233D01*
X010928Y012480D01*
X010931Y012480D01*
X011026Y012575D01*
X011174Y012575D01*
X011353Y012754D01*
X011353Y012980D01*
X011365Y012980D01*
X011765Y012580D01*
X011679Y012580D01*
X011574Y012685D01*
X011322Y012685D01*
X011143Y012506D01*
X011143Y012254D01*
X011322Y012075D01*
X011574Y012075D01*
X011679Y012180D01*
X013865Y012180D01*
X013965Y012080D01*
X014731Y012080D01*
X014831Y012180D01*
X015731Y012180D01*
X016231Y012680D01*
X016831Y012680D01*
X016948Y012797D01*
X017148Y012997D01*
X017148Y013097D01*
X017243Y013192D01*
X017243Y013154D01*
X017422Y012975D01*
X017576Y012975D01*
X017592Y012958D01*
X018577Y012958D01*
X018665Y013046D01*
X018665Y013590D01*
X018653Y013602D01*
X018831Y013780D01*
X018948Y013897D01*
X018948Y014697D01*
X019326Y015075D01*
X019474Y015075D01*
X019653Y015254D01*
X019653Y015506D01*
X019474Y015685D01*
X019222Y015685D01*
X019043Y015506D01*
X019043Y015358D01*
X018665Y014979D01*
X018665Y015227D01*
X018577Y015315D01*
X017766Y015315D01*
X017834Y015383D01*
X018577Y015383D01*
X018665Y015471D01*
X018665Y016015D01*
X018577Y016103D01*
X017592Y016103D01*
X017505Y016015D01*
X017505Y015912D02*
X010928Y015912D01*
X010928Y015813D02*
X017505Y015813D01*
X017505Y015715D02*
X010928Y015715D01*
X010928Y015616D02*
X017501Y015616D01*
X017403Y015518D02*
X010912Y015518D01*
X010840Y015315D02*
X009856Y015315D01*
X009768Y015227D01*
X009768Y014683D01*
X009856Y014595D01*
X010840Y014595D01*
X010928Y014683D01*
X010928Y015227D01*
X010840Y015315D01*
X010928Y015222D02*
X017248Y015222D01*
X017248Y015124D02*
X010928Y015124D01*
X010928Y015025D02*
X017248Y015025D01*
X017212Y014927D02*
X013333Y014927D01*
X013431Y014828D02*
X017113Y014828D01*
X017048Y014730D02*
X013730Y014730D01*
X013828Y014631D02*
X017048Y014631D01*
X017048Y014533D02*
X013853Y014533D01*
X013853Y014434D02*
X017019Y014434D01*
X016921Y014336D02*
X013835Y014336D01*
X013736Y014237D02*
X016822Y014237D01*
X016724Y014139D02*
X014421Y014139D01*
X014198Y013930D02*
X014248Y013880D01*
X016748Y013880D01*
X017248Y014380D01*
X017248Y014680D01*
X017448Y014880D01*
X017448Y015280D01*
X017961Y015793D01*
X018085Y015743D01*
X018135Y016233D02*
X018534Y016233D01*
X018572Y016243D01*
X018607Y016263D01*
X018635Y016291D01*
X018654Y016325D01*
X018665Y016363D01*
X018665Y016543D01*
X018135Y016543D01*
X018135Y016643D01*
X018035Y016643D01*
X018035Y016953D01*
X017635Y016953D01*
X017597Y016942D01*
X017562Y016923D01*
X017535Y016895D01*
X017515Y016861D01*
X017505Y016822D01*
X017505Y016643D01*
X018035Y016643D01*
X018035Y016543D01*
X018135Y016543D01*
X018135Y016233D01*
X018135Y016306D02*
X018035Y016306D01*
X018035Y016233D02*
X018035Y016543D01*
X017505Y016543D01*
X017505Y016363D01*
X017515Y016325D01*
X017535Y016291D01*
X017562Y016263D01*
X017597Y016243D01*
X017635Y016233D01*
X018035Y016233D01*
X018035Y016404D02*
X018135Y016404D01*
X018135Y016503D02*
X018035Y016503D01*
X018035Y016601D02*
X010928Y016601D01*
X010928Y016503D02*
X017505Y016503D01*
X017505Y016404D02*
X010928Y016404D01*
X010913Y016306D02*
X017526Y016306D01*
X017505Y016700D02*
X010928Y016700D01*
X010928Y016798D02*
X017505Y016798D01*
X017536Y016897D02*
X010896Y016897D01*
X010914Y017094D02*
X014253Y017094D01*
X014322Y017025D02*
X014574Y017025D01*
X014724Y017175D01*
X014974Y017175D01*
X015153Y017354D01*
X015153Y017606D01*
X015048Y017711D01*
X015048Y017763D01*
X014901Y017910D01*
X015278Y017910D01*
X015278Y017641D01*
X015243Y017606D01*
X015243Y017354D01*
X015422Y017175D01*
X015674Y017175D01*
X015853Y017354D01*
X015853Y017606D01*
X015818Y017641D01*
X015818Y017910D01*
X015836Y017910D01*
X016095Y017651D01*
X016194Y017610D01*
X016702Y017610D01*
X016801Y017651D01*
X016877Y017727D01*
X017101Y017951D01*
X017177Y018027D01*
X017218Y018126D01*
X017218Y018219D01*
X017253Y018254D01*
X017253Y018506D01*
X017074Y018685D01*
X016901Y018685D01*
X016911Y018689D01*
X017057Y018835D01*
X017118Y018982D01*
X017134Y018930D01*
X017172Y018857D01*
X017220Y018791D01*
X017278Y018733D01*
X017344Y018685D01*
X017417Y018648D01*
X017495Y018623D01*
X017566Y018611D01*
X017566Y019080D01*
X017666Y019080D01*
X017666Y018611D01*
X017738Y018623D01*
X017816Y018648D01*
X017889Y018685D01*
X017955Y018733D01*
X018013Y018791D01*
X018061Y018857D01*
X018098Y018930D01*
X018124Y019008D01*
X018135Y019080D01*
X017666Y019080D01*
X017666Y019180D01*
X017566Y019180D01*
X017566Y019648D01*
X017495Y019637D01*
X017417Y019612D01*
X017344Y019575D01*
X017278Y019527D01*
X017220Y019469D01*
X017172Y019402D01*
X017134Y019330D01*
X017118Y019278D01*
X017057Y019424D01*
X016911Y019571D01*
X016720Y019650D01*
X016513Y019650D01*
X016322Y019571D01*
X016176Y019424D01*
X016116Y019282D01*
X016057Y019424D01*
X015911Y019571D01*
X015720Y019650D01*
X015513Y019650D01*
X015322Y019571D01*
X015176Y019424D01*
X015116Y019282D01*
X015057Y019424D01*
X014911Y019571D01*
X014720Y019650D01*
X014513Y019650D01*
X014322Y019571D01*
X014176Y019424D01*
X014116Y019282D01*
X014057Y019424D01*
X013911Y019571D01*
X013720Y019650D01*
X013513Y019650D01*
X013322Y019571D01*
X013176Y019424D01*
X013116Y019282D01*
X013057Y019424D01*
X012911Y019571D01*
X012720Y019650D01*
X012513Y019650D01*
X012322Y019571D01*
X012176Y019424D01*
X012096Y019233D01*
X012096Y019080D01*
X010679Y019080D01*
X010574Y019185D01*
X010322Y019185D01*
X010143Y019006D01*
X010143Y018754D01*
X010322Y018575D01*
X010574Y018575D01*
X010679Y018680D01*
X011965Y018680D01*
X012060Y018585D01*
X012022Y018585D01*
X011848Y018411D01*
X011774Y018485D01*
X011522Y018485D01*
X011343Y018306D01*
X011343Y018054D01*
X011522Y017875D01*
X011670Y017875D01*
X011865Y017680D01*
X014565Y017680D01*
X014591Y017654D01*
X014572Y017635D01*
X014322Y017635D01*
X014143Y017456D01*
X014143Y017204D01*
X014322Y017025D01*
X014154Y017192D02*
X010928Y017192D01*
X010928Y017291D02*
X014143Y017291D01*
X014143Y017389D02*
X010928Y017389D01*
X010928Y017488D02*
X014174Y017488D01*
X014273Y017586D02*
X011085Y017586D01*
X011184Y017685D02*
X011860Y017685D01*
X011762Y017783D02*
X011253Y017783D01*
X011253Y017882D02*
X011515Y017882D01*
X011416Y017980D02*
X011253Y017980D01*
X011181Y018079D02*
X011343Y018079D01*
X011343Y018177D02*
X011082Y018177D01*
X010928Y018276D02*
X011343Y018276D01*
X011411Y018374D02*
X010928Y018374D01*
X010669Y018670D02*
X011975Y018670D01*
X012008Y018571D02*
X010048Y018571D01*
X010048Y018473D02*
X011509Y018473D01*
X011787Y018473D02*
X011909Y018473D01*
X011648Y018180D02*
X011948Y017880D01*
X014648Y017880D01*
X014848Y017680D01*
X014848Y017480D01*
X015153Y017488D02*
X015243Y017488D01*
X015243Y017586D02*
X015153Y017586D01*
X015075Y017685D02*
X015278Y017685D01*
X015278Y017783D02*
X015028Y017783D01*
X014929Y017882D02*
X015278Y017882D01*
X015243Y017389D02*
X015153Y017389D01*
X015090Y017291D02*
X015306Y017291D01*
X015404Y017192D02*
X014991Y017192D01*
X014643Y017094D02*
X017519Y017094D01*
X017505Y017192D02*
X015691Y017192D01*
X015790Y017291D02*
X017505Y017291D01*
X017505Y017389D02*
X015853Y017389D01*
X015853Y017488D02*
X017505Y017488D01*
X017505Y017586D02*
X015853Y017586D01*
X015818Y017685D02*
X016061Y017685D01*
X015963Y017783D02*
X015818Y017783D01*
X015818Y017882D02*
X015864Y017882D01*
X016448Y018280D02*
X016148Y018580D01*
X014148Y018580D01*
X013598Y019130D01*
X013616Y019130D01*
X013148Y019359D02*
X013084Y019359D01*
X013024Y019458D02*
X013209Y019458D01*
X013307Y019556D02*
X012926Y019556D01*
X012307Y019556D02*
X010048Y019556D01*
X010048Y019458D02*
X012209Y019458D01*
X012148Y019359D02*
X010048Y019359D01*
X010048Y019261D02*
X012108Y019261D01*
X012096Y019162D02*
X010597Y019162D01*
X010299Y019162D02*
X010048Y019162D01*
X010048Y019064D02*
X010200Y019064D01*
X010143Y018965D02*
X010048Y018965D01*
X010048Y018867D02*
X010143Y018867D01*
X010143Y018768D02*
X010048Y018768D01*
X010048Y018670D02*
X010227Y018670D01*
X010448Y018880D02*
X012048Y018880D01*
X012348Y018580D01*
X013048Y018580D01*
X013148Y018680D01*
X014084Y019359D02*
X014148Y019359D01*
X014209Y019458D02*
X014024Y019458D01*
X013926Y019556D02*
X014307Y019556D01*
X014926Y019556D02*
X015307Y019556D01*
X015209Y019458D02*
X015024Y019458D01*
X015084Y019359D02*
X015148Y019359D01*
X015926Y019556D02*
X016307Y019556D01*
X016209Y019458D02*
X016024Y019458D01*
X016084Y019359D02*
X016148Y019359D01*
X016926Y019556D02*
X017318Y019556D01*
X017212Y019458D02*
X017024Y019458D01*
X017084Y019359D02*
X017150Y019359D01*
X017123Y018965D02*
X017111Y018965D01*
X017070Y018867D02*
X017167Y018867D01*
X017243Y018768D02*
X016990Y018768D01*
X017090Y018670D02*
X017375Y018670D01*
X017566Y018670D02*
X017666Y018670D01*
X017666Y018768D02*
X017566Y018768D01*
X017566Y018867D02*
X017666Y018867D01*
X017666Y018965D02*
X017566Y018965D01*
X017566Y019064D02*
X017666Y019064D01*
X017666Y019162D02*
X018366Y019162D01*
X018366Y019064D02*
X018132Y019064D01*
X018110Y018965D02*
X018991Y018965D01*
X018991Y018955D02*
X018366Y018955D01*
X018366Y018465D01*
X018135Y018465D01*
X018135Y018155D01*
X018035Y018155D01*
X018035Y018465D01*
X017635Y018465D01*
X017597Y018455D01*
X017562Y018435D01*
X017535Y018407D01*
X017515Y018373D01*
X017505Y018335D01*
X017505Y018155D01*
X018035Y018155D01*
X018035Y018055D01*
X018135Y018055D01*
X018135Y017745D01*
X018534Y017745D01*
X018572Y017755D01*
X018607Y017775D01*
X018635Y017803D01*
X018654Y017837D01*
X018665Y017875D01*
X018665Y018030D01*
X018991Y018030D01*
X018991Y018955D01*
X018991Y018867D02*
X019091Y018867D01*
X019091Y018965D02*
X019916Y018965D01*
X019916Y018867D02*
X019716Y018867D01*
X019716Y018768D02*
X019916Y018768D01*
X019916Y018670D02*
X019716Y018670D01*
X019716Y018571D02*
X019899Y018571D01*
X019802Y018473D02*
X019716Y018473D01*
X019091Y018473D02*
X018991Y018473D01*
X018991Y018571D02*
X019091Y018571D01*
X019091Y018670D02*
X018991Y018670D01*
X018991Y018768D02*
X019091Y018768D01*
X019091Y018374D02*
X018991Y018374D01*
X018991Y018276D02*
X019091Y018276D01*
X019091Y018177D02*
X018991Y018177D01*
X018991Y018079D02*
X019091Y018079D01*
X019211Y017882D02*
X018665Y017882D01*
X018665Y017980D02*
X019310Y017980D01*
X019113Y017783D02*
X018615Y017783D01*
X018135Y017783D02*
X018035Y017783D01*
X018035Y017745D02*
X017635Y017745D01*
X017597Y017755D01*
X017562Y017775D01*
X017535Y017803D01*
X017515Y017837D01*
X017505Y017875D01*
X017505Y018055D01*
X018035Y018055D01*
X018035Y017745D01*
X018035Y017882D02*
X018135Y017882D01*
X018135Y017980D02*
X018035Y017980D01*
X018035Y018079D02*
X017198Y018079D01*
X017218Y018177D02*
X017505Y018177D01*
X017505Y018276D02*
X017253Y018276D01*
X017253Y018374D02*
X017516Y018374D01*
X017253Y018473D02*
X018366Y018473D01*
X018366Y018571D02*
X017188Y018571D01*
X016748Y018080D02*
X016648Y017880D01*
X016834Y017685D02*
X017537Y017685D01*
X017554Y017783D02*
X016933Y017783D01*
X017031Y017882D02*
X017505Y017882D01*
X017505Y017980D02*
X017130Y017980D01*
X017148Y017580D02*
X017248Y017580D01*
X018035Y018177D02*
X018135Y018177D01*
X018135Y018276D02*
X018035Y018276D01*
X018035Y018374D02*
X018135Y018374D01*
X018366Y018670D02*
X017858Y018670D01*
X017990Y018768D02*
X018366Y018768D01*
X018366Y018867D02*
X018066Y018867D01*
X018135Y019180D02*
X017666Y019180D01*
X017666Y019648D01*
X017738Y019637D01*
X017816Y019612D01*
X017889Y019575D01*
X017955Y019527D01*
X018013Y019469D01*
X018061Y019402D01*
X018098Y019330D01*
X018124Y019252D01*
X018135Y019180D01*
X018121Y019261D02*
X018366Y019261D01*
X018366Y019359D02*
X018083Y019359D01*
X018021Y019458D02*
X018366Y019458D01*
X018366Y019556D02*
X017915Y019556D01*
X017666Y019556D02*
X017566Y019556D01*
X017566Y019458D02*
X017666Y019458D01*
X017666Y019359D02*
X017566Y019359D01*
X017566Y019261D02*
X017666Y019261D01*
X018366Y019655D02*
X010048Y019655D01*
X008000Y017586D02*
X007931Y017586D01*
X007448Y016940D02*
X007448Y016404D01*
X007419Y016473D01*
X007316Y016576D01*
X007181Y016632D01*
X007036Y016632D01*
X006901Y016576D01*
X006798Y016473D01*
X006742Y016339D01*
X006742Y016193D01*
X006798Y016058D01*
X006901Y015955D01*
X007036Y015899D01*
X007181Y015899D01*
X007316Y015955D01*
X007419Y016058D01*
X007448Y016127D01*
X007448Y014633D01*
X007419Y014702D01*
X007316Y014805D01*
X007181Y014861D01*
X007036Y014861D01*
X006901Y014805D01*
X006798Y014702D01*
X006742Y014567D01*
X006742Y014421D01*
X006798Y014286D01*
X006901Y014183D01*
X007036Y014128D01*
X007181Y014128D01*
X007316Y014183D01*
X007419Y014286D01*
X007448Y014356D01*
X007448Y013820D01*
X007304Y013880D01*
X006992Y013880D01*
X006704Y013760D01*
X006484Y013540D01*
X006365Y013252D01*
X006196Y013252D01*
X006196Y013154D02*
X006365Y013154D01*
X006365Y013252D02*
X006365Y012941D01*
X006484Y012653D01*
X006704Y012433D01*
X006992Y012313D01*
X007304Y012313D01*
X007591Y012433D01*
X007648Y012489D01*
X007648Y012380D01*
X009317Y011128D01*
X007031Y011128D01*
X006900Y011139D01*
X006652Y011219D01*
X006441Y011373D01*
X006287Y011584D01*
X006207Y011832D01*
X006196Y011963D01*
X006196Y017580D01*
X006365Y017580D01*
X006365Y017508D01*
X006484Y017220D01*
X006704Y017000D01*
X006992Y016880D01*
X007304Y016880D01*
X007448Y016940D01*
X007448Y016897D02*
X007343Y016897D01*
X007448Y016798D02*
X006196Y016798D01*
X006196Y016700D02*
X007448Y016700D01*
X007448Y016601D02*
X007257Y016601D01*
X007390Y016503D02*
X007448Y016503D01*
X007440Y016109D02*
X007448Y016109D01*
X007448Y016010D02*
X007371Y016010D01*
X007448Y015912D02*
X007211Y015912D01*
X007006Y015912D02*
X006196Y015912D01*
X006196Y016010D02*
X006846Y016010D01*
X006777Y016109D02*
X006196Y016109D01*
X006196Y016207D02*
X006742Y016207D01*
X006742Y016306D02*
X006196Y016306D01*
X006196Y016404D02*
X006769Y016404D01*
X006827Y016503D02*
X006196Y016503D01*
X006196Y016601D02*
X006960Y016601D01*
X006953Y016897D02*
X006196Y016897D01*
X006196Y016995D02*
X006715Y016995D01*
X006610Y017094D02*
X006196Y017094D01*
X006196Y017192D02*
X006512Y017192D01*
X006455Y017291D02*
X006196Y017291D01*
X006196Y017389D02*
X006414Y017389D01*
X006373Y017488D02*
X006196Y017488D01*
X006196Y015813D02*
X007448Y015813D01*
X007448Y015715D02*
X006196Y015715D01*
X006196Y015616D02*
X007448Y015616D01*
X007448Y015518D02*
X006196Y015518D01*
X006196Y015419D02*
X007448Y015419D01*
X007448Y015321D02*
X006196Y015321D01*
X006196Y015222D02*
X007448Y015222D01*
X007448Y015124D02*
X006196Y015124D01*
X006196Y015025D02*
X007448Y015025D01*
X007448Y014927D02*
X006196Y014927D01*
X006196Y014828D02*
X006957Y014828D01*
X006826Y014730D02*
X006196Y014730D01*
X006196Y014631D02*
X006768Y014631D01*
X006742Y014533D02*
X006196Y014533D01*
X006196Y014434D02*
X006742Y014434D01*
X006777Y014336D02*
X006196Y014336D01*
X006196Y014237D02*
X006847Y014237D01*
X007009Y014139D02*
X006196Y014139D01*
X006196Y014040D02*
X007448Y014040D01*
X007448Y013942D02*
X006196Y013942D01*
X006196Y013843D02*
X006904Y013843D01*
X006689Y013745D02*
X006196Y013745D01*
X006196Y013646D02*
X006590Y013646D01*
X006492Y013548D02*
X006196Y013548D01*
X006196Y013449D02*
X006446Y013449D01*
X006406Y013351D02*
X006196Y013351D01*
X006196Y013055D02*
X006365Y013055D01*
X006365Y012957D02*
X006196Y012957D01*
X006196Y012858D02*
X006399Y012858D01*
X006440Y012760D02*
X006196Y012760D01*
X006196Y012661D02*
X006481Y012661D01*
X006574Y012563D02*
X006196Y012563D01*
X006196Y012464D02*
X006673Y012464D01*
X006866Y012366D02*
X006196Y012366D01*
X006196Y012267D02*
X007798Y012267D01*
X007667Y012366D02*
X007430Y012366D01*
X007548Y012280D02*
X007648Y012180D01*
X009248Y012180D01*
X009248Y011580D01*
X010648Y011580D01*
X010848Y011480D01*
X010848Y011180D01*
X010704Y011037D01*
X010699Y011042D01*
X010586Y011089D01*
X010463Y011089D01*
X010350Y011042D01*
X010334Y011025D01*
X010313Y011062D01*
X010198Y011128D01*
X007448Y011128D01*
X007448Y011480D01*
X007548Y011580D01*
X007548Y012280D01*
X007548Y012267D02*
X007561Y012267D01*
X007548Y012169D02*
X009248Y012169D01*
X009248Y012070D02*
X007548Y012070D01*
X007548Y011972D02*
X009248Y011972D01*
X009248Y011873D02*
X007548Y011873D01*
X007548Y011775D02*
X009248Y011775D01*
X009248Y011676D02*
X007548Y011676D01*
X007545Y011578D02*
X010653Y011578D01*
X010736Y011775D02*
X019061Y011775D01*
X019159Y011873D02*
X009448Y011873D01*
X009448Y011972D02*
X019143Y011972D01*
X019143Y012070D02*
X009448Y012070D01*
X009448Y012169D02*
X009833Y012169D01*
X009768Y012267D02*
X009444Y012267D01*
X009345Y012366D02*
X009768Y012366D01*
X009768Y012464D02*
X007869Y012464D01*
X007848Y012563D02*
X009768Y012563D01*
X009768Y012661D02*
X007848Y012661D01*
X007856Y012760D02*
X009768Y012760D01*
X009848Y012858D02*
X007897Y012858D01*
X007931Y012957D02*
X009832Y012957D01*
X009768Y013055D02*
X007931Y013055D01*
X007890Y013351D02*
X009768Y013351D01*
X009768Y013449D02*
X007849Y013449D01*
X007831Y013548D02*
X007804Y013548D01*
X007448Y013843D02*
X007392Y013843D01*
X007448Y014139D02*
X007208Y014139D01*
X007370Y014237D02*
X007448Y014237D01*
X007440Y014336D02*
X007448Y014336D01*
X007448Y014730D02*
X007391Y014730D01*
X007448Y014828D02*
X007260Y014828D01*
X008424Y014533D02*
X012864Y014533D01*
X012843Y014631D02*
X010876Y014631D01*
X010928Y014730D02*
X012843Y014730D01*
X012865Y014828D02*
X010928Y014828D01*
X010928Y014927D02*
X012963Y014927D01*
X013148Y014680D02*
X013148Y013080D01*
X013448Y012780D01*
X014348Y012780D01*
X014603Y012957D02*
X014643Y012957D01*
X014643Y013055D02*
X014504Y013055D01*
X014503Y013154D02*
X014643Y013154D01*
X014739Y013252D02*
X014503Y013252D01*
X014459Y013351D02*
X014748Y013351D01*
X014748Y013449D02*
X014360Y013449D01*
X014345Y013646D02*
X014931Y013646D01*
X014833Y013548D02*
X013548Y013548D01*
X013548Y013646D02*
X014050Y013646D01*
X013952Y013745D02*
X013548Y013745D01*
X013548Y013843D02*
X013893Y013843D01*
X013893Y013942D02*
X013548Y013942D01*
X013548Y014040D02*
X013893Y014040D01*
X013975Y014139D02*
X013548Y014139D01*
X013348Y014280D02*
X013348Y013380D01*
X013548Y013180D01*
X014198Y013180D01*
X014036Y013449D02*
X013562Y013449D01*
X012948Y013449D02*
X010928Y013449D01*
X010928Y013548D02*
X012948Y013548D01*
X012948Y013646D02*
X010847Y013646D01*
X010840Y013771D02*
X010928Y013858D01*
X010928Y014403D01*
X010840Y014491D01*
X009856Y014491D01*
X009768Y014403D01*
X009768Y013858D01*
X009856Y013771D01*
X010840Y013771D01*
X010913Y013843D02*
X012948Y013843D01*
X012948Y013745D02*
X008549Y013745D01*
X008590Y013843D02*
X009783Y013843D01*
X009768Y013942D02*
X008613Y013942D01*
X008613Y014040D02*
X009768Y014040D01*
X009768Y014139D02*
X008599Y014139D01*
X008558Y014237D02*
X009768Y014237D01*
X009768Y014336D02*
X008495Y014336D01*
X008396Y014434D02*
X009799Y014434D01*
X009820Y014631D02*
X008523Y014631D01*
X008570Y014730D02*
X009768Y014730D01*
X009768Y014828D02*
X008611Y014828D01*
X008613Y014927D02*
X009768Y014927D01*
X009768Y015025D02*
X008613Y015025D01*
X008578Y015124D02*
X009768Y015124D01*
X009768Y015222D02*
X009221Y015222D01*
X009320Y015321D02*
X017248Y015321D01*
X017304Y015419D02*
X009353Y015419D01*
X009353Y015518D02*
X009783Y015518D01*
X009768Y015616D02*
X009343Y015616D01*
X009245Y015715D02*
X009768Y015715D01*
X009768Y015813D02*
X008613Y015813D01*
X008610Y015715D02*
X008851Y015715D01*
X009048Y015480D02*
X008436Y015480D01*
X008093Y015824D01*
X008578Y016010D02*
X009768Y016010D01*
X009768Y015912D02*
X008613Y015912D01*
X008538Y016109D02*
X009799Y016109D01*
X008874Y015222D02*
X008537Y015222D01*
X008472Y013646D02*
X009849Y013646D01*
X009768Y013548D02*
X008354Y013548D01*
X007648Y012464D02*
X007623Y012464D01*
X007930Y012169D02*
X006196Y012169D01*
X006196Y012070D02*
X008061Y012070D01*
X008192Y011972D02*
X006196Y011972D01*
X006203Y011873D02*
X008324Y011873D01*
X008455Y011775D02*
X006225Y011775D01*
X006257Y011676D02*
X008586Y011676D01*
X008718Y011578D02*
X006292Y011578D01*
X006363Y011479D02*
X008849Y011479D01*
X008980Y011381D02*
X006435Y011381D01*
X006565Y011282D02*
X009112Y011282D01*
X009243Y011184D02*
X006762Y011184D01*
X007448Y011184D02*
X010848Y011184D01*
X010848Y011282D02*
X007448Y011282D01*
X007448Y011381D02*
X010848Y011381D01*
X010848Y011479D02*
X007448Y011479D01*
X009060Y009175D02*
X010215Y009175D01*
X010217Y009177D01*
X010319Y009236D01*
X010332Y009259D01*
X010350Y009241D01*
X010463Y009194D01*
X010586Y009194D01*
X010699Y009241D01*
X010758Y009300D01*
X010784Y009300D01*
X010843Y009241D01*
X010956Y009194D01*
X011078Y009194D01*
X011191Y009241D01*
X011250Y009300D01*
X011276Y009300D01*
X011335Y009241D01*
X011448Y009194D01*
X011570Y009194D01*
X011683Y009241D01*
X011742Y009300D01*
X011768Y009300D01*
X011827Y009241D01*
X011940Y009194D01*
X012062Y009194D01*
X012175Y009241D01*
X012234Y009300D01*
X012260Y009300D01*
X012319Y009241D01*
X012432Y009194D01*
X012554Y009194D01*
X012667Y009241D01*
X012726Y009300D01*
X012752Y009300D01*
X012811Y009241D01*
X012924Y009194D01*
X013046Y009194D01*
X013159Y009241D01*
X013218Y009300D01*
X013245Y009300D01*
X013303Y009241D01*
X013416Y009194D01*
X013539Y009194D01*
X013652Y009241D01*
X013682Y009272D01*
X013695Y009249D01*
X013695Y009249D01*
X013695Y009249D01*
X013823Y009175D01*
X014798Y009175D01*
X014886Y009166D01*
X015048Y009099D01*
X015172Y008975D01*
X015239Y008813D01*
X015248Y008725D01*
X015248Y008333D01*
X015174Y008407D01*
X014922Y008407D01*
X014743Y008228D01*
X014743Y008133D01*
X013960Y008133D01*
X013872Y008045D01*
X013872Y007321D01*
X013960Y007233D01*
X015248Y007233D01*
X015248Y007133D01*
X013960Y007133D01*
X013872Y007045D01*
X013872Y006607D01*
X013765Y006500D01*
X013648Y006383D01*
X013648Y005983D01*
X013365Y005700D01*
X013248Y005583D01*
X013248Y005405D01*
X013122Y005405D01*
X012943Y005226D01*
X012943Y004974D01*
X013122Y004795D01*
X013374Y004795D01*
X013553Y004974D01*
X013553Y005064D01*
X013622Y004995D01*
X013872Y004995D01*
X013872Y004733D01*
X014622Y004733D01*
X014622Y005133D01*
X014012Y005133D01*
X014053Y005174D01*
X014053Y005233D01*
X015248Y005233D01*
X015248Y005133D01*
X014722Y005133D01*
X014722Y004733D01*
X014622Y004733D01*
X014622Y004633D01*
X013872Y004633D01*
X013872Y004363D01*
X013883Y004325D01*
X013900Y004294D01*
X013848Y004241D01*
X013848Y002459D01*
X013906Y002400D01*
X015248Y002400D01*
X015248Y001941D01*
X014970Y002220D01*
X014845Y002220D01*
X014720Y002094D01*
X014715Y002100D01*
X014679Y002100D01*
X014574Y002205D01*
X014322Y002205D01*
X014143Y002026D01*
X014143Y002000D01*
X012579Y002000D01*
X012574Y002005D01*
X012322Y002005D01*
X012317Y002000D01*
X011179Y002000D01*
X011074Y002105D01*
X010822Y002105D01*
X010643Y001926D01*
X010643Y001674D01*
X010822Y001495D01*
X011074Y001495D01*
X011179Y001600D01*
X012143Y001600D01*
X012143Y001574D01*
X012267Y001450D01*
X011736Y001450D01*
X011648Y001362D01*
X011648Y001000D01*
X011448Y001000D01*
X011448Y001362D01*
X011360Y001450D01*
X010736Y001450D01*
X010648Y001362D01*
X010648Y001000D01*
X010448Y001000D01*
X010448Y001362D01*
X010360Y001450D01*
X010248Y001450D01*
X010248Y001469D01*
X010253Y001474D01*
X010253Y001726D01*
X010074Y001905D01*
X009822Y001905D01*
X009643Y001726D01*
X009643Y001474D01*
X009701Y001415D01*
X009648Y001362D01*
X009648Y000425D01*
X009448Y000425D01*
X009448Y001362D01*
X009360Y001450D01*
X008881Y001450D01*
X008748Y001583D01*
X008631Y001700D01*
X008148Y001700D01*
X008148Y001995D01*
X008174Y001995D01*
X008353Y002174D01*
X008353Y002426D01*
X008174Y002605D01*
X007922Y002605D01*
X007798Y002481D01*
X007674Y002605D01*
X007423Y002605D01*
X007555Y002738D01*
X007555Y002878D01*
X007177Y002878D01*
X007177Y002935D01*
X007555Y002935D01*
X007555Y003075D01*
X007330Y003300D01*
X007555Y003525D01*
X007555Y003862D01*
X007317Y004101D01*
X006979Y004101D01*
X006740Y003862D01*
X006740Y003525D01*
X006965Y003300D01*
X006740Y003075D01*
X006740Y002935D01*
X007119Y002935D01*
X007119Y002878D01*
X006740Y002878D01*
X006740Y002738D01*
X006979Y002499D01*
X007119Y002499D01*
X007119Y002878D01*
X007177Y002878D01*
X007177Y002499D01*
X007315Y002499D01*
X007243Y002426D01*
X007243Y002174D01*
X007422Y001995D01*
X007548Y001995D01*
X007548Y001317D01*
X007648Y001217D01*
X007648Y000425D01*
X007448Y000425D01*
X007448Y000750D01*
X007098Y000750D01*
X007098Y000850D01*
X007448Y000850D01*
X007448Y001320D01*
X007438Y001358D01*
X007418Y001392D01*
X007390Y001420D01*
X007356Y001440D01*
X007318Y001450D01*
X007098Y001450D01*
X007098Y000850D01*
X006998Y000850D01*
X006998Y001450D01*
X006778Y001450D01*
X006740Y001440D01*
X006706Y001420D01*
X006678Y001392D01*
X006658Y001358D01*
X006648Y001320D01*
X006648Y000850D01*
X006998Y000850D01*
X006998Y000750D01*
X006648Y000750D01*
X006648Y000425D01*
X006523Y000425D01*
X006440Y000433D01*
X006287Y000497D01*
X006169Y000614D01*
X006106Y000767D01*
X006098Y000850D01*
X006098Y006213D01*
X007332Y007447D01*
X007332Y007428D01*
X007576Y007184D01*
X007920Y007184D01*
X008164Y007428D01*
X008164Y007772D01*
X007920Y008016D01*
X007901Y008016D01*
X009060Y009175D01*
X009000Y009115D02*
X015010Y009115D01*
X015131Y009017D02*
X008902Y009017D01*
X008803Y008918D02*
X015196Y008918D01*
X015236Y008820D02*
X008705Y008820D01*
X008606Y008721D02*
X011342Y008721D01*
X011367Y008746D02*
X011252Y008631D01*
X011189Y008480D01*
X011189Y008317D01*
X011252Y008166D01*
X011367Y008051D01*
X011518Y007988D01*
X011681Y007988D01*
X011832Y008051D01*
X011947Y008166D01*
X012009Y008317D01*
X012009Y008480D01*
X011947Y008631D01*
X011832Y008746D01*
X011681Y008808D01*
X011518Y008808D01*
X011367Y008746D01*
X011248Y008623D02*
X008508Y008623D01*
X008409Y008524D02*
X011208Y008524D01*
X011189Y008426D02*
X008311Y008426D01*
X008212Y008327D02*
X011189Y008327D01*
X011226Y008229D02*
X008114Y008229D01*
X008015Y008130D02*
X011288Y008130D01*
X011414Y008032D02*
X007917Y008032D01*
X008003Y007933D02*
X013872Y007933D01*
X013872Y007835D02*
X008101Y007835D01*
X008164Y007736D02*
X013872Y007736D01*
X013872Y007638D02*
X008164Y007638D01*
X008164Y007539D02*
X009856Y007539D01*
X009922Y007605D02*
X009743Y007426D01*
X009743Y007174D01*
X009922Y006995D01*
X010018Y006995D01*
X010018Y005905D01*
X009922Y005905D01*
X009743Y005726D01*
X009743Y005474D01*
X009922Y005295D01*
X010174Y005295D01*
X010353Y005474D01*
X010353Y005580D01*
X010478Y005705D01*
X010478Y006070D01*
X010747Y006070D01*
X010822Y005995D01*
X011074Y005995D01*
X011253Y006174D01*
X011253Y006426D01*
X011074Y006605D01*
X010822Y006605D01*
X010747Y006530D01*
X010643Y006530D01*
X010543Y006630D01*
X010478Y006630D01*
X010478Y007195D01*
X010353Y007320D01*
X010353Y007426D01*
X010174Y007605D01*
X009922Y007605D01*
X009757Y007441D02*
X008164Y007441D01*
X008078Y007342D02*
X009743Y007342D01*
X009743Y007244D02*
X007979Y007244D01*
X007516Y007244D02*
X007129Y007244D01*
X007227Y007342D02*
X007418Y007342D01*
X007332Y007441D02*
X007326Y007441D01*
X007030Y007145D02*
X009772Y007145D01*
X009870Y007047D02*
X006932Y007047D01*
X006833Y006948D02*
X010018Y006948D01*
X010018Y006850D02*
X006735Y006850D01*
X006636Y006751D02*
X010018Y006751D01*
X010018Y006653D02*
X006538Y006653D01*
X006439Y006554D02*
X010018Y006554D01*
X010018Y006456D02*
X006341Y006456D01*
X006242Y006357D02*
X010018Y006357D01*
X010018Y006259D02*
X006144Y006259D01*
X006098Y006160D02*
X010018Y006160D01*
X010018Y006062D02*
X006098Y006062D01*
X006098Y005963D02*
X010018Y005963D01*
X009881Y005865D02*
X006098Y005865D01*
X006098Y005766D02*
X009783Y005766D01*
X009743Y005668D02*
X006098Y005668D01*
X006098Y005569D02*
X009743Y005569D01*
X009746Y005471D02*
X006098Y005471D01*
X006098Y005372D02*
X009845Y005372D01*
X010251Y005372D02*
X013089Y005372D01*
X012990Y005274D02*
X006098Y005274D01*
X006098Y005175D02*
X012943Y005175D01*
X012943Y005077D02*
X006098Y005077D01*
X006098Y004978D02*
X012943Y004978D01*
X013037Y004880D02*
X006098Y004880D01*
X006098Y004781D02*
X013872Y004781D01*
X013872Y004880D02*
X013459Y004880D01*
X013553Y004978D02*
X013872Y004978D01*
X014053Y005175D02*
X015248Y005175D01*
X014722Y005077D02*
X014622Y005077D01*
X014622Y004978D02*
X014722Y004978D01*
X014722Y004880D02*
X014622Y004880D01*
X014622Y004781D02*
X014722Y004781D01*
X014622Y004683D02*
X006098Y004683D01*
X006098Y004584D02*
X013872Y004584D01*
X013872Y004486D02*
X006098Y004486D01*
X006098Y004387D02*
X013872Y004387D01*
X013895Y004289D02*
X010291Y004289D01*
X010274Y004305D02*
X010022Y004305D01*
X009917Y004200D01*
X009455Y004200D01*
X009379Y004205D01*
X009373Y004200D01*
X009365Y004200D01*
X009311Y004146D01*
X009093Y003955D01*
X008922Y003955D01*
X008743Y003776D01*
X008743Y003524D01*
X008922Y003345D01*
X009174Y003345D01*
X009353Y003524D01*
X009353Y003651D01*
X009523Y003800D01*
X009917Y003800D01*
X010022Y003695D01*
X010274Y003695D01*
X010453Y003874D01*
X010453Y004126D01*
X010274Y004305D01*
X010389Y004190D02*
X013848Y004190D01*
X013848Y004092D02*
X010453Y004092D01*
X010453Y003993D02*
X013848Y003993D01*
X013848Y003895D02*
X010453Y003895D01*
X010375Y003796D02*
X012913Y003796D01*
X012922Y003805D02*
X012743Y003626D01*
X012743Y003578D01*
X012322Y003157D01*
X012274Y003205D01*
X012022Y003205D01*
X011843Y003026D01*
X011843Y002800D01*
X011453Y002800D01*
X011453Y002926D01*
X011274Y003105D01*
X011022Y003105D01*
X010843Y002926D01*
X010843Y002805D01*
X010622Y002805D01*
X010443Y002626D01*
X010443Y002374D01*
X010622Y002195D01*
X010874Y002195D01*
X010879Y002200D01*
X012617Y002200D01*
X012622Y002195D01*
X012874Y002195D01*
X012948Y002269D01*
X013122Y002095D01*
X013374Y002095D01*
X013553Y002274D01*
X013553Y002526D01*
X013448Y002631D01*
X013448Y002683D01*
X013148Y002983D01*
X013031Y003100D01*
X012831Y003100D01*
X012926Y003195D01*
X013174Y003195D01*
X013353Y003374D01*
X013353Y003626D01*
X013174Y003805D01*
X012922Y003805D01*
X012814Y003698D02*
X010277Y003698D01*
X010019Y003698D02*
X009406Y003698D01*
X009353Y003599D02*
X012743Y003599D01*
X012666Y003501D02*
X009330Y003501D01*
X009231Y003402D02*
X012567Y003402D01*
X012469Y003304D02*
X007334Y003304D01*
X007425Y003205D02*
X012370Y003205D01*
X012348Y002900D02*
X012148Y002900D01*
X012348Y002900D02*
X012948Y003500D01*
X013048Y003500D01*
X013353Y003501D02*
X013848Y003501D01*
X013848Y003599D02*
X013353Y003599D01*
X013282Y003698D02*
X013848Y003698D01*
X013848Y003796D02*
X013183Y003796D01*
X013353Y003402D02*
X013848Y003402D01*
X013848Y003304D02*
X013283Y003304D01*
X013184Y003205D02*
X013848Y003205D01*
X013848Y003107D02*
X012837Y003107D01*
X012948Y002900D02*
X012648Y002900D01*
X012348Y002600D01*
X011348Y002600D01*
X011148Y002800D01*
X011371Y003008D02*
X011843Y003008D01*
X011843Y002910D02*
X011453Y002910D01*
X011453Y002811D02*
X011843Y002811D01*
X011923Y003107D02*
X007524Y003107D01*
X007555Y003008D02*
X010925Y003008D01*
X010843Y002910D02*
X007177Y002910D01*
X007119Y002910D02*
X006098Y002910D01*
X006098Y003008D02*
X006740Y003008D01*
X006772Y003107D02*
X006098Y003107D01*
X006098Y003205D02*
X006870Y003205D01*
X006962Y003304D02*
X006098Y003304D01*
X006098Y003402D02*
X006863Y003402D01*
X006765Y003501D02*
X006098Y003501D01*
X006098Y003599D02*
X006740Y003599D01*
X006740Y003698D02*
X006098Y003698D01*
X006098Y003796D02*
X006740Y003796D01*
X006772Y003895D02*
X006098Y003895D01*
X006098Y003993D02*
X006871Y003993D01*
X006969Y004092D02*
X006098Y004092D01*
X006098Y004190D02*
X009355Y004190D01*
X009249Y004092D02*
X007326Y004092D01*
X007425Y003993D02*
X009136Y003993D01*
X008861Y003895D02*
X007523Y003895D01*
X007555Y003796D02*
X008763Y003796D01*
X008743Y003698D02*
X007555Y003698D01*
X007555Y003599D02*
X008743Y003599D01*
X008766Y003501D02*
X007531Y003501D01*
X007432Y003402D02*
X008865Y003402D01*
X009048Y003650D02*
X009448Y004000D01*
X010148Y004000D01*
X009921Y003796D02*
X009518Y003796D01*
X010005Y004289D02*
X006098Y004289D01*
X006098Y002811D02*
X006740Y002811D01*
X006765Y002713D02*
X006098Y002713D01*
X006098Y002614D02*
X006864Y002614D01*
X006962Y002516D02*
X006098Y002516D01*
X006098Y002417D02*
X007243Y002417D01*
X007243Y002319D02*
X006098Y002319D01*
X006098Y002220D02*
X007243Y002220D01*
X007295Y002122D02*
X006098Y002122D01*
X006098Y002023D02*
X007394Y002023D01*
X007548Y001925D02*
X006098Y001925D01*
X006098Y001826D02*
X007548Y001826D01*
X007548Y001728D02*
X006098Y001728D01*
X006098Y001629D02*
X007548Y001629D01*
X007548Y001531D02*
X006098Y001531D01*
X006098Y001432D02*
X006727Y001432D01*
X006652Y001334D02*
X006098Y001334D01*
X006098Y001235D02*
X006648Y001235D01*
X006648Y001137D02*
X006098Y001137D01*
X006098Y001038D02*
X006648Y001038D01*
X006648Y000940D02*
X006098Y000940D01*
X006099Y000841D02*
X006998Y000841D01*
X006998Y000940D02*
X007098Y000940D01*
X007098Y001038D02*
X006998Y001038D01*
X006998Y001137D02*
X007098Y001137D01*
X007098Y001235D02*
X006998Y001235D01*
X006998Y001334D02*
X007098Y001334D01*
X007098Y001432D02*
X006998Y001432D01*
X007369Y001432D02*
X007548Y001432D01*
X007548Y001334D02*
X007444Y001334D01*
X007448Y001235D02*
X007630Y001235D01*
X007648Y001137D02*
X007448Y001137D01*
X007448Y001038D02*
X007648Y001038D01*
X007648Y000940D02*
X007448Y000940D01*
X007448Y000743D02*
X007648Y000743D01*
X007648Y000841D02*
X007098Y000841D01*
X007448Y000644D02*
X007648Y000644D01*
X007648Y000546D02*
X007448Y000546D01*
X007448Y000447D02*
X007648Y000447D01*
X008048Y000800D02*
X008048Y001100D01*
X007748Y001400D01*
X007748Y002100D01*
X007548Y002300D01*
X007764Y002516D02*
X007832Y002516D01*
X008048Y002300D02*
X007948Y002200D01*
X007948Y001600D01*
X008048Y001500D01*
X008548Y001500D01*
X009048Y001000D01*
X009048Y000800D01*
X009448Y000841D02*
X009648Y000841D01*
X009648Y000743D02*
X009448Y000743D01*
X009448Y000644D02*
X009648Y000644D01*
X009648Y000546D02*
X009448Y000546D01*
X009448Y000447D02*
X009648Y000447D01*
X009648Y000940D02*
X009448Y000940D01*
X009448Y001038D02*
X009648Y001038D01*
X009648Y001137D02*
X009448Y001137D01*
X009448Y001235D02*
X009648Y001235D01*
X009648Y001334D02*
X009448Y001334D01*
X009378Y001432D02*
X009685Y001432D01*
X009643Y001531D02*
X008800Y001531D01*
X008702Y001629D02*
X009643Y001629D01*
X009644Y001728D02*
X008148Y001728D01*
X008148Y001826D02*
X009743Y001826D01*
X009948Y001600D02*
X010048Y001500D01*
X010048Y000800D01*
X011048Y000800D01*
X012048Y000800D01*
X013048Y000800D01*
X013548Y000600D01*
X014288Y000940D01*
X014144Y000804D01*
X014469Y001137D02*
X014738Y001137D01*
X014755Y001119D02*
X014621Y000985D01*
X014178Y001428D01*
X014054Y001428D01*
X013531Y000905D01*
X013448Y000905D01*
X013448Y001362D01*
X013360Y001450D01*
X012736Y001450D01*
X012648Y001362D01*
X012648Y001000D01*
X012448Y001000D01*
X012448Y001362D01*
X012415Y001395D01*
X012574Y001395D01*
X012753Y001574D01*
X012753Y001600D01*
X014312Y001600D01*
X014312Y001562D01*
X014755Y001119D01*
X014674Y001038D02*
X014568Y001038D01*
X014639Y001235D02*
X014371Y001235D01*
X014272Y001334D02*
X014541Y001334D01*
X014442Y001432D02*
X013378Y001432D01*
X013448Y001334D02*
X013959Y001334D01*
X013861Y001235D02*
X013448Y001235D01*
X013448Y001137D02*
X013762Y001137D01*
X013664Y001038D02*
X013448Y001038D01*
X013448Y000940D02*
X013565Y000940D01*
X012648Y001038D02*
X012448Y001038D01*
X012448Y001137D02*
X012648Y001137D01*
X012648Y001235D02*
X012448Y001235D01*
X012448Y001334D02*
X012648Y001334D01*
X012611Y001432D02*
X012718Y001432D01*
X012710Y001531D02*
X014344Y001531D01*
X014348Y001800D02*
X014448Y001900D01*
X014632Y001900D01*
X014936Y001596D01*
X015166Y002023D02*
X015248Y002023D01*
X015248Y002122D02*
X015068Y002122D01*
X015248Y002220D02*
X013499Y002220D01*
X013553Y002319D02*
X015248Y002319D01*
X014848Y002200D02*
X014748Y002300D01*
X014747Y002122D02*
X014658Y002122D01*
X014238Y002122D02*
X013401Y002122D01*
X013748Y002100D02*
X013748Y002200D01*
X013889Y002417D02*
X013553Y002417D01*
X013553Y002516D02*
X013848Y002516D01*
X013848Y002614D02*
X013465Y002614D01*
X013418Y002713D02*
X013848Y002713D01*
X013848Y002811D02*
X013320Y002811D01*
X013221Y002910D02*
X013848Y002910D01*
X013848Y003008D02*
X013123Y003008D01*
X012948Y002900D02*
X013248Y002600D01*
X013248Y002400D01*
X012997Y002220D02*
X012899Y002220D01*
X013095Y002122D02*
X008301Y002122D01*
X008353Y002220D02*
X010597Y002220D01*
X010498Y002319D02*
X008353Y002319D01*
X008353Y002417D02*
X010443Y002417D01*
X010443Y002516D02*
X008264Y002516D01*
X008202Y002023D02*
X010740Y002023D01*
X010643Y001925D02*
X008148Y001925D01*
X007432Y002614D02*
X010443Y002614D01*
X010529Y002713D02*
X007530Y002713D01*
X007555Y002811D02*
X010843Y002811D01*
X010748Y002500D02*
X010848Y002400D01*
X012648Y002400D01*
X012748Y002500D01*
X012448Y001800D02*
X014348Y001800D01*
X014143Y002023D02*
X011156Y002023D01*
X010948Y001800D02*
X012448Y001800D01*
X012448Y001700D01*
X012186Y001531D02*
X011110Y001531D01*
X011378Y001432D02*
X011718Y001432D01*
X011648Y001334D02*
X011448Y001334D01*
X011448Y001235D02*
X011648Y001235D01*
X011648Y001137D02*
X011448Y001137D01*
X011448Y001038D02*
X011648Y001038D01*
X010786Y001531D02*
X010253Y001531D01*
X010253Y001629D02*
X010688Y001629D01*
X010643Y001728D02*
X010252Y001728D01*
X010153Y001826D02*
X010643Y001826D01*
X010448Y001600D02*
X010348Y001600D01*
X010378Y001432D02*
X010718Y001432D01*
X010648Y001334D02*
X010448Y001334D01*
X010448Y001235D02*
X010648Y001235D01*
X010648Y001137D02*
X010448Y001137D01*
X010448Y001038D02*
X010648Y001038D01*
X012148Y003800D02*
X011948Y004000D01*
X013248Y005100D02*
X013448Y005300D01*
X013448Y005500D01*
X013848Y005900D01*
X013848Y006300D01*
X014231Y006683D01*
X014672Y006683D01*
X015248Y007145D02*
X010478Y007145D01*
X010478Y007047D02*
X013874Y007047D01*
X013872Y006948D02*
X010478Y006948D01*
X010478Y006850D02*
X013872Y006850D01*
X013872Y006751D02*
X010478Y006751D01*
X010478Y006653D02*
X013872Y006653D01*
X013819Y006554D02*
X011125Y006554D01*
X011224Y006456D02*
X013721Y006456D01*
X013648Y006357D02*
X011253Y006357D01*
X011253Y006259D02*
X013648Y006259D01*
X013648Y006160D02*
X011239Y006160D01*
X011141Y006062D02*
X013648Y006062D01*
X013628Y005963D02*
X010478Y005963D01*
X010478Y005865D02*
X013530Y005865D01*
X013431Y005766D02*
X010478Y005766D01*
X010441Y005668D02*
X013333Y005668D01*
X013248Y005569D02*
X010353Y005569D01*
X010350Y005471D02*
X013248Y005471D01*
X013748Y005300D02*
X014248Y005800D01*
X014555Y005800D01*
X014672Y005683D01*
X016148Y005668D02*
X019793Y005668D01*
X019793Y005676D02*
X019793Y005424D01*
X019972Y005245D01*
X020224Y005245D01*
X020403Y005424D01*
X020403Y005530D01*
X020528Y005655D01*
X020528Y006020D01*
X020797Y006020D01*
X020872Y005945D01*
X021124Y005945D01*
X021303Y006124D01*
X021303Y006376D01*
X021124Y006555D01*
X020872Y006555D01*
X020797Y006480D01*
X020693Y006480D01*
X020593Y006580D01*
X020528Y006580D01*
X020528Y007145D01*
X025286Y007145D01*
X025286Y007183D02*
X025286Y007083D01*
X024010Y007083D01*
X023922Y006995D01*
X023922Y006557D01*
X023815Y006450D01*
X023698Y006333D01*
X023698Y005933D01*
X023415Y005650D01*
X023298Y005533D01*
X023298Y005355D01*
X023172Y005355D01*
X022993Y005176D01*
X022993Y004924D01*
X023172Y004745D01*
X023424Y004745D01*
X023603Y004924D01*
X023603Y005014D01*
X023672Y004945D01*
X023922Y004945D01*
X023922Y004683D01*
X024672Y004683D01*
X024672Y005083D01*
X024062Y005083D01*
X024103Y005124D01*
X024103Y005183D01*
X025286Y005183D01*
X025286Y005083D01*
X024772Y005083D01*
X024772Y004683D01*
X024672Y004683D01*
X024672Y004583D01*
X023922Y004583D01*
X023922Y004313D01*
X023933Y004275D01*
X023950Y004244D01*
X023898Y004191D01*
X023898Y002409D01*
X023956Y002350D01*
X025286Y002350D01*
X025286Y001903D01*
X025020Y002170D01*
X024895Y002170D01*
X024770Y002044D01*
X024765Y002050D01*
X024729Y002050D01*
X024624Y002155D01*
X024372Y002155D01*
X024193Y001976D01*
X024193Y001950D01*
X022629Y001950D01*
X022624Y001955D01*
X022372Y001955D01*
X022367Y001950D01*
X021229Y001950D01*
X021124Y002055D01*
X020872Y002055D01*
X020693Y001876D01*
X020693Y001624D01*
X020872Y001445D01*
X021124Y001445D01*
X021229Y001550D01*
X022193Y001550D01*
X022193Y001524D01*
X022317Y001400D01*
X021786Y001400D01*
X021698Y001312D01*
X021698Y000950D01*
X021498Y000950D01*
X021498Y001312D01*
X021410Y001400D01*
X020786Y001400D01*
X020698Y001312D01*
X020698Y000950D01*
X020498Y000950D01*
X020498Y001312D01*
X020410Y001400D01*
X020298Y001400D01*
X020298Y001419D01*
X020303Y001424D01*
X020303Y001676D01*
X020124Y001855D01*
X019872Y001855D01*
X019693Y001676D01*
X019693Y001424D01*
X019751Y001365D01*
X019698Y001312D01*
X019698Y000375D01*
X019498Y000375D01*
X019498Y001312D01*
X019410Y001400D01*
X018931Y001400D01*
X018798Y001533D01*
X018681Y001650D01*
X018198Y001650D01*
X018198Y001945D01*
X018224Y001945D01*
X018403Y002124D01*
X018403Y002376D01*
X018224Y002555D01*
X017972Y002555D01*
X017848Y002431D01*
X017724Y002555D01*
X017473Y002555D01*
X017605Y002688D01*
X017605Y002828D01*
X017227Y002828D01*
X017227Y002885D01*
X017605Y002885D01*
X017605Y003025D01*
X017380Y003250D01*
X017605Y003475D01*
X017605Y003812D01*
X017367Y004051D01*
X017029Y004051D01*
X016790Y003812D01*
X016790Y003475D01*
X017015Y003250D01*
X016790Y003025D01*
X016790Y002885D01*
X017169Y002885D01*
X017169Y002828D01*
X016790Y002828D01*
X016790Y002688D01*
X017029Y002449D01*
X017169Y002449D01*
X017169Y002828D01*
X017227Y002828D01*
X017227Y002449D01*
X017365Y002449D01*
X017293Y002376D01*
X017293Y002124D01*
X017472Y001945D01*
X017598Y001945D01*
X017598Y001267D01*
X017698Y001167D01*
X017698Y000375D01*
X017498Y000375D01*
X017498Y000700D01*
X017148Y000700D01*
X017148Y000800D01*
X017498Y000800D01*
X017498Y001270D01*
X017488Y001308D01*
X017468Y001342D01*
X017440Y001370D01*
X017406Y001390D01*
X017368Y001400D01*
X017148Y001400D01*
X017148Y000800D01*
X017048Y000800D01*
X017048Y001400D01*
X016828Y001400D01*
X016790Y001390D01*
X016756Y001370D01*
X016728Y001342D01*
X016708Y001308D01*
X016698Y001270D01*
X016698Y000800D01*
X017048Y000800D01*
X017048Y000700D01*
X016698Y000700D01*
X016698Y000375D01*
X016573Y000375D01*
X016490Y000383D01*
X016337Y000447D01*
X016219Y000564D01*
X016156Y000717D01*
X016148Y000800D01*
X016148Y006163D01*
X017382Y007397D01*
X017382Y007378D01*
X017626Y007134D01*
X017970Y007134D01*
X018214Y007378D01*
X018214Y007722D01*
X017970Y007966D01*
X017951Y007966D01*
X019140Y009155D01*
X019991Y009155D01*
X020106Y009222D01*
X020122Y009250D01*
X020184Y009250D01*
X020193Y009241D01*
X020306Y009194D01*
X020428Y009194D01*
X020541Y009241D01*
X020550Y009250D01*
X020676Y009250D01*
X020685Y009241D01*
X020798Y009194D01*
X020920Y009194D01*
X021033Y009241D01*
X021042Y009250D01*
X021169Y009250D01*
X021177Y009241D01*
X021290Y009194D01*
X021413Y009194D01*
X021526Y009241D01*
X021534Y009250D01*
X021661Y009250D01*
X021669Y009241D01*
X021782Y009194D01*
X021905Y009194D01*
X022018Y009241D01*
X022026Y009250D01*
X022153Y009250D01*
X022161Y009241D01*
X022275Y009194D01*
X022397Y009194D01*
X022510Y009241D01*
X022519Y009250D01*
X022645Y009250D01*
X022654Y009241D01*
X022767Y009194D01*
X022889Y009194D01*
X023002Y009241D01*
X023011Y009250D01*
X023137Y009250D01*
X023146Y009241D01*
X023259Y009194D01*
X023381Y009194D01*
X023494Y009241D01*
X023503Y009250D01*
X023515Y009250D01*
X023532Y009222D01*
X023647Y009155D01*
X024796Y009155D01*
X024892Y009146D01*
X025068Y009073D01*
X025204Y008937D01*
X025277Y008761D01*
X025286Y008665D01*
X025286Y008295D01*
X025224Y008357D01*
X024972Y008357D01*
X024793Y008178D01*
X024793Y008083D01*
X024010Y008083D01*
X023922Y007995D01*
X023922Y007271D01*
X024010Y007183D01*
X025286Y007183D01*
X024998Y007650D02*
X024740Y007650D01*
X024722Y007633D01*
X024998Y007650D02*
X025098Y007850D01*
X025098Y008052D01*
X024843Y008229D02*
X023942Y008229D01*
X023949Y008252D02*
X023959Y008316D01*
X023959Y008318D01*
X023579Y008318D01*
X023579Y007938D01*
X023582Y007938D01*
X023645Y007949D01*
X023707Y007968D01*
X023764Y007998D01*
X023817Y008036D01*
X023862Y008081D01*
X023900Y008134D01*
X023929Y008191D01*
X023949Y008252D01*
X023959Y008378D02*
X023579Y008378D01*
X023579Y008318D01*
X023519Y008318D01*
X023519Y007938D01*
X023517Y007938D01*
X023453Y007949D01*
X023392Y007968D01*
X023335Y007998D01*
X023282Y008036D01*
X023237Y008081D01*
X023199Y008134D01*
X023169Y008191D01*
X023150Y008252D01*
X023139Y008316D01*
X023139Y008318D01*
X023519Y008318D01*
X023519Y008378D01*
X023139Y008378D01*
X023139Y008381D01*
X023150Y008444D01*
X023169Y008506D01*
X023199Y008563D01*
X023237Y008616D01*
X023282Y008661D01*
X023335Y008699D01*
X023392Y008728D01*
X023453Y008748D01*
X023517Y008758D01*
X023519Y008758D01*
X023519Y008378D01*
X023579Y008378D01*
X023579Y008758D01*
X023582Y008758D01*
X023645Y008748D01*
X023707Y008728D01*
X023764Y008699D01*
X023817Y008661D01*
X023862Y008616D01*
X023900Y008563D01*
X023929Y008506D01*
X023949Y008444D01*
X023959Y008381D01*
X023959Y008378D01*
X023952Y008426D02*
X025286Y008426D01*
X025286Y008524D02*
X023920Y008524D01*
X023855Y008623D02*
X025286Y008623D01*
X025281Y008721D02*
X023721Y008721D01*
X023579Y008721D02*
X023519Y008721D01*
X023519Y008623D02*
X023579Y008623D01*
X023579Y008524D02*
X023519Y008524D01*
X023519Y008426D02*
X023579Y008426D01*
X023579Y008327D02*
X024942Y008327D01*
X024793Y008130D02*
X023898Y008130D01*
X023959Y008032D02*
X023811Y008032D01*
X023922Y007933D02*
X018003Y007933D01*
X018017Y008032D02*
X021387Y008032D01*
X021417Y008001D02*
X021568Y007938D01*
X021731Y007938D01*
X021882Y008001D01*
X021997Y008116D01*
X022059Y008267D01*
X022059Y008430D01*
X021997Y008581D01*
X021882Y008696D01*
X021731Y008758D01*
X021568Y008758D01*
X021417Y008696D01*
X021302Y008581D01*
X021239Y008430D01*
X021239Y008267D01*
X021302Y008116D01*
X021417Y008001D01*
X021296Y008130D02*
X018115Y008130D01*
X018214Y008229D02*
X021255Y008229D01*
X021239Y008327D02*
X018312Y008327D01*
X018411Y008426D02*
X021239Y008426D01*
X021278Y008524D02*
X018509Y008524D01*
X018608Y008623D02*
X021344Y008623D01*
X021478Y008721D02*
X018706Y008721D01*
X018805Y008820D02*
X025252Y008820D01*
X025212Y008918D02*
X018903Y008918D01*
X019002Y009017D02*
X025124Y009017D01*
X024966Y009115D02*
X019100Y009115D01*
X019698Y008750D02*
X019601Y008450D01*
X020092Y009214D02*
X020260Y009214D01*
X020106Y009222D02*
X020106Y009222D01*
X020106Y009222D01*
X020474Y009214D02*
X020752Y009214D01*
X020966Y009214D02*
X021244Y009214D01*
X021459Y009214D02*
X021736Y009214D01*
X021951Y009214D02*
X022229Y009214D01*
X022443Y009214D02*
X022721Y009214D01*
X022935Y009214D02*
X023213Y009214D01*
X023427Y009214D02*
X023546Y009214D01*
X023532Y009222D02*
X023532Y009222D01*
X023532Y009222D01*
X023378Y008721D02*
X021821Y008721D01*
X021955Y008623D02*
X023244Y008623D01*
X023179Y008524D02*
X022020Y008524D01*
X022059Y008426D02*
X023147Y008426D01*
X023157Y008229D02*
X022044Y008229D01*
X022059Y008327D02*
X023519Y008327D01*
X023519Y008229D02*
X023579Y008229D01*
X023579Y008130D02*
X023519Y008130D01*
X023519Y008032D02*
X023579Y008032D01*
X023288Y008032D02*
X021912Y008032D01*
X022003Y008130D02*
X023201Y008130D01*
X023922Y007835D02*
X018101Y007835D01*
X018200Y007736D02*
X023922Y007736D01*
X023922Y007638D02*
X018214Y007638D01*
X018214Y007539D02*
X019956Y007539D01*
X019972Y007555D02*
X019793Y007376D01*
X019793Y007124D01*
X019972Y006945D01*
X020068Y006945D01*
X020068Y005855D01*
X019972Y005855D01*
X019793Y005676D01*
X019793Y005569D02*
X016148Y005569D01*
X016148Y005471D02*
X019793Y005471D01*
X019845Y005372D02*
X016148Y005372D01*
X016148Y005274D02*
X019943Y005274D01*
X020253Y005274D02*
X023090Y005274D01*
X022993Y005175D02*
X016148Y005175D01*
X016148Y005077D02*
X022993Y005077D01*
X022993Y004978D02*
X016148Y004978D01*
X016148Y004880D02*
X023037Y004880D01*
X023136Y004781D02*
X016148Y004781D01*
X016148Y004683D02*
X024672Y004683D01*
X024672Y004781D02*
X024772Y004781D01*
X024772Y004880D02*
X024672Y004880D01*
X024672Y004978D02*
X024772Y004978D01*
X024772Y005077D02*
X024672Y005077D01*
X024672Y004584D02*
X016148Y004584D01*
X016148Y004486D02*
X023922Y004486D01*
X023922Y004387D02*
X016148Y004387D01*
X016148Y004289D02*
X023929Y004289D01*
X023898Y004190D02*
X020389Y004190D01*
X020324Y004255D02*
X020503Y004076D01*
X020503Y003824D01*
X020324Y003645D01*
X020072Y003645D01*
X019967Y003750D01*
X019573Y003750D01*
X019403Y003601D01*
X019403Y003474D01*
X019224Y003295D01*
X018972Y003295D01*
X018793Y003474D01*
X018793Y003726D01*
X018972Y003905D01*
X019143Y003905D01*
X019361Y004096D01*
X019415Y004150D01*
X019423Y004150D01*
X019429Y004155D01*
X019505Y004150D01*
X019967Y004150D01*
X020072Y004255D01*
X020324Y004255D01*
X020488Y004092D02*
X023898Y004092D01*
X023898Y003993D02*
X020503Y003993D01*
X020503Y003895D02*
X023898Y003895D01*
X023898Y003796D02*
X020475Y003796D01*
X020377Y003698D02*
X022914Y003698D01*
X022972Y003755D02*
X022793Y003576D01*
X022793Y003528D01*
X022372Y003107D01*
X022324Y003155D01*
X022072Y003155D01*
X021893Y002976D01*
X021893Y002750D01*
X021503Y002750D01*
X021503Y002876D01*
X021324Y003055D01*
X021072Y003055D01*
X020893Y002876D01*
X020893Y002755D01*
X020672Y002755D01*
X020493Y002576D01*
X020493Y002324D01*
X020672Y002145D01*
X020924Y002145D01*
X020929Y002150D01*
X022667Y002150D01*
X022672Y002145D01*
X022924Y002145D01*
X022998Y002219D01*
X023172Y002045D01*
X023424Y002045D01*
X023603Y002224D01*
X023603Y002476D01*
X023498Y002581D01*
X023498Y002633D01*
X023198Y002933D01*
X023081Y003050D01*
X022881Y003050D01*
X022976Y003145D01*
X023224Y003145D01*
X023403Y003324D01*
X023403Y003576D01*
X023224Y003755D01*
X022972Y003755D01*
X022816Y003599D02*
X019403Y003599D01*
X019403Y003501D02*
X022766Y003501D01*
X022667Y003402D02*
X019331Y003402D01*
X019233Y003304D02*
X022569Y003304D01*
X022470Y003205D02*
X017425Y003205D01*
X017434Y003304D02*
X018963Y003304D01*
X018865Y003402D02*
X017532Y003402D01*
X017605Y003501D02*
X018793Y003501D01*
X018793Y003599D02*
X017605Y003599D01*
X017605Y003698D02*
X018793Y003698D01*
X018863Y003796D02*
X017605Y003796D01*
X017523Y003895D02*
X018961Y003895D01*
X019243Y003993D02*
X017425Y003993D01*
X016971Y003993D02*
X016148Y003993D01*
X016148Y003895D02*
X016872Y003895D01*
X016790Y003796D02*
X016148Y003796D01*
X016148Y003698D02*
X016790Y003698D01*
X016790Y003599D02*
X016148Y003599D01*
X016148Y003501D02*
X016790Y003501D01*
X016863Y003402D02*
X016148Y003402D01*
X016148Y003304D02*
X016962Y003304D01*
X016970Y003205D02*
X016148Y003205D01*
X016148Y003107D02*
X016872Y003107D01*
X016790Y003008D02*
X016148Y003008D01*
X016148Y002910D02*
X016790Y002910D01*
X016790Y002811D02*
X016148Y002811D01*
X016148Y002713D02*
X016790Y002713D01*
X016864Y002614D02*
X016148Y002614D01*
X016148Y002516D02*
X016962Y002516D01*
X017169Y002516D02*
X017227Y002516D01*
X017227Y002614D02*
X017169Y002614D01*
X017169Y002713D02*
X017227Y002713D01*
X017227Y002811D02*
X017169Y002811D01*
X017532Y002614D02*
X020531Y002614D01*
X020493Y002516D02*
X018264Y002516D01*
X018362Y002417D02*
X020493Y002417D01*
X020498Y002319D02*
X018403Y002319D01*
X018403Y002220D02*
X020597Y002220D01*
X020798Y002450D02*
X020898Y002350D01*
X022698Y002350D01*
X022798Y002450D01*
X022698Y002850D02*
X022398Y002550D01*
X021398Y002550D01*
X021198Y002750D01*
X021371Y003008D02*
X021925Y003008D01*
X021893Y002910D02*
X021470Y002910D01*
X021503Y002811D02*
X021893Y002811D01*
X022198Y002850D02*
X022398Y002850D01*
X022998Y003450D01*
X023098Y003450D01*
X023284Y003205D02*
X023898Y003205D01*
X023898Y003107D02*
X022937Y003107D01*
X023123Y003008D02*
X023898Y003008D01*
X023898Y002910D02*
X023221Y002910D01*
X023320Y002811D02*
X023898Y002811D01*
X023898Y002713D02*
X023418Y002713D01*
X023498Y002614D02*
X023898Y002614D01*
X023898Y002516D02*
X023564Y002516D01*
X023603Y002417D02*
X023898Y002417D01*
X023798Y002150D02*
X023798Y002050D01*
X023599Y002220D02*
X025286Y002220D01*
X025286Y002122D02*
X025068Y002122D01*
X025166Y002023D02*
X025286Y002023D01*
X025286Y001925D02*
X025265Y001925D01*
X025286Y002319D02*
X023603Y002319D01*
X023501Y002122D02*
X024338Y002122D01*
X024240Y002023D02*
X021156Y002023D01*
X020998Y001750D02*
X022498Y001750D01*
X024398Y001750D01*
X024498Y001850D01*
X024682Y001850D01*
X024986Y001546D01*
X024639Y001235D02*
X024371Y001235D01*
X024469Y001137D02*
X024738Y001137D01*
X024805Y001069D02*
X024671Y000935D01*
X024228Y001378D01*
X024104Y001378D01*
X023581Y000855D01*
X023498Y000855D01*
X023498Y001312D01*
X023410Y001400D01*
X022786Y001400D01*
X022698Y001312D01*
X022698Y000950D01*
X022498Y000950D01*
X022498Y001312D01*
X022465Y001345D01*
X022624Y001345D01*
X022803Y001524D01*
X022803Y001550D01*
X024362Y001550D01*
X024362Y001512D01*
X024805Y001069D01*
X024774Y001038D02*
X024568Y001038D01*
X024666Y000940D02*
X024675Y000940D01*
X024338Y000890D02*
X023598Y000550D01*
X023098Y000750D01*
X022098Y000750D01*
X021098Y000750D01*
X020098Y000750D01*
X020098Y001450D01*
X019998Y001550D01*
X020303Y001531D02*
X020786Y001531D01*
X020693Y001629D02*
X020303Y001629D01*
X020252Y001728D02*
X020693Y001728D01*
X020693Y001826D02*
X020153Y001826D01*
X019843Y001826D02*
X018198Y001826D01*
X018198Y001728D02*
X019744Y001728D01*
X019693Y001629D02*
X018702Y001629D01*
X018800Y001531D02*
X019693Y001531D01*
X019693Y001432D02*
X018899Y001432D01*
X018598Y001450D02*
X018098Y001450D01*
X017998Y001550D01*
X017998Y002150D01*
X018098Y002250D01*
X018302Y002023D02*
X020840Y002023D01*
X020741Y001925D02*
X018198Y001925D01*
X018401Y002122D02*
X023095Y002122D01*
X023298Y002350D02*
X023298Y002550D01*
X022998Y002850D01*
X022698Y002850D01*
X023383Y003304D02*
X023898Y003304D01*
X023898Y003402D02*
X023403Y003402D01*
X023403Y003501D02*
X023898Y003501D01*
X023898Y003599D02*
X023380Y003599D01*
X023282Y003698D02*
X023898Y003698D01*
X023922Y004781D02*
X023460Y004781D01*
X023559Y004880D02*
X023922Y004880D01*
X023639Y004978D02*
X023603Y004978D01*
X023498Y005250D02*
X023498Y005450D01*
X023898Y005850D01*
X023898Y006250D01*
X024281Y006633D01*
X024722Y006633D01*
X023922Y006653D02*
X020528Y006653D01*
X020528Y006751D02*
X023922Y006751D01*
X023922Y006850D02*
X020528Y006850D01*
X020528Y006948D02*
X023922Y006948D01*
X023974Y007047D02*
X020528Y007047D01*
X020528Y007145D02*
X020403Y007270D01*
X020403Y007376D01*
X020224Y007555D01*
X019972Y007555D01*
X019857Y007441D02*
X018214Y007441D01*
X018178Y007342D02*
X019793Y007342D01*
X019793Y007244D02*
X018079Y007244D01*
X017981Y007145D02*
X019793Y007145D01*
X019870Y007047D02*
X017032Y007047D01*
X017130Y007145D02*
X017615Y007145D01*
X017516Y007244D02*
X017229Y007244D01*
X017327Y007342D02*
X017418Y007342D01*
X016933Y006948D02*
X019969Y006948D01*
X020068Y006850D02*
X016835Y006850D01*
X016736Y006751D02*
X020068Y006751D01*
X020068Y006653D02*
X016638Y006653D01*
X016539Y006554D02*
X020068Y006554D01*
X020068Y006456D02*
X016441Y006456D01*
X016342Y006357D02*
X020068Y006357D01*
X020068Y006259D02*
X016244Y006259D01*
X016148Y006160D02*
X020068Y006160D01*
X020068Y006062D02*
X016148Y006062D01*
X016148Y005963D02*
X020068Y005963D01*
X020068Y005865D02*
X016148Y005865D01*
X016148Y005766D02*
X019883Y005766D01*
X020442Y005569D02*
X023334Y005569D01*
X023298Y005471D02*
X020403Y005471D01*
X020351Y005372D02*
X023298Y005372D01*
X023498Y005250D02*
X023298Y005050D01*
X023798Y005250D02*
X024298Y005750D01*
X024605Y005750D01*
X024722Y005633D01*
X025286Y005175D02*
X024103Y005175D01*
X023531Y005766D02*
X020528Y005766D01*
X020528Y005668D02*
X023433Y005668D01*
X023630Y005865D02*
X020528Y005865D01*
X020528Y005963D02*
X020854Y005963D01*
X021142Y005963D02*
X023698Y005963D01*
X023698Y006062D02*
X021241Y006062D01*
X021303Y006160D02*
X023698Y006160D01*
X023698Y006259D02*
X021303Y006259D01*
X021303Y006357D02*
X023722Y006357D01*
X023821Y006456D02*
X021224Y006456D01*
X021125Y006554D02*
X023919Y006554D01*
X023949Y007244D02*
X020430Y007244D01*
X020403Y007342D02*
X023922Y007342D01*
X023922Y007441D02*
X020339Y007441D01*
X020240Y007539D02*
X023922Y007539D01*
X025254Y008327D02*
X025286Y008327D01*
X025223Y011380D02*
X025223Y011680D01*
X025218Y012464D02*
X025483Y012464D01*
X025483Y012563D02*
X025218Y012563D01*
X025218Y012661D02*
X025483Y012661D01*
X025483Y012760D02*
X025218Y012760D01*
X025218Y012858D02*
X025483Y012858D01*
X025483Y012957D02*
X025218Y012957D01*
X025218Y013055D02*
X025483Y013055D01*
X025483Y013154D02*
X025210Y013154D01*
X025158Y013252D02*
X025483Y013252D01*
X025483Y013351D02*
X025059Y013351D01*
X024961Y013449D02*
X025483Y013449D01*
X025483Y013548D02*
X024862Y013548D01*
X024764Y013646D02*
X025483Y013646D01*
X025483Y013745D02*
X024665Y013745D01*
X024518Y013843D02*
X025483Y013843D01*
X025483Y013942D02*
X018948Y013942D01*
X018948Y014040D02*
X025483Y014040D01*
X025483Y014139D02*
X018948Y014139D01*
X018948Y014237D02*
X025483Y014237D01*
X025483Y014336D02*
X018948Y014336D01*
X018948Y014434D02*
X025483Y014434D01*
X025483Y014533D02*
X018948Y014533D01*
X018948Y014631D02*
X020265Y014631D01*
X020322Y014575D02*
X020574Y014575D01*
X020679Y014680D01*
X020831Y014680D01*
X021031Y014880D01*
X023531Y014880D01*
X024393Y015743D01*
X024695Y015743D01*
X024783Y015830D01*
X024783Y017136D01*
X024700Y017219D01*
X024783Y017302D01*
X024783Y018017D01*
X024695Y018105D01*
X024177Y018105D01*
X024089Y018017D01*
X024089Y017302D01*
X024172Y017219D01*
X024089Y017136D01*
X024089Y016004D01*
X023996Y015910D01*
X023996Y017136D01*
X023912Y017219D01*
X023996Y017302D01*
X023996Y018017D01*
X023908Y018105D01*
X023390Y018105D01*
X023302Y018017D01*
X023302Y017302D01*
X023385Y017219D01*
X023302Y017136D01*
X023302Y015830D01*
X023359Y015774D01*
X023253Y015668D01*
X023253Y015806D01*
X023208Y015851D01*
X023208Y017136D01*
X023125Y017219D01*
X023208Y017302D01*
X023208Y018017D01*
X023120Y018105D01*
X022602Y018105D01*
X022514Y018017D01*
X022514Y017302D01*
X022598Y017219D01*
X022514Y017136D01*
X022514Y015830D01*
X022602Y015743D01*
X022643Y015743D01*
X022643Y015554D01*
X022717Y015480D01*
X021053Y015480D01*
X021053Y015506D01*
X020874Y015685D01*
X020622Y015685D01*
X020443Y015506D01*
X020443Y015254D01*
X020512Y015185D01*
X020322Y015185D01*
X020143Y015006D01*
X020143Y014754D01*
X020322Y014575D01*
X020167Y014730D02*
X018980Y014730D01*
X019079Y014828D02*
X020143Y014828D01*
X020143Y014927D02*
X019177Y014927D01*
X019276Y015025D02*
X020162Y015025D01*
X020260Y015124D02*
X019523Y015124D01*
X019621Y015222D02*
X020474Y015222D01*
X020443Y015321D02*
X019653Y015321D01*
X019653Y015419D02*
X020443Y015419D01*
X020454Y015518D02*
X019642Y015518D01*
X019543Y015616D02*
X020553Y015616D01*
X020451Y015743D02*
X020282Y015743D01*
X020244Y015753D01*
X020210Y015772D01*
X020182Y015800D01*
X020162Y015835D01*
X020152Y015873D01*
X020152Y016435D01*
X020451Y016435D01*
X020451Y015743D01*
X020451Y015813D02*
X020547Y015813D01*
X020547Y015912D02*
X020451Y015912D01*
X020451Y016010D02*
X020547Y016010D01*
X020547Y016109D02*
X020451Y016109D01*
X020451Y016207D02*
X020547Y016207D01*
X020547Y016306D02*
X020451Y016306D01*
X020451Y016404D02*
X020547Y016404D01*
X020547Y016503D02*
X020940Y016503D01*
X020940Y016601D02*
X020846Y016601D01*
X020846Y016700D02*
X020940Y016700D01*
X020940Y016798D02*
X020846Y016798D01*
X020846Y016897D02*
X020940Y016897D01*
X020940Y016995D02*
X020846Y016995D01*
X020846Y017094D02*
X020940Y017094D01*
X020996Y017192D02*
X020790Y017192D01*
X020827Y017291D02*
X020951Y017291D01*
X020940Y017389D02*
X020846Y017389D01*
X020846Y017488D02*
X020940Y017488D01*
X020940Y017586D02*
X020846Y017586D01*
X020940Y017685D02*
X020547Y017685D01*
X020451Y017685D02*
X019891Y017685D01*
X019989Y017783D02*
X020152Y017783D01*
X020152Y017882D02*
X020088Y017882D01*
X020152Y017586D02*
X019792Y017586D01*
X019694Y017488D02*
X020152Y017488D01*
X020152Y017389D02*
X019595Y017389D01*
X019497Y017291D02*
X020172Y017291D01*
X020208Y017192D02*
X019398Y017192D01*
X019266Y017094D02*
X020152Y017094D01*
X020451Y017094D02*
X020547Y017094D01*
X020547Y017192D02*
X020451Y017192D01*
X020451Y017291D02*
X020547Y017291D01*
X020547Y017389D02*
X020451Y017389D01*
X020451Y017488D02*
X020547Y017488D01*
X020547Y017586D02*
X020451Y017586D01*
X020846Y017783D02*
X020940Y017783D01*
X020940Y017882D02*
X020846Y017882D01*
X020844Y017980D02*
X020940Y017980D01*
X021001Y018079D02*
X020877Y018079D01*
X020916Y018177D02*
X021117Y018177D01*
X021117Y018276D02*
X020916Y018276D01*
X020916Y018374D02*
X021117Y018374D01*
X021117Y018473D02*
X020916Y018473D01*
X020916Y018571D02*
X021117Y018571D01*
X021117Y018670D02*
X020916Y018670D01*
X020916Y018768D02*
X021117Y018768D01*
X021117Y018867D02*
X020916Y018867D01*
X020916Y018965D02*
X021742Y018965D01*
X021842Y018965D02*
X023413Y018965D01*
X023413Y019004D02*
X023413Y018710D01*
X023526Y018438D01*
X023734Y018229D01*
X024006Y018117D01*
X024301Y018117D01*
X024573Y018229D01*
X024781Y018438D01*
X024894Y018710D01*
X024894Y019004D01*
X024781Y019277D01*
X024573Y019485D01*
X024301Y019598D01*
X024006Y019598D01*
X023734Y019485D01*
X023526Y019277D01*
X023413Y019004D01*
X023437Y019064D02*
X022467Y019064D01*
X022467Y019162D02*
X023478Y019162D01*
X023519Y019261D02*
X022467Y019261D01*
X022467Y019359D02*
X023608Y019359D01*
X023707Y019458D02*
X022467Y019458D01*
X022467Y019556D02*
X023906Y019556D01*
X024401Y019556D02*
X025483Y019556D01*
X025483Y019458D02*
X024600Y019458D01*
X024699Y019359D02*
X025483Y019359D01*
X025483Y019261D02*
X024788Y019261D01*
X024829Y019162D02*
X025483Y019162D01*
X025483Y019064D02*
X024869Y019064D01*
X024894Y018965D02*
X025483Y018965D01*
X025483Y018867D02*
X024894Y018867D01*
X024894Y018768D02*
X025483Y018768D01*
X025483Y018670D02*
X024877Y018670D01*
X024836Y018571D02*
X025483Y018571D01*
X025483Y018473D02*
X024796Y018473D01*
X024718Y018374D02*
X025483Y018374D01*
X025483Y018276D02*
X024619Y018276D01*
X024447Y018177D02*
X025483Y018177D01*
X024938Y018079D02*
X024721Y018079D01*
X024783Y017980D02*
X024877Y017980D01*
X024877Y017882D02*
X024783Y017882D01*
X024783Y017783D02*
X024877Y017783D01*
X024877Y017685D02*
X024783Y017685D01*
X024783Y017586D02*
X024877Y017586D01*
X024877Y017488D02*
X024783Y017488D01*
X024783Y017389D02*
X024877Y017389D01*
X024888Y017291D02*
X024771Y017291D01*
X024727Y017192D02*
X024933Y017192D01*
X024877Y017094D02*
X024783Y017094D01*
X024783Y016995D02*
X024877Y016995D01*
X024877Y016897D02*
X024783Y016897D01*
X024783Y016798D02*
X024877Y016798D01*
X024877Y016700D02*
X024783Y016700D01*
X024783Y016601D02*
X024877Y016601D01*
X024877Y016503D02*
X024783Y016503D01*
X024783Y016404D02*
X024877Y016404D01*
X024877Y016306D02*
X024783Y016306D01*
X024783Y016207D02*
X024877Y016207D01*
X024877Y016109D02*
X024783Y016109D01*
X024783Y016010D02*
X024877Y016010D01*
X024877Y015912D02*
X024783Y015912D01*
X024766Y015813D02*
X024894Y015813D01*
X024448Y016080D02*
X024448Y016471D01*
X024436Y016483D01*
X024436Y017659D01*
X024089Y017685D02*
X023996Y017685D01*
X023996Y017783D02*
X024089Y017783D01*
X024089Y017882D02*
X023996Y017882D01*
X023996Y017980D02*
X024089Y017980D01*
X024151Y018079D02*
X023934Y018079D01*
X023860Y018177D02*
X022467Y018177D01*
X022467Y018276D02*
X023688Y018276D01*
X023589Y018374D02*
X022467Y018374D01*
X022467Y018473D02*
X023511Y018473D01*
X023470Y018571D02*
X022467Y018571D01*
X022467Y018670D02*
X023430Y018670D01*
X023413Y018768D02*
X022467Y018768D01*
X022467Y018867D02*
X023413Y018867D01*
X023363Y018079D02*
X023146Y018079D01*
X023208Y017980D02*
X023302Y017980D01*
X023302Y017882D02*
X023208Y017882D01*
X023208Y017783D02*
X023302Y017783D01*
X023302Y017685D02*
X023208Y017685D01*
X023208Y017586D02*
X023302Y017586D01*
X023302Y017488D02*
X023208Y017488D01*
X023208Y017389D02*
X023302Y017389D01*
X023313Y017291D02*
X023197Y017291D01*
X023152Y017192D02*
X023358Y017192D01*
X023302Y017094D02*
X023208Y017094D01*
X023208Y016995D02*
X023302Y016995D01*
X023302Y016897D02*
X023208Y016897D01*
X023208Y016798D02*
X023302Y016798D01*
X023302Y016700D02*
X023208Y016700D01*
X023208Y016601D02*
X023302Y016601D01*
X023302Y016503D02*
X023208Y016503D01*
X023208Y016404D02*
X023302Y016404D01*
X023302Y016306D02*
X023208Y016306D01*
X023208Y016207D02*
X023302Y016207D01*
X023302Y016109D02*
X023208Y016109D01*
X023208Y016010D02*
X023302Y016010D01*
X023302Y015912D02*
X023208Y015912D01*
X023246Y015813D02*
X023319Y015813D01*
X023300Y015715D02*
X023253Y015715D01*
X022948Y015680D02*
X022748Y016470D01*
X022861Y016483D01*
X022861Y017659D01*
X022514Y017685D02*
X022421Y017685D01*
X022421Y017783D02*
X022514Y017783D01*
X022514Y017882D02*
X022421Y017882D01*
X022421Y017980D02*
X022514Y017980D01*
X022576Y018079D02*
X022428Y018079D01*
X022421Y017586D02*
X022514Y017586D01*
X022514Y017488D02*
X022421Y017488D01*
X022421Y017389D02*
X022514Y017389D01*
X022526Y017291D02*
X022409Y017291D01*
X022364Y017192D02*
X022571Y017192D01*
X022514Y017094D02*
X022421Y017094D01*
X022421Y016995D02*
X022514Y016995D01*
X022514Y016897D02*
X022421Y016897D01*
X022421Y016798D02*
X022514Y016798D01*
X022514Y016700D02*
X022421Y016700D01*
X022421Y016601D02*
X022514Y016601D01*
X022514Y016503D02*
X022421Y016503D01*
X022421Y016404D02*
X022514Y016404D01*
X022514Y016306D02*
X022421Y016306D01*
X022421Y016207D02*
X022514Y016207D01*
X022514Y016109D02*
X022421Y016109D01*
X022421Y016010D02*
X022514Y016010D01*
X022514Y015912D02*
X022421Y015912D01*
X022403Y015813D02*
X022532Y015813D01*
X022643Y015715D02*
X022014Y015715D01*
X021915Y015616D02*
X022643Y015616D01*
X022679Y015518D02*
X021042Y015518D01*
X020943Y015616D02*
X021580Y015616D01*
X021482Y015715D02*
X018665Y015715D01*
X018665Y015813D02*
X020175Y015813D01*
X020152Y015912D02*
X018665Y015912D01*
X018665Y016010D02*
X020152Y016010D01*
X020152Y016306D02*
X018643Y016306D01*
X018665Y016404D02*
X020152Y016404D01*
X020152Y016601D02*
X018135Y016601D01*
X018135Y016700D02*
X018035Y016700D01*
X018035Y016798D02*
X018135Y016798D01*
X018135Y016897D02*
X018035Y016897D01*
X018665Y016798D02*
X020152Y016798D01*
X020152Y016700D02*
X018665Y016700D01*
X018665Y016503D02*
X020451Y016503D01*
X020451Y016601D02*
X020547Y016601D01*
X020547Y016700D02*
X020451Y016700D01*
X020451Y016798D02*
X020547Y016798D01*
X020547Y016897D02*
X020451Y016897D01*
X020451Y016995D02*
X020547Y016995D01*
X020846Y016404D02*
X020940Y016404D01*
X020940Y016306D02*
X020846Y016306D01*
X020846Y016207D02*
X020940Y016207D01*
X020940Y016109D02*
X020846Y016109D01*
X020846Y016010D02*
X020940Y016010D01*
X020940Y015912D02*
X020846Y015912D01*
X020823Y015813D02*
X020957Y015813D01*
X020848Y015380D02*
X020948Y015280D01*
X023148Y015280D01*
X023748Y015880D01*
X023748Y016384D01*
X023649Y016483D01*
X023649Y017659D01*
X023996Y017586D02*
X024089Y017586D01*
X024089Y017488D02*
X023996Y017488D01*
X023996Y017389D02*
X024089Y017389D01*
X024101Y017291D02*
X023984Y017291D01*
X023939Y017192D02*
X024146Y017192D01*
X024089Y017094D02*
X023996Y017094D01*
X023996Y016995D02*
X024089Y016995D01*
X024089Y016897D02*
X023996Y016897D01*
X023996Y016798D02*
X024089Y016798D01*
X024089Y016700D02*
X023996Y016700D01*
X023996Y016601D02*
X024089Y016601D01*
X024089Y016503D02*
X023996Y016503D01*
X023996Y016404D02*
X024089Y016404D01*
X024089Y016306D02*
X023996Y016306D01*
X023996Y016207D02*
X024089Y016207D01*
X024089Y016109D02*
X023996Y016109D01*
X023996Y016010D02*
X024089Y016010D01*
X023997Y015912D02*
X023996Y015912D01*
X024267Y015616D02*
X025483Y015616D01*
X025483Y015518D02*
X024168Y015518D01*
X024070Y015419D02*
X025483Y015419D01*
X025483Y015321D02*
X023971Y015321D01*
X023873Y015222D02*
X025483Y015222D01*
X025483Y015124D02*
X023774Y015124D01*
X023676Y015025D02*
X025483Y015025D01*
X025483Y014927D02*
X023577Y014927D01*
X023448Y015080D02*
X024448Y016080D01*
X024365Y015715D02*
X025483Y015715D01*
X025483Y014828D02*
X020979Y014828D01*
X020880Y014730D02*
X025483Y014730D01*
X025483Y014631D02*
X020630Y014631D01*
X020748Y014880D02*
X020448Y014880D01*
X020748Y014880D02*
X020948Y015080D01*
X023448Y015080D01*
X022048Y016080D02*
X022048Y016457D01*
X022074Y016483D01*
X022074Y017659D01*
X021117Y019064D02*
X020916Y019064D01*
X020916Y019162D02*
X021117Y019162D01*
X021117Y019261D02*
X020916Y019261D01*
X020916Y019359D02*
X021117Y019359D01*
X021117Y019458D02*
X020916Y019458D01*
X020916Y019556D02*
X021117Y019556D01*
X021117Y019655D02*
X020916Y019655D01*
X019916Y019655D02*
X019716Y019655D01*
X019716Y019556D02*
X019916Y019556D01*
X019916Y019458D02*
X019716Y019458D01*
X019716Y019359D02*
X019916Y019359D01*
X019916Y019261D02*
X019716Y019261D01*
X019716Y019162D02*
X019916Y019162D01*
X019916Y019064D02*
X019716Y019064D01*
X022467Y019655D02*
X025483Y019655D01*
X022048Y016080D02*
X021848Y015880D01*
X021748Y015880D01*
X020848Y015380D02*
X020748Y015380D01*
X019348Y015380D02*
X018748Y014780D01*
X018748Y013980D01*
X018448Y013680D01*
X017448Y013680D01*
X016948Y013180D01*
X016948Y013080D01*
X016748Y012880D01*
X016148Y012880D01*
X015648Y012380D01*
X014748Y012380D01*
X014648Y012280D01*
X014048Y012280D01*
X013948Y012380D01*
X011448Y012380D01*
X011668Y012169D02*
X013876Y012169D01*
X014148Y012480D02*
X014548Y012480D01*
X014648Y012580D01*
X015548Y012580D01*
X016148Y013180D01*
X016548Y013180D01*
X016948Y013480D02*
X015448Y013480D01*
X015348Y013380D01*
X015398Y012880D01*
X014948Y013030D02*
X014948Y013380D01*
X015248Y013680D01*
X016848Y013680D01*
X017448Y014280D01*
X017448Y014580D01*
X017823Y014955D01*
X018085Y014955D01*
X017771Y015321D02*
X019006Y015321D01*
X019043Y015419D02*
X018613Y015419D01*
X018665Y015518D02*
X019054Y015518D01*
X019153Y015616D02*
X018665Y015616D01*
X018665Y015222D02*
X018907Y015222D01*
X018809Y015124D02*
X018665Y015124D01*
X018665Y015025D02*
X018710Y015025D01*
X018085Y014168D02*
X017636Y014168D01*
X016948Y013480D01*
X017204Y013154D02*
X017243Y013154D01*
X017148Y013055D02*
X017341Y013055D01*
X017107Y012957D02*
X019543Y012957D01*
X019641Y013055D02*
X018665Y013055D01*
X018665Y013154D02*
X019740Y013154D01*
X019838Y013252D02*
X018665Y013252D01*
X018665Y013351D02*
X019937Y013351D01*
X020035Y013449D02*
X018665Y013449D01*
X018665Y013548D02*
X020134Y013548D01*
X020232Y013646D02*
X018697Y013646D01*
X018795Y013745D02*
X020331Y013745D01*
X020478Y013843D02*
X018894Y013843D01*
X018085Y013318D02*
X017586Y013318D01*
X017548Y013280D01*
X017592Y012840D02*
X017505Y012753D01*
X017505Y012208D01*
X017592Y012120D01*
X018577Y012120D01*
X018665Y012208D01*
X018665Y012753D01*
X018577Y012840D01*
X017592Y012840D01*
X017512Y012760D02*
X016910Y012760D01*
X017009Y012858D02*
X019444Y012858D01*
X019389Y012760D02*
X018658Y012760D01*
X018665Y012661D02*
X019378Y012661D01*
X019378Y012563D02*
X018665Y012563D01*
X018665Y012464D02*
X019378Y012464D01*
X019302Y012366D02*
X018665Y012366D01*
X018665Y012267D02*
X019204Y012267D01*
X019143Y012169D02*
X018625Y012169D01*
X018962Y011676D02*
X014783Y011676D01*
X014513Y011676D02*
X010935Y011676D01*
X010863Y012169D02*
X011228Y012169D01*
X011143Y012267D02*
X010928Y012267D01*
X010928Y012366D02*
X011143Y012366D01*
X011143Y012464D02*
X010928Y012464D01*
X011013Y012563D02*
X011199Y012563D01*
X011260Y012661D02*
X011298Y012661D01*
X011353Y012760D02*
X011585Y012760D01*
X011598Y012661D02*
X011684Y012661D01*
X011487Y012858D02*
X011353Y012858D01*
X011353Y012957D02*
X011388Y012957D01*
X011448Y013180D02*
X010461Y013180D01*
X010348Y013293D01*
X010848Y012680D02*
X011048Y012880D01*
X010848Y012680D02*
X010748Y012680D01*
X010548Y012480D01*
X010373Y012480D01*
X010348Y012506D01*
X011448Y013180D02*
X012048Y012580D01*
X014048Y012580D01*
X014148Y012480D01*
X014819Y012169D02*
X017544Y012169D01*
X017505Y012267D02*
X015818Y012267D01*
X015916Y012366D02*
X017505Y012366D01*
X017505Y012464D02*
X016015Y012464D01*
X016113Y012563D02*
X017505Y012563D01*
X017505Y012661D02*
X016212Y012661D01*
X013548Y014480D02*
X013348Y014280D01*
X012948Y014237D02*
X010928Y014237D01*
X010928Y014139D02*
X012948Y014139D01*
X012948Y014040D02*
X010928Y014040D01*
X010928Y013942D02*
X012948Y013942D01*
X012948Y014336D02*
X010928Y014336D01*
X010896Y014434D02*
X012948Y014434D01*
X012948Y013351D02*
X011560Y013351D01*
X011659Y013252D02*
X012948Y013252D01*
X012948Y013154D02*
X011757Y013154D01*
X011856Y013055D02*
X012948Y013055D01*
X012988Y012957D02*
X011954Y012957D01*
X012053Y012858D02*
X013087Y012858D01*
X010753Y011085D02*
X010595Y011085D01*
X010454Y011085D02*
X010273Y011085D01*
X010313Y011062D02*
X010313Y011062D01*
X010319Y009236D02*
X010319Y009236D01*
X010319Y009236D01*
X010280Y009214D02*
X010418Y009214D01*
X010632Y009214D02*
X010910Y009214D01*
X011124Y009214D02*
X011402Y009214D01*
X011616Y009214D02*
X011894Y009214D01*
X012108Y009214D02*
X012386Y009214D01*
X012600Y009214D02*
X012878Y009214D01*
X013092Y009214D02*
X013370Y009214D01*
X013585Y009214D02*
X013756Y009214D01*
X013595Y008798D02*
X013532Y008808D01*
X013529Y008808D01*
X013529Y008428D01*
X013909Y008428D01*
X013909Y008431D01*
X013899Y008494D01*
X013879Y008556D01*
X013850Y008613D01*
X013812Y008666D01*
X013767Y008711D01*
X013714Y008749D01*
X013657Y008778D01*
X013595Y008798D01*
X013529Y008721D02*
X013469Y008721D01*
X013469Y008808D02*
X013469Y008428D01*
X013469Y008368D01*
X013529Y008368D01*
X013529Y007988D01*
X013532Y007988D01*
X013595Y007999D01*
X013657Y008018D01*
X013714Y008048D01*
X013767Y008086D01*
X013812Y008131D01*
X013850Y008184D01*
X013879Y008241D01*
X013899Y008302D01*
X013909Y008366D01*
X013909Y008368D01*
X013529Y008368D01*
X013529Y008428D01*
X013469Y008428D01*
X013089Y008428D01*
X013089Y008431D01*
X013100Y008494D01*
X013119Y008556D01*
X013149Y008613D01*
X013187Y008666D01*
X013232Y008711D01*
X013285Y008749D01*
X013342Y008778D01*
X013403Y008798D01*
X013467Y008808D01*
X013469Y008808D01*
X013469Y008623D02*
X013529Y008623D01*
X013529Y008524D02*
X013469Y008524D01*
X013469Y008426D02*
X012009Y008426D01*
X012009Y008327D02*
X013096Y008327D01*
X013100Y008302D02*
X013119Y008241D01*
X013149Y008184D01*
X013187Y008131D01*
X013232Y008086D01*
X013285Y008048D01*
X013342Y008018D01*
X013403Y007999D01*
X013467Y007988D01*
X013469Y007988D01*
X013469Y008368D01*
X013089Y008368D01*
X013089Y008366D01*
X013100Y008302D01*
X013126Y008229D02*
X011973Y008229D01*
X011911Y008130D02*
X013188Y008130D01*
X013316Y008032D02*
X011785Y008032D01*
X011991Y008524D02*
X013109Y008524D01*
X013155Y008623D02*
X011950Y008623D01*
X011857Y008721D02*
X013246Y008721D01*
X013529Y008426D02*
X015248Y008426D01*
X015248Y008524D02*
X013890Y008524D01*
X013843Y008623D02*
X015248Y008623D01*
X015248Y008721D02*
X013753Y008721D01*
X013903Y008327D02*
X014842Y008327D01*
X014743Y008229D02*
X013873Y008229D01*
X013811Y008130D02*
X013957Y008130D01*
X013872Y008032D02*
X013682Y008032D01*
X013529Y008032D02*
X013469Y008032D01*
X013469Y008130D02*
X013529Y008130D01*
X013529Y008229D02*
X013469Y008229D01*
X013469Y008327D02*
X013529Y008327D01*
X013872Y007539D02*
X010240Y007539D01*
X010339Y007441D02*
X013872Y007441D01*
X013872Y007342D02*
X010353Y007342D01*
X010430Y007244D02*
X013949Y007244D01*
X014672Y007683D02*
X014690Y007700D01*
X014948Y007700D01*
X015048Y007900D01*
X015048Y008102D01*
X018298Y004950D02*
X018198Y004750D01*
X018198Y003950D02*
X018098Y003950D01*
X017524Y003107D02*
X022023Y003107D01*
X022198Y003750D02*
X021998Y003950D01*
X021025Y003008D02*
X017605Y003008D01*
X017605Y002910D02*
X020926Y002910D01*
X020893Y002811D02*
X017605Y002811D01*
X017605Y002713D02*
X020629Y002713D01*
X020019Y003698D02*
X019513Y003698D01*
X019498Y003950D02*
X019098Y003600D01*
X019498Y003950D02*
X020198Y003950D01*
X020007Y004190D02*
X016148Y004190D01*
X016148Y004092D02*
X019356Y004092D01*
X020198Y004750D02*
X020248Y004750D01*
X020619Y006554D02*
X020871Y006554D01*
X020798Y006650D02*
X020698Y006650D01*
X021591Y010980D02*
X021633Y011023D01*
X021633Y012333D01*
X021545Y012420D01*
X021486Y012420D01*
X021486Y012524D01*
X021253Y012758D01*
X021253Y012906D01*
X021079Y013080D01*
X023543Y013080D01*
X023543Y013054D01*
X023617Y012980D01*
X022265Y012980D01*
X021874Y012589D01*
X021874Y012420D01*
X021815Y012420D01*
X021727Y012333D01*
X021727Y011066D01*
X021669Y011042D01*
X021607Y010980D01*
X021591Y010980D01*
X021597Y010987D02*
X021614Y010987D01*
X021633Y011085D02*
X021727Y011085D01*
X021727Y011184D02*
X021633Y011184D01*
X021633Y011282D02*
X021727Y011282D01*
X021727Y011381D02*
X021633Y011381D01*
X021633Y011479D02*
X021727Y011479D01*
X021727Y011578D02*
X021633Y011578D01*
X021633Y011676D02*
X021727Y011676D01*
X021727Y011775D02*
X021633Y011775D01*
X021633Y011873D02*
X021727Y011873D01*
X021727Y011972D02*
X021633Y011972D01*
X021633Y012070D02*
X021727Y012070D01*
X021727Y012169D02*
X021633Y012169D01*
X021633Y012267D02*
X021727Y012267D01*
X021760Y012366D02*
X021600Y012366D01*
X021486Y012464D02*
X021874Y012464D01*
X021874Y012563D02*
X021448Y012563D01*
X021350Y012661D02*
X021946Y012661D01*
X022045Y012760D02*
X021253Y012760D01*
X021253Y012858D02*
X022143Y012858D01*
X022242Y012957D02*
X021203Y012957D01*
X021104Y013055D02*
X023543Y013055D01*
X023748Y013180D02*
X023848Y013180D01*
X023748Y013280D01*
X020948Y013280D01*
X020499Y012831D01*
X020499Y011680D01*
X020499Y011380D01*
X021286Y011380D02*
X021286Y011680D01*
X021286Y012441D01*
X020948Y012780D01*
X022074Y012506D02*
X022074Y011680D01*
X022074Y011380D01*
X022861Y011380D02*
X022861Y011680D01*
X023649Y011680D02*
X023649Y011380D01*
X024436Y011380D02*
X024436Y011680D01*
X023848Y012780D02*
X022348Y012780D01*
X022074Y012506D01*
X015748Y015280D02*
X015648Y015280D01*
X014448Y017280D02*
X014448Y017330D01*
X011448Y015580D02*
X011148Y015380D01*
X009648Y008800D02*
X009551Y008500D01*
X010648Y006700D02*
X010748Y006700D01*
X010771Y006554D02*
X010619Y006554D01*
X010755Y006062D02*
X010478Y006062D01*
X010198Y004800D02*
X010148Y004800D01*
X008248Y005000D02*
X008148Y004800D01*
X008148Y004000D02*
X008048Y004000D01*
X007177Y002811D02*
X007119Y002811D01*
X007119Y002713D02*
X007177Y002713D01*
X007177Y002614D02*
X007119Y002614D01*
X007119Y002516D02*
X007177Y002516D01*
X006998Y002200D02*
X006398Y002400D01*
X006648Y000743D02*
X006116Y000743D01*
X006157Y000644D02*
X006648Y000644D01*
X006648Y000546D02*
X006238Y000546D01*
X006407Y000447D02*
X006648Y000447D01*
X016148Y000841D02*
X016698Y000841D01*
X016698Y000940D02*
X016148Y000940D01*
X016148Y001038D02*
X016698Y001038D01*
X016698Y001137D02*
X016148Y001137D01*
X016148Y001235D02*
X016698Y001235D01*
X016723Y001334D02*
X016148Y001334D01*
X016148Y001432D02*
X017598Y001432D01*
X017598Y001334D02*
X017473Y001334D01*
X017498Y001235D02*
X017630Y001235D01*
X017698Y001137D02*
X017498Y001137D01*
X017498Y001038D02*
X017698Y001038D01*
X017698Y000940D02*
X017498Y000940D01*
X017498Y000841D02*
X017698Y000841D01*
X017698Y000743D02*
X017148Y000743D01*
X017148Y000841D02*
X017048Y000841D01*
X017048Y000743D02*
X016154Y000743D01*
X016186Y000644D02*
X016698Y000644D01*
X016698Y000546D02*
X016238Y000546D01*
X016336Y000447D02*
X016698Y000447D01*
X017048Y000940D02*
X017148Y000940D01*
X017148Y001038D02*
X017048Y001038D01*
X017048Y001137D02*
X017148Y001137D01*
X017148Y001235D02*
X017048Y001235D01*
X017048Y001334D02*
X017148Y001334D01*
X017598Y001531D02*
X016148Y001531D01*
X016148Y001629D02*
X017598Y001629D01*
X017598Y001728D02*
X016148Y001728D01*
X016148Y001826D02*
X017598Y001826D01*
X017598Y001925D02*
X016148Y001925D01*
X016148Y002023D02*
X017394Y002023D01*
X017295Y002122D02*
X016148Y002122D01*
X016148Y002220D02*
X017293Y002220D01*
X017293Y002319D02*
X016148Y002319D01*
X016148Y002417D02*
X017334Y002417D01*
X017598Y002250D02*
X017798Y002050D01*
X017798Y001350D01*
X018098Y001050D01*
X018098Y000750D01*
X017698Y000644D02*
X017498Y000644D01*
X017498Y000546D02*
X017698Y000546D01*
X017698Y000447D02*
X017498Y000447D01*
X018598Y001450D02*
X019098Y000950D01*
X019098Y000750D01*
X019498Y000743D02*
X019698Y000743D01*
X019698Y000841D02*
X019498Y000841D01*
X019498Y000940D02*
X019698Y000940D01*
X019698Y001038D02*
X019498Y001038D01*
X019498Y001137D02*
X019698Y001137D01*
X019698Y001235D02*
X019498Y001235D01*
X019477Y001334D02*
X019719Y001334D01*
X020303Y001432D02*
X022285Y001432D01*
X022193Y001531D02*
X021210Y001531D01*
X021477Y001334D02*
X021719Y001334D01*
X021698Y001235D02*
X021498Y001235D01*
X021498Y001137D02*
X021698Y001137D01*
X021698Y001038D02*
X021498Y001038D01*
X020698Y001038D02*
X020498Y001038D01*
X020498Y001137D02*
X020698Y001137D01*
X020698Y001235D02*
X020498Y001235D01*
X020477Y001334D02*
X020719Y001334D01*
X020498Y001550D02*
X020398Y001550D01*
X019698Y000644D02*
X019498Y000644D01*
X019498Y000546D02*
X019698Y000546D01*
X019698Y000447D02*
X019498Y000447D01*
X017048Y002150D02*
X016448Y002350D01*
X017764Y002516D02*
X017932Y002516D01*
X022498Y001750D02*
X022498Y001650D01*
X022711Y001432D02*
X024442Y001432D01*
X024362Y001531D02*
X022803Y001531D01*
X022719Y001334D02*
X022477Y001334D01*
X022498Y001235D02*
X022698Y001235D01*
X022698Y001137D02*
X022498Y001137D01*
X022498Y001038D02*
X022698Y001038D01*
X023498Y001038D02*
X023764Y001038D01*
X023862Y001137D02*
X023498Y001137D01*
X023498Y001235D02*
X023961Y001235D01*
X024059Y001334D02*
X023477Y001334D01*
X023498Y000940D02*
X023665Y000940D01*
X024194Y000754D02*
X024338Y000890D01*
X024272Y001334D02*
X024541Y001334D01*
X024658Y002122D02*
X024847Y002122D01*
X024898Y002150D02*
X024798Y002250D01*
D25*
X020298Y005750D02*
X020098Y005550D01*
X020298Y005750D02*
X020298Y006350D01*
X020498Y006350D01*
X020598Y006250D01*
X020998Y006250D01*
X020298Y006350D02*
X020298Y007050D01*
X020098Y007250D01*
X010948Y006300D02*
X010548Y006300D01*
X010448Y006400D01*
X010248Y006400D01*
X010248Y005800D01*
X010048Y005600D01*
X010248Y006400D02*
X010248Y007100D01*
X010048Y007300D01*
D26*
X007748Y007600D03*
X017798Y007550D03*
D27*
X019048Y011380D02*
X014648Y011380D01*
X009748Y011380D01*
X008748Y013080D02*
X008748Y013380D01*
X008948Y013380D01*
X009148Y013580D01*
X009148Y013480D01*
X009048Y013380D01*
X008748Y013380D02*
X008748Y013980D01*
X011748Y017180D02*
X012048Y016880D01*
X010948Y017880D02*
X010323Y018105D01*
X010348Y018105D01*
X012148Y018280D02*
X012248Y018180D01*
X015648Y018180D01*
X015548Y018080D01*
X015548Y017480D01*
X015648Y018180D02*
X015948Y018180D01*
X016248Y017880D01*
X016648Y017880D01*
X016948Y018180D01*
X016948Y018380D01*
X020548Y013580D02*
X024448Y013580D01*
X024948Y013080D01*
X024948Y012780D01*
X024648Y012780D01*
X024948Y012780D02*
X024948Y011904D01*
X025223Y011680D01*
X022348Y014480D02*
X022448Y014780D01*
X020548Y013580D02*
X019648Y012680D01*
X019648Y012280D01*
X019448Y012080D01*
X019648Y011980D01*
X019048Y011380D01*
D28*
X019148Y017380D02*
X018085Y017380D01*
X019148Y017380D02*
X020148Y018380D01*
X020348Y018747D01*
X020416Y019005D01*
D29*
X020418Y019007D01*
X020418Y019363D01*
M02*
