G75*
%MOIN*%
%OFA0B0*%
%FSLAX24Y24*%
%IPPOS*%
%LPD*%
%AMOC8*
5,1,8,0,0,1.08239X$1,22.5*
%
%ADD10C,0.0060*%
%ADD11C,0.0100*%
%ADD12C,0.0000*%
%ADD13C,0.0040*%
%ADD14C,0.0150*%
%ADD15R,0.0079X0.0079*%
%ADD16R,0.0059X0.0098*%
%ADD17C,0.0050*%
D10*
X006878Y001587D02*
X006878Y001700D01*
X006935Y001757D01*
X007048Y001757D01*
X007048Y001643D01*
X007161Y001530D02*
X006935Y001530D01*
X006878Y001587D01*
X007161Y001530D02*
X007218Y001587D01*
X007218Y001700D01*
X007161Y001757D01*
X007218Y001898D02*
X006878Y002125D01*
X007218Y002125D01*
X007218Y002267D02*
X006878Y002267D01*
X006878Y002437D01*
X006935Y002493D01*
X007161Y002493D01*
X007218Y002437D01*
X007218Y002267D01*
X007218Y001898D02*
X006878Y001898D01*
X007878Y001946D02*
X007878Y001832D01*
X007935Y001776D01*
X008161Y001776D01*
X008218Y001832D01*
X008218Y001946D01*
X008161Y002002D01*
X007935Y002002D01*
X007878Y001946D01*
X007878Y002144D02*
X007878Y002371D01*
X007878Y002257D02*
X008218Y002257D01*
X008105Y002144D01*
X008878Y002144D02*
X009105Y002371D01*
X009161Y002371D01*
X009218Y002314D01*
X009218Y002201D01*
X009161Y002144D01*
X009161Y002002D02*
X009218Y001946D01*
X009218Y001832D01*
X009161Y001776D01*
X008935Y001776D01*
X008878Y001832D01*
X008878Y001946D01*
X008935Y002002D01*
X009161Y002002D01*
X008878Y002144D02*
X008878Y002371D01*
X008878Y001643D02*
X008878Y001530D01*
X008878Y001587D02*
X009218Y001587D01*
X009218Y001643D02*
X009218Y001530D01*
X009878Y001843D02*
X009991Y001957D01*
X010218Y001957D01*
X010218Y001730D02*
X009991Y001730D01*
X009878Y001843D01*
X008218Y001643D02*
X008218Y001530D01*
X008218Y001587D02*
X007878Y001587D01*
X007878Y001643D02*
X007878Y001530D01*
X007243Y004856D02*
X007083Y004856D01*
X007002Y004936D01*
X007002Y005096D01*
X007143Y005156D02*
X007143Y005236D01*
X007223Y005317D01*
X007303Y005317D01*
X007463Y005156D01*
X007463Y005076D01*
X007383Y004996D01*
X007303Y004996D01*
X007597Y005210D02*
X007597Y005370D01*
X007517Y005450D01*
X007356Y005450D01*
X007148Y005577D02*
X007148Y005657D01*
X007067Y005657D01*
X006947Y005536D01*
X006907Y005577D02*
X007027Y005456D01*
X007148Y005577D01*
X007288Y005717D02*
X007448Y005877D01*
X007127Y005877D01*
X007288Y006037D01*
X007381Y006131D02*
X007582Y005930D01*
X007662Y005930D01*
X007702Y005970D01*
X007849Y005910D02*
X007688Y005750D01*
X007809Y005710D02*
X007809Y005630D01*
X007889Y005550D01*
X007969Y005550D01*
X008049Y005630D01*
X008049Y005710D01*
X007969Y005790D02*
X007849Y005750D01*
X007809Y005710D01*
X007969Y005790D02*
X007849Y005910D01*
X008029Y006091D02*
X008270Y005850D01*
X008350Y005930D02*
X008190Y005770D01*
X008190Y006091D02*
X008029Y006091D01*
X007842Y006271D02*
X007762Y006191D01*
X007842Y006271D02*
X007842Y006351D01*
X007762Y006431D01*
X007682Y006431D01*
X007602Y006351D01*
X007602Y006271D01*
X007642Y006231D01*
X007802Y006391D01*
X007819Y006568D02*
X007859Y006608D01*
X008019Y006608D01*
X008099Y006528D02*
X007939Y006689D01*
X008039Y006789D02*
X008119Y006789D01*
X008239Y006909D01*
X008119Y007029D02*
X007999Y006909D01*
X007999Y006829D01*
X008039Y006789D01*
X008119Y006789D02*
X008119Y006708D01*
X008159Y006668D01*
X008239Y006668D01*
X008360Y006789D01*
X008119Y007029D01*
X008553Y007303D02*
X008633Y007383D01*
X008553Y007383D02*
X008714Y007223D01*
X008714Y007142D01*
X008887Y007316D02*
X008887Y007396D01*
X008727Y007557D01*
X008807Y007557D02*
X008727Y007476D01*
X008947Y007617D02*
X009067Y007496D01*
X009188Y007617D01*
X009188Y007697D01*
X009108Y007697D01*
X008987Y007577D01*
X008947Y007617D02*
X008947Y007697D01*
X009027Y007777D01*
X009087Y007997D02*
X009328Y007757D01*
X009488Y007917D02*
X009248Y008158D01*
X009248Y007997D01*
X009087Y007997D01*
X009512Y007573D02*
X009592Y007653D01*
X009552Y007613D02*
X009752Y007413D01*
X009832Y007413D01*
X009872Y007453D01*
X009872Y007533D01*
X009612Y007273D02*
X009532Y007273D01*
X009411Y007152D01*
X009371Y007192D02*
X009492Y007072D01*
X009612Y007192D01*
X009612Y007273D01*
X009452Y007353D02*
X009371Y007273D01*
X009371Y007192D01*
X009231Y007132D02*
X009111Y007012D01*
X009111Y006932D01*
X009231Y006812D01*
X009392Y006972D02*
X009231Y007132D01*
X008670Y006652D02*
X008590Y006652D01*
X008510Y006571D01*
X008510Y006491D01*
X008550Y006451D01*
X008871Y006451D01*
X008710Y006291D01*
X008570Y006231D02*
X008570Y006151D01*
X008490Y006070D01*
X008410Y006070D01*
X008249Y006231D01*
X008570Y006231D01*
X008410Y006391D01*
X008330Y006391D01*
X008249Y006311D01*
X008249Y006231D01*
X007301Y006211D02*
X007261Y006251D01*
X006987Y005737D02*
X006907Y005657D01*
X006907Y005577D01*
X012854Y005587D02*
X012911Y005530D01*
X013025Y005530D01*
X013081Y005587D01*
X013081Y005814D01*
X013025Y005870D01*
X012911Y005870D01*
X012854Y005814D01*
X013223Y005814D02*
X013279Y005870D01*
X013393Y005870D01*
X013450Y005814D01*
X013450Y005587D01*
X013393Y005530D01*
X013279Y005530D01*
X013223Y005587D01*
X013591Y005643D02*
X013591Y005870D01*
X013591Y005643D02*
X013704Y005530D01*
X013818Y005643D01*
X013818Y005870D01*
X013704Y006530D02*
X013704Y006870D01*
X013591Y006870D02*
X013818Y006870D01*
X013450Y006814D02*
X013450Y006757D01*
X013393Y006700D01*
X013279Y006700D01*
X013223Y006643D01*
X013223Y006587D01*
X013279Y006530D01*
X013393Y006530D01*
X013450Y006587D01*
X013450Y006814D02*
X013393Y006870D01*
X013279Y006870D01*
X013223Y006814D01*
X013081Y006870D02*
X012854Y006870D01*
X012968Y006870D02*
X012968Y006530D01*
X012968Y007530D02*
X012968Y007870D01*
X013081Y007870D02*
X012854Y007870D01*
X013223Y007814D02*
X013279Y007870D01*
X013393Y007870D01*
X013450Y007814D01*
X013450Y007757D01*
X013393Y007700D01*
X013279Y007700D01*
X013223Y007643D01*
X013223Y007587D01*
X013279Y007530D01*
X013393Y007530D01*
X013450Y007587D01*
X013591Y007530D02*
X013704Y007643D01*
X013648Y007643D02*
X013818Y007643D01*
X013818Y007530D02*
X013818Y007870D01*
X013648Y007870D01*
X013591Y007814D01*
X013591Y007700D01*
X013648Y007643D01*
X013648Y004870D02*
X013761Y004870D01*
X013818Y004814D01*
X013818Y004587D01*
X013761Y004530D01*
X013648Y004530D01*
X013591Y004587D01*
X013591Y004700D01*
X013704Y004700D01*
X013591Y004814D02*
X013648Y004870D01*
X013450Y004870D02*
X013223Y004530D01*
X013223Y004870D01*
X013081Y004870D02*
X013081Y004530D01*
X012911Y004530D01*
X012854Y004587D01*
X012854Y004814D01*
X012911Y004870D01*
X013081Y004870D01*
X013450Y004870D02*
X013450Y004530D01*
X016957Y005527D02*
X017077Y005406D01*
X017198Y005527D01*
X017198Y005607D01*
X017117Y005607D01*
X016997Y005486D01*
X016957Y005527D02*
X016957Y005607D01*
X017037Y005687D01*
X017177Y005827D02*
X017498Y005827D01*
X017338Y005667D01*
X017177Y005827D02*
X017338Y005987D01*
X017431Y006081D02*
X017632Y005880D01*
X017712Y005880D01*
X017752Y005920D01*
X017899Y005860D02*
X017738Y005700D01*
X017859Y005660D02*
X017859Y005580D01*
X017939Y005500D01*
X018019Y005500D01*
X018099Y005580D01*
X018099Y005660D01*
X018019Y005740D02*
X017899Y005700D01*
X017859Y005660D01*
X018019Y005740D02*
X017899Y005860D01*
X018079Y006041D02*
X018320Y005800D01*
X018400Y005880D02*
X018240Y005720D01*
X018240Y006041D02*
X018079Y006041D01*
X017892Y006221D02*
X017892Y006301D01*
X017812Y006381D01*
X017732Y006381D01*
X017652Y006301D01*
X017652Y006221D01*
X017692Y006181D01*
X017852Y006341D01*
X017892Y006221D02*
X017812Y006141D01*
X017351Y006161D02*
X017311Y006201D01*
X017869Y006518D02*
X017909Y006558D01*
X018069Y006558D01*
X018149Y006478D02*
X017989Y006639D01*
X018089Y006739D02*
X018169Y006739D01*
X018289Y006859D01*
X018169Y006979D02*
X018410Y006739D01*
X018289Y006618D01*
X018209Y006618D01*
X018169Y006658D01*
X018169Y006739D01*
X018089Y006739D02*
X018049Y006779D01*
X018049Y006859D01*
X018169Y006979D01*
X018603Y007253D02*
X018683Y007333D01*
X018603Y007333D02*
X018764Y007173D01*
X018764Y007092D01*
X018937Y007266D02*
X018937Y007346D01*
X018777Y007507D01*
X018857Y007507D02*
X018777Y007426D01*
X018997Y007567D02*
X018997Y007647D01*
X019077Y007727D01*
X019158Y007647D02*
X019037Y007527D01*
X018997Y007567D02*
X019117Y007446D01*
X019238Y007567D01*
X019238Y007647D01*
X019158Y007647D01*
X019378Y007707D02*
X019137Y007947D01*
X019298Y007947D01*
X019298Y008108D01*
X019538Y007867D01*
X019642Y007603D02*
X019562Y007523D01*
X019602Y007563D02*
X019802Y007363D01*
X019882Y007363D01*
X019922Y007403D01*
X019922Y007483D01*
X019662Y007223D02*
X019582Y007223D01*
X019461Y007102D01*
X019421Y007142D02*
X019542Y007022D01*
X019662Y007142D01*
X019662Y007223D01*
X019502Y007303D02*
X019421Y007223D01*
X019421Y007142D01*
X019281Y007082D02*
X019161Y006962D01*
X019161Y006882D01*
X019281Y006762D01*
X019442Y006922D02*
X019281Y007082D01*
X018720Y006602D02*
X018640Y006602D01*
X018560Y006521D01*
X018560Y006441D01*
X018600Y006401D01*
X018921Y006401D01*
X018760Y006241D01*
X018620Y006181D02*
X018620Y006101D01*
X018540Y006020D01*
X018460Y006020D01*
X018299Y006181D01*
X018620Y006181D01*
X018460Y006341D01*
X018380Y006341D01*
X018299Y006261D01*
X018299Y006181D01*
X017607Y005360D02*
X017527Y005280D01*
X017687Y005119D01*
X017567Y005240D02*
X017647Y005320D01*
X017211Y002443D02*
X016985Y002443D01*
X016928Y002387D01*
X016928Y002217D01*
X017268Y002217D01*
X017268Y002387D01*
X017211Y002443D01*
X017268Y002075D02*
X016928Y002075D01*
X017268Y001848D01*
X016928Y001848D01*
X016985Y001707D02*
X017098Y001707D01*
X017098Y001593D01*
X017211Y001480D02*
X016985Y001480D01*
X016928Y001537D01*
X016928Y001650D01*
X016985Y001707D01*
X017211Y001707D02*
X017268Y001650D01*
X017268Y001537D01*
X017211Y001480D01*
X017928Y001480D02*
X017928Y001593D01*
X017928Y001537D02*
X018268Y001537D01*
X018268Y001593D02*
X018268Y001480D01*
X018211Y001726D02*
X017985Y001726D01*
X017928Y001782D01*
X017928Y001896D01*
X017985Y001952D01*
X018211Y001952D01*
X018268Y001896D01*
X018268Y001782D01*
X018211Y001726D01*
X018155Y002094D02*
X018268Y002207D01*
X017928Y002207D01*
X017928Y002094D02*
X017928Y002321D01*
X018928Y002321D02*
X018928Y002094D01*
X019155Y002321D01*
X019211Y002321D01*
X019268Y002264D01*
X019268Y002151D01*
X019211Y002094D01*
X019211Y001952D02*
X019268Y001896D01*
X019268Y001782D01*
X019211Y001726D01*
X018985Y001726D01*
X018928Y001782D01*
X018928Y001896D01*
X018985Y001952D01*
X019211Y001952D01*
X019268Y001593D02*
X019268Y001480D01*
X019268Y001537D02*
X018928Y001537D01*
X018928Y001593D02*
X018928Y001480D01*
X019928Y001793D02*
X020041Y001907D01*
X020268Y001907D01*
X020268Y001680D02*
X020041Y001680D01*
X019928Y001793D01*
X022904Y004537D02*
X022961Y004480D01*
X023131Y004480D01*
X023131Y004820D01*
X022961Y004820D01*
X022904Y004764D01*
X022904Y004537D01*
X023273Y004480D02*
X023273Y004820D01*
X023500Y004820D02*
X023273Y004480D01*
X023500Y004480D02*
X023500Y004820D01*
X023641Y004764D02*
X023698Y004820D01*
X023811Y004820D01*
X023868Y004764D01*
X023868Y004537D01*
X023811Y004480D01*
X023698Y004480D01*
X023641Y004537D01*
X023641Y004650D01*
X023754Y004650D01*
X023754Y005480D02*
X023641Y005593D01*
X023641Y005820D01*
X023500Y005764D02*
X023500Y005537D01*
X023443Y005480D01*
X023329Y005480D01*
X023273Y005537D01*
X023131Y005537D02*
X023131Y005764D01*
X023075Y005820D01*
X022961Y005820D01*
X022904Y005764D01*
X022904Y005537D02*
X022961Y005480D01*
X023075Y005480D01*
X023131Y005537D01*
X023273Y005764D02*
X023329Y005820D01*
X023443Y005820D01*
X023500Y005764D01*
X023868Y005820D02*
X023868Y005593D01*
X023754Y005480D01*
X023754Y006480D02*
X023754Y006820D01*
X023641Y006820D02*
X023868Y006820D01*
X023500Y006764D02*
X023500Y006707D01*
X023443Y006650D01*
X023329Y006650D01*
X023273Y006593D01*
X023273Y006537D01*
X023329Y006480D01*
X023443Y006480D01*
X023500Y006537D01*
X023500Y006764D02*
X023443Y006820D01*
X023329Y006820D01*
X023273Y006764D01*
X023131Y006820D02*
X022904Y006820D01*
X023018Y006820D02*
X023018Y006480D01*
X023018Y007480D02*
X023018Y007820D01*
X023131Y007820D02*
X022904Y007820D01*
X023273Y007764D02*
X023329Y007820D01*
X023443Y007820D01*
X023500Y007764D01*
X023500Y007707D01*
X023443Y007650D01*
X023329Y007650D01*
X023273Y007593D01*
X023273Y007537D01*
X023329Y007480D01*
X023443Y007480D01*
X023500Y007537D01*
X023641Y007480D02*
X023754Y007593D01*
X023698Y007593D02*
X023868Y007593D01*
X023868Y007480D02*
X023868Y007820D01*
X023698Y007820D01*
X023641Y007764D01*
X023641Y007650D01*
X023698Y007593D01*
X023679Y014010D02*
X023509Y014010D01*
X023509Y014237D01*
X023367Y014350D02*
X023311Y014350D01*
X023311Y014010D01*
X023367Y014010D02*
X023254Y014010D01*
X023122Y014067D02*
X023065Y014123D01*
X022895Y014123D01*
X022895Y014180D02*
X022895Y014010D01*
X023065Y014010D01*
X023122Y014067D01*
X023065Y014237D02*
X022952Y014237D01*
X022895Y014180D01*
X022754Y014237D02*
X022640Y014237D01*
X022697Y014293D02*
X022697Y014067D01*
X022640Y014010D01*
X022508Y014067D02*
X022508Y014180D01*
X022451Y014237D01*
X022338Y014237D01*
X022281Y014180D01*
X022281Y014123D01*
X022508Y014123D01*
X022508Y014067D02*
X022451Y014010D01*
X022338Y014010D01*
X022631Y014496D02*
X022631Y014837D01*
X022461Y014837D01*
X022404Y014780D01*
X022404Y014667D01*
X022461Y014610D01*
X022631Y014610D01*
X022772Y014610D02*
X022942Y014610D01*
X022999Y014667D01*
X022942Y014723D01*
X022772Y014723D01*
X022772Y014780D02*
X022772Y014610D01*
X022772Y014780D02*
X022829Y014837D01*
X022942Y014837D01*
X023131Y014837D02*
X023245Y014837D01*
X023188Y014893D02*
X023188Y014667D01*
X023131Y014610D01*
X023736Y014067D02*
X023679Y014010D01*
X023736Y014067D02*
X023736Y014237D01*
X023877Y014237D02*
X024047Y014237D01*
X024104Y014180D01*
X024047Y014123D01*
X023934Y014123D01*
X023877Y014067D01*
X023934Y014010D01*
X024104Y014010D01*
X024245Y014010D02*
X024245Y014180D01*
X024302Y014237D01*
X024472Y014237D01*
X024472Y014010D01*
X024604Y014010D02*
X024718Y014010D01*
X024661Y014010D02*
X024661Y014237D01*
X024718Y014237D01*
X024661Y014350D02*
X024661Y014407D01*
X024718Y014610D02*
X024718Y014837D01*
X024604Y014950D01*
X024491Y014837D01*
X024491Y014610D01*
X024350Y014667D02*
X024350Y014780D01*
X024293Y014837D01*
X024123Y014837D01*
X024123Y014950D02*
X024123Y014610D01*
X024293Y014610D01*
X024350Y014667D01*
X024491Y014780D02*
X024718Y014780D01*
X023981Y014780D02*
X023981Y014667D01*
X023925Y014610D01*
X023754Y014610D01*
X023754Y014950D01*
X023754Y014837D02*
X023925Y014837D01*
X023981Y014780D01*
X022262Y014780D02*
X022262Y014667D01*
X022206Y014610D01*
X022092Y014610D01*
X022036Y014723D02*
X022262Y014723D01*
X022262Y014780D02*
X022206Y014837D01*
X022092Y014837D01*
X022036Y014780D01*
X022036Y014723D01*
X021526Y014837D02*
X021412Y014837D01*
X021469Y014893D02*
X021469Y014667D01*
X021412Y014610D01*
X021280Y014667D02*
X021224Y014610D01*
X021110Y014610D01*
X021053Y014667D01*
X021053Y014780D01*
X021110Y014837D01*
X021224Y014837D01*
X021280Y014780D01*
X021280Y014667D01*
X021346Y014407D02*
X021346Y014350D01*
X021346Y014237D02*
X021346Y014010D01*
X021290Y014010D02*
X021403Y014010D01*
X021403Y014237D02*
X021346Y014237D01*
X021544Y014237D02*
X021658Y014010D01*
X021771Y014237D01*
X021158Y014067D02*
X021101Y014123D01*
X020931Y014123D01*
X020931Y014180D02*
X020931Y014010D01*
X021101Y014010D01*
X021158Y014067D01*
X021101Y014237D02*
X020987Y014237D01*
X020931Y014180D01*
X020789Y014180D02*
X020732Y014237D01*
X020562Y014237D01*
X020619Y014123D02*
X020732Y014123D01*
X020789Y014180D01*
X020789Y014010D02*
X020619Y014010D01*
X020562Y014067D01*
X020619Y014123D01*
D11*
X013348Y001450D02*
X009798Y001450D01*
X019848Y001400D02*
X023398Y001400D01*
D12*
X005948Y000850D02*
X005948Y006275D01*
X008998Y009325D01*
X010153Y009325D01*
X010168Y009326D01*
X010182Y009331D01*
X010196Y009338D01*
X010207Y009348D01*
X010217Y009359D01*
X010224Y009373D01*
X010229Y009387D01*
X010230Y009402D01*
X010229Y009402D02*
X010229Y010880D01*
X010228Y010897D01*
X010223Y010914D01*
X010216Y010929D01*
X010206Y010943D01*
X010194Y010955D01*
X010180Y010965D01*
X010165Y010972D01*
X010148Y010977D01*
X010131Y010978D01*
X007031Y010978D01*
X007031Y010979D02*
X006969Y010981D01*
X006908Y010987D01*
X006847Y010996D01*
X006786Y011010D01*
X006727Y011027D01*
X006669Y011048D01*
X006612Y011073D01*
X006557Y011101D01*
X006504Y011132D01*
X006453Y011167D01*
X006404Y011205D01*
X006357Y011246D01*
X006314Y011289D01*
X006273Y011336D01*
X006235Y011385D01*
X006200Y011436D01*
X006169Y011489D01*
X006141Y011544D01*
X006116Y011601D01*
X006095Y011659D01*
X006078Y011718D01*
X006064Y011779D01*
X006055Y011840D01*
X006049Y011901D01*
X006047Y011963D01*
X006046Y011963D02*
X006046Y018852D01*
X006047Y018852D02*
X006049Y018914D01*
X006055Y018975D01*
X006064Y019036D01*
X006078Y019097D01*
X006095Y019156D01*
X006116Y019214D01*
X006141Y019271D01*
X006169Y019326D01*
X006200Y019379D01*
X006235Y019430D01*
X006273Y019479D01*
X006314Y019526D01*
X006357Y019569D01*
X006404Y019610D01*
X006453Y019648D01*
X006504Y019683D01*
X006557Y019714D01*
X006612Y019742D01*
X006669Y019767D01*
X006727Y019788D01*
X006786Y019805D01*
X006847Y019819D01*
X006908Y019828D01*
X006969Y019834D01*
X007031Y019836D01*
X007031Y019837D02*
X025633Y019837D01*
X025633Y010978D01*
X023763Y010978D01*
X023763Y010979D02*
X023740Y010977D01*
X023717Y010972D01*
X023696Y010963D01*
X023676Y010951D01*
X023658Y010936D01*
X023643Y010918D01*
X023631Y010898D01*
X023622Y010877D01*
X023617Y010854D01*
X023615Y010831D01*
X023615Y009404D01*
X023616Y009404D02*
X023617Y009387D01*
X023622Y009370D01*
X023629Y009355D01*
X023639Y009341D01*
X023651Y009329D01*
X023665Y009319D01*
X023680Y009312D01*
X023697Y009307D01*
X023714Y009306D01*
X023714Y009305D02*
X024796Y009305D01*
X024844Y009303D01*
X024891Y009298D01*
X024938Y009289D01*
X024985Y009277D01*
X025030Y009261D01*
X025074Y009242D01*
X025116Y009219D01*
X025157Y009194D01*
X025195Y009165D01*
X025231Y009134D01*
X025265Y009100D01*
X025296Y009064D01*
X025325Y009026D01*
X025350Y008985D01*
X025373Y008943D01*
X025392Y008899D01*
X025408Y008854D01*
X025420Y008807D01*
X025429Y008760D01*
X025434Y008713D01*
X025436Y008665D01*
X025436Y001488D01*
X024173Y000225D01*
X016573Y000225D01*
X016528Y000227D01*
X016483Y000232D01*
X016439Y000241D01*
X016395Y000253D01*
X016353Y000269D01*
X016312Y000288D01*
X016273Y000310D01*
X016235Y000335D01*
X016200Y000363D01*
X016166Y000393D01*
X016136Y000427D01*
X016108Y000462D01*
X016083Y000500D01*
X016061Y000539D01*
X016042Y000580D01*
X016026Y000622D01*
X016014Y000666D01*
X016005Y000710D01*
X016000Y000755D01*
X015998Y000800D01*
X015998Y006225D01*
X019078Y009305D01*
X019924Y009305D01*
X019924Y009306D02*
X019941Y009307D01*
X019958Y009312D01*
X019973Y009319D01*
X019987Y009329D01*
X019999Y009341D01*
X020009Y009355D01*
X020016Y009370D01*
X020021Y009387D01*
X020022Y009404D01*
X020023Y009404D02*
X020023Y010831D01*
X020021Y010854D01*
X020016Y010877D01*
X020007Y010898D01*
X019995Y010918D01*
X019980Y010936D01*
X019962Y010951D01*
X019942Y010963D01*
X019921Y010972D01*
X019898Y010977D01*
X019875Y010979D01*
X019875Y010978D02*
X013871Y010978D01*
X013871Y010979D02*
X013854Y010977D01*
X013837Y010973D01*
X013821Y010966D01*
X013807Y010956D01*
X013794Y010943D01*
X013784Y010929D01*
X013777Y010913D01*
X013773Y010896D01*
X013771Y010879D01*
X013771Y009451D01*
X013773Y009431D01*
X013777Y009412D01*
X013785Y009394D01*
X013795Y009377D01*
X013808Y009362D01*
X013823Y009349D01*
X013840Y009339D01*
X013858Y009331D01*
X013877Y009327D01*
X013897Y009325D01*
X014798Y009325D01*
X014845Y009323D01*
X014892Y009318D01*
X014938Y009308D01*
X014983Y009296D01*
X015028Y009279D01*
X015070Y009260D01*
X015111Y009237D01*
X015151Y009210D01*
X015188Y009181D01*
X015222Y009149D01*
X015254Y009115D01*
X015283Y009078D01*
X015310Y009038D01*
X015333Y008997D01*
X015352Y008955D01*
X015369Y008910D01*
X015381Y008865D01*
X015391Y008819D01*
X015396Y008772D01*
X015398Y008725D01*
X015398Y001550D01*
X014123Y000275D01*
X006523Y000275D01*
X006478Y000277D01*
X006433Y000282D01*
X006389Y000291D01*
X006345Y000303D01*
X006303Y000319D01*
X006262Y000338D01*
X006223Y000360D01*
X006185Y000385D01*
X006150Y000413D01*
X006116Y000443D01*
X006086Y000477D01*
X006058Y000512D01*
X006033Y000550D01*
X006011Y000589D01*
X005992Y000630D01*
X005976Y000672D01*
X005964Y000716D01*
X005955Y000760D01*
X005950Y000805D01*
X005948Y000850D01*
X010368Y009502D02*
X010370Y009527D01*
X010376Y009551D01*
X010385Y009573D01*
X010398Y009594D01*
X010414Y009613D01*
X010433Y009629D01*
X010454Y009642D01*
X010476Y009651D01*
X010500Y009657D01*
X010525Y009659D01*
X010550Y009657D01*
X010574Y009651D01*
X010596Y009642D01*
X010617Y009629D01*
X010636Y009613D01*
X010652Y009594D01*
X010665Y009573D01*
X010674Y009551D01*
X010680Y009527D01*
X010682Y009502D01*
X010680Y009477D01*
X010674Y009453D01*
X010665Y009431D01*
X010652Y009410D01*
X010636Y009391D01*
X010617Y009375D01*
X010596Y009362D01*
X010574Y009353D01*
X010550Y009347D01*
X010525Y009345D01*
X010500Y009347D01*
X010476Y009353D01*
X010454Y009362D01*
X010433Y009375D01*
X010414Y009391D01*
X010398Y009410D01*
X010385Y009431D01*
X010376Y009453D01*
X010370Y009477D01*
X010368Y009502D01*
X010860Y009502D02*
X010862Y009527D01*
X010868Y009551D01*
X010877Y009573D01*
X010890Y009594D01*
X010906Y009613D01*
X010925Y009629D01*
X010946Y009642D01*
X010968Y009651D01*
X010992Y009657D01*
X011017Y009659D01*
X011042Y009657D01*
X011066Y009651D01*
X011088Y009642D01*
X011109Y009629D01*
X011128Y009613D01*
X011144Y009594D01*
X011157Y009573D01*
X011166Y009551D01*
X011172Y009527D01*
X011174Y009502D01*
X011172Y009477D01*
X011166Y009453D01*
X011157Y009431D01*
X011144Y009410D01*
X011128Y009391D01*
X011109Y009375D01*
X011088Y009362D01*
X011066Y009353D01*
X011042Y009347D01*
X011017Y009345D01*
X010992Y009347D01*
X010968Y009353D01*
X010946Y009362D01*
X010925Y009375D01*
X010906Y009391D01*
X010890Y009410D01*
X010877Y009431D01*
X010868Y009453D01*
X010862Y009477D01*
X010860Y009502D01*
X011352Y009502D02*
X011354Y009527D01*
X011360Y009551D01*
X011369Y009573D01*
X011382Y009594D01*
X011398Y009613D01*
X011417Y009629D01*
X011438Y009642D01*
X011460Y009651D01*
X011484Y009657D01*
X011509Y009659D01*
X011534Y009657D01*
X011558Y009651D01*
X011580Y009642D01*
X011601Y009629D01*
X011620Y009613D01*
X011636Y009594D01*
X011649Y009573D01*
X011658Y009551D01*
X011664Y009527D01*
X011666Y009502D01*
X011664Y009477D01*
X011658Y009453D01*
X011649Y009431D01*
X011636Y009410D01*
X011620Y009391D01*
X011601Y009375D01*
X011580Y009362D01*
X011558Y009353D01*
X011534Y009347D01*
X011509Y009345D01*
X011484Y009347D01*
X011460Y009353D01*
X011438Y009362D01*
X011417Y009375D01*
X011398Y009391D01*
X011382Y009410D01*
X011369Y009431D01*
X011360Y009453D01*
X011354Y009477D01*
X011352Y009502D01*
X011844Y009502D02*
X011846Y009527D01*
X011852Y009551D01*
X011861Y009573D01*
X011874Y009594D01*
X011890Y009613D01*
X011909Y009629D01*
X011930Y009642D01*
X011952Y009651D01*
X011976Y009657D01*
X012001Y009659D01*
X012026Y009657D01*
X012050Y009651D01*
X012072Y009642D01*
X012093Y009629D01*
X012112Y009613D01*
X012128Y009594D01*
X012141Y009573D01*
X012150Y009551D01*
X012156Y009527D01*
X012158Y009502D01*
X012156Y009477D01*
X012150Y009453D01*
X012141Y009431D01*
X012128Y009410D01*
X012112Y009391D01*
X012093Y009375D01*
X012072Y009362D01*
X012050Y009353D01*
X012026Y009347D01*
X012001Y009345D01*
X011976Y009347D01*
X011952Y009353D01*
X011930Y009362D01*
X011909Y009375D01*
X011890Y009391D01*
X011874Y009410D01*
X011861Y009431D01*
X011852Y009453D01*
X011846Y009477D01*
X011844Y009502D01*
X012336Y009502D02*
X012338Y009527D01*
X012344Y009551D01*
X012353Y009573D01*
X012366Y009594D01*
X012382Y009613D01*
X012401Y009629D01*
X012422Y009642D01*
X012444Y009651D01*
X012468Y009657D01*
X012493Y009659D01*
X012518Y009657D01*
X012542Y009651D01*
X012564Y009642D01*
X012585Y009629D01*
X012604Y009613D01*
X012620Y009594D01*
X012633Y009573D01*
X012642Y009551D01*
X012648Y009527D01*
X012650Y009502D01*
X012648Y009477D01*
X012642Y009453D01*
X012633Y009431D01*
X012620Y009410D01*
X012604Y009391D01*
X012585Y009375D01*
X012564Y009362D01*
X012542Y009353D01*
X012518Y009347D01*
X012493Y009345D01*
X012468Y009347D01*
X012444Y009353D01*
X012422Y009362D01*
X012401Y009375D01*
X012382Y009391D01*
X012366Y009410D01*
X012353Y009431D01*
X012344Y009453D01*
X012338Y009477D01*
X012336Y009502D01*
X012828Y009502D02*
X012830Y009527D01*
X012836Y009551D01*
X012845Y009573D01*
X012858Y009594D01*
X012874Y009613D01*
X012893Y009629D01*
X012914Y009642D01*
X012936Y009651D01*
X012960Y009657D01*
X012985Y009659D01*
X013010Y009657D01*
X013034Y009651D01*
X013056Y009642D01*
X013077Y009629D01*
X013096Y009613D01*
X013112Y009594D01*
X013125Y009573D01*
X013134Y009551D01*
X013140Y009527D01*
X013142Y009502D01*
X013140Y009477D01*
X013134Y009453D01*
X013125Y009431D01*
X013112Y009410D01*
X013096Y009391D01*
X013077Y009375D01*
X013056Y009362D01*
X013034Y009353D01*
X013010Y009347D01*
X012985Y009345D01*
X012960Y009347D01*
X012936Y009353D01*
X012914Y009362D01*
X012893Y009375D01*
X012874Y009391D01*
X012858Y009410D01*
X012845Y009431D01*
X012836Y009453D01*
X012830Y009477D01*
X012828Y009502D01*
X013320Y009502D02*
X013322Y009527D01*
X013328Y009551D01*
X013337Y009573D01*
X013350Y009594D01*
X013366Y009613D01*
X013385Y009629D01*
X013406Y009642D01*
X013428Y009651D01*
X013452Y009657D01*
X013477Y009659D01*
X013502Y009657D01*
X013526Y009651D01*
X013548Y009642D01*
X013569Y009629D01*
X013588Y009613D01*
X013604Y009594D01*
X013617Y009573D01*
X013626Y009551D01*
X013632Y009527D01*
X013634Y009502D01*
X013632Y009477D01*
X013626Y009453D01*
X013617Y009431D01*
X013604Y009410D01*
X013588Y009391D01*
X013569Y009375D01*
X013548Y009362D01*
X013526Y009353D01*
X013502Y009347D01*
X013477Y009345D01*
X013452Y009347D01*
X013428Y009353D01*
X013406Y009362D01*
X013385Y009375D01*
X013366Y009391D01*
X013350Y009410D01*
X013337Y009431D01*
X013328Y009453D01*
X013322Y009477D01*
X013320Y009502D01*
X013320Y010781D02*
X013322Y010806D01*
X013328Y010830D01*
X013337Y010852D01*
X013350Y010873D01*
X013366Y010892D01*
X013385Y010908D01*
X013406Y010921D01*
X013428Y010930D01*
X013452Y010936D01*
X013477Y010938D01*
X013502Y010936D01*
X013526Y010930D01*
X013548Y010921D01*
X013569Y010908D01*
X013588Y010892D01*
X013604Y010873D01*
X013617Y010852D01*
X013626Y010830D01*
X013632Y010806D01*
X013634Y010781D01*
X013632Y010756D01*
X013626Y010732D01*
X013617Y010710D01*
X013604Y010689D01*
X013588Y010670D01*
X013569Y010654D01*
X013548Y010641D01*
X013526Y010632D01*
X013502Y010626D01*
X013477Y010624D01*
X013452Y010626D01*
X013428Y010632D01*
X013406Y010641D01*
X013385Y010654D01*
X013366Y010670D01*
X013350Y010689D01*
X013337Y010710D01*
X013328Y010732D01*
X013322Y010756D01*
X013320Y010781D01*
X012828Y010781D02*
X012830Y010806D01*
X012836Y010830D01*
X012845Y010852D01*
X012858Y010873D01*
X012874Y010892D01*
X012893Y010908D01*
X012914Y010921D01*
X012936Y010930D01*
X012960Y010936D01*
X012985Y010938D01*
X013010Y010936D01*
X013034Y010930D01*
X013056Y010921D01*
X013077Y010908D01*
X013096Y010892D01*
X013112Y010873D01*
X013125Y010852D01*
X013134Y010830D01*
X013140Y010806D01*
X013142Y010781D01*
X013140Y010756D01*
X013134Y010732D01*
X013125Y010710D01*
X013112Y010689D01*
X013096Y010670D01*
X013077Y010654D01*
X013056Y010641D01*
X013034Y010632D01*
X013010Y010626D01*
X012985Y010624D01*
X012960Y010626D01*
X012936Y010632D01*
X012914Y010641D01*
X012893Y010654D01*
X012874Y010670D01*
X012858Y010689D01*
X012845Y010710D01*
X012836Y010732D01*
X012830Y010756D01*
X012828Y010781D01*
X012336Y010781D02*
X012338Y010806D01*
X012344Y010830D01*
X012353Y010852D01*
X012366Y010873D01*
X012382Y010892D01*
X012401Y010908D01*
X012422Y010921D01*
X012444Y010930D01*
X012468Y010936D01*
X012493Y010938D01*
X012518Y010936D01*
X012542Y010930D01*
X012564Y010921D01*
X012585Y010908D01*
X012604Y010892D01*
X012620Y010873D01*
X012633Y010852D01*
X012642Y010830D01*
X012648Y010806D01*
X012650Y010781D01*
X012648Y010756D01*
X012642Y010732D01*
X012633Y010710D01*
X012620Y010689D01*
X012604Y010670D01*
X012585Y010654D01*
X012564Y010641D01*
X012542Y010632D01*
X012518Y010626D01*
X012493Y010624D01*
X012468Y010626D01*
X012444Y010632D01*
X012422Y010641D01*
X012401Y010654D01*
X012382Y010670D01*
X012366Y010689D01*
X012353Y010710D01*
X012344Y010732D01*
X012338Y010756D01*
X012336Y010781D01*
X011844Y010781D02*
X011846Y010806D01*
X011852Y010830D01*
X011861Y010852D01*
X011874Y010873D01*
X011890Y010892D01*
X011909Y010908D01*
X011930Y010921D01*
X011952Y010930D01*
X011976Y010936D01*
X012001Y010938D01*
X012026Y010936D01*
X012050Y010930D01*
X012072Y010921D01*
X012093Y010908D01*
X012112Y010892D01*
X012128Y010873D01*
X012141Y010852D01*
X012150Y010830D01*
X012156Y010806D01*
X012158Y010781D01*
X012156Y010756D01*
X012150Y010732D01*
X012141Y010710D01*
X012128Y010689D01*
X012112Y010670D01*
X012093Y010654D01*
X012072Y010641D01*
X012050Y010632D01*
X012026Y010626D01*
X012001Y010624D01*
X011976Y010626D01*
X011952Y010632D01*
X011930Y010641D01*
X011909Y010654D01*
X011890Y010670D01*
X011874Y010689D01*
X011861Y010710D01*
X011852Y010732D01*
X011846Y010756D01*
X011844Y010781D01*
X011352Y010781D02*
X011354Y010806D01*
X011360Y010830D01*
X011369Y010852D01*
X011382Y010873D01*
X011398Y010892D01*
X011417Y010908D01*
X011438Y010921D01*
X011460Y010930D01*
X011484Y010936D01*
X011509Y010938D01*
X011534Y010936D01*
X011558Y010930D01*
X011580Y010921D01*
X011601Y010908D01*
X011620Y010892D01*
X011636Y010873D01*
X011649Y010852D01*
X011658Y010830D01*
X011664Y010806D01*
X011666Y010781D01*
X011664Y010756D01*
X011658Y010732D01*
X011649Y010710D01*
X011636Y010689D01*
X011620Y010670D01*
X011601Y010654D01*
X011580Y010641D01*
X011558Y010632D01*
X011534Y010626D01*
X011509Y010624D01*
X011484Y010626D01*
X011460Y010632D01*
X011438Y010641D01*
X011417Y010654D01*
X011398Y010670D01*
X011382Y010689D01*
X011369Y010710D01*
X011360Y010732D01*
X011354Y010756D01*
X011352Y010781D01*
X010860Y010781D02*
X010862Y010806D01*
X010868Y010830D01*
X010877Y010852D01*
X010890Y010873D01*
X010906Y010892D01*
X010925Y010908D01*
X010946Y010921D01*
X010968Y010930D01*
X010992Y010936D01*
X011017Y010938D01*
X011042Y010936D01*
X011066Y010930D01*
X011088Y010921D01*
X011109Y010908D01*
X011128Y010892D01*
X011144Y010873D01*
X011157Y010852D01*
X011166Y010830D01*
X011172Y010806D01*
X011174Y010781D01*
X011172Y010756D01*
X011166Y010732D01*
X011157Y010710D01*
X011144Y010689D01*
X011128Y010670D01*
X011109Y010654D01*
X011088Y010641D01*
X011066Y010632D01*
X011042Y010626D01*
X011017Y010624D01*
X010992Y010626D01*
X010968Y010632D01*
X010946Y010641D01*
X010925Y010654D01*
X010906Y010670D01*
X010890Y010689D01*
X010877Y010710D01*
X010868Y010732D01*
X010862Y010756D01*
X010860Y010781D01*
X010368Y010781D02*
X010370Y010806D01*
X010376Y010830D01*
X010385Y010852D01*
X010398Y010873D01*
X010414Y010892D01*
X010433Y010908D01*
X010454Y010921D01*
X010476Y010930D01*
X010500Y010936D01*
X010525Y010938D01*
X010550Y010936D01*
X010574Y010930D01*
X010596Y010921D01*
X010617Y010908D01*
X010636Y010892D01*
X010652Y010873D01*
X010665Y010852D01*
X010674Y010830D01*
X010680Y010806D01*
X010682Y010781D01*
X010680Y010756D01*
X010674Y010732D01*
X010665Y010710D01*
X010652Y010689D01*
X010636Y010670D01*
X010617Y010654D01*
X010596Y010641D01*
X010574Y010632D01*
X010550Y010626D01*
X010525Y010624D01*
X010500Y010626D01*
X010476Y010632D01*
X010454Y010641D01*
X010433Y010654D01*
X010414Y010670D01*
X010398Y010689D01*
X010385Y010710D01*
X010376Y010732D01*
X010370Y010756D01*
X010368Y010781D01*
X006892Y014494D02*
X006894Y014523D01*
X006900Y014551D01*
X006909Y014579D01*
X006922Y014605D01*
X006939Y014628D01*
X006958Y014650D01*
X006980Y014669D01*
X007005Y014684D01*
X007031Y014697D01*
X007059Y014705D01*
X007087Y014710D01*
X007116Y014711D01*
X007145Y014708D01*
X007173Y014701D01*
X007200Y014691D01*
X007226Y014677D01*
X007249Y014660D01*
X007270Y014640D01*
X007288Y014617D01*
X007303Y014592D01*
X007314Y014565D01*
X007322Y014537D01*
X007326Y014508D01*
X007326Y014480D01*
X007322Y014451D01*
X007314Y014423D01*
X007303Y014396D01*
X007288Y014371D01*
X007270Y014348D01*
X007249Y014328D01*
X007226Y014311D01*
X007200Y014297D01*
X007173Y014287D01*
X007145Y014280D01*
X007116Y014277D01*
X007087Y014278D01*
X007059Y014283D01*
X007031Y014291D01*
X007005Y014304D01*
X006980Y014319D01*
X006958Y014338D01*
X006939Y014360D01*
X006922Y014383D01*
X006909Y014409D01*
X006900Y014437D01*
X006894Y014465D01*
X006892Y014494D01*
X006892Y016266D02*
X006894Y016295D01*
X006900Y016323D01*
X006909Y016351D01*
X006922Y016377D01*
X006939Y016400D01*
X006958Y016422D01*
X006980Y016441D01*
X007005Y016456D01*
X007031Y016469D01*
X007059Y016477D01*
X007087Y016482D01*
X007116Y016483D01*
X007145Y016480D01*
X007173Y016473D01*
X007200Y016463D01*
X007226Y016449D01*
X007249Y016432D01*
X007270Y016412D01*
X007288Y016389D01*
X007303Y016364D01*
X007314Y016337D01*
X007322Y016309D01*
X007326Y016280D01*
X007326Y016252D01*
X007322Y016223D01*
X007314Y016195D01*
X007303Y016168D01*
X007288Y016143D01*
X007270Y016120D01*
X007249Y016100D01*
X007226Y016083D01*
X007200Y016069D01*
X007173Y016059D01*
X007145Y016052D01*
X007116Y016049D01*
X007087Y016050D01*
X007059Y016055D01*
X007031Y016063D01*
X007005Y016076D01*
X006980Y016091D01*
X006958Y016110D01*
X006939Y016132D01*
X006922Y016155D01*
X006909Y016181D01*
X006900Y016209D01*
X006894Y016237D01*
X006892Y016266D01*
X020210Y010781D02*
X020212Y010806D01*
X020218Y010830D01*
X020227Y010852D01*
X020240Y010873D01*
X020256Y010892D01*
X020275Y010908D01*
X020296Y010921D01*
X020318Y010930D01*
X020342Y010936D01*
X020367Y010938D01*
X020392Y010936D01*
X020416Y010930D01*
X020438Y010921D01*
X020459Y010908D01*
X020478Y010892D01*
X020494Y010873D01*
X020507Y010852D01*
X020516Y010830D01*
X020522Y010806D01*
X020524Y010781D01*
X020522Y010756D01*
X020516Y010732D01*
X020507Y010710D01*
X020494Y010689D01*
X020478Y010670D01*
X020459Y010654D01*
X020438Y010641D01*
X020416Y010632D01*
X020392Y010626D01*
X020367Y010624D01*
X020342Y010626D01*
X020318Y010632D01*
X020296Y010641D01*
X020275Y010654D01*
X020256Y010670D01*
X020240Y010689D01*
X020227Y010710D01*
X020218Y010732D01*
X020212Y010756D01*
X020210Y010781D01*
X020702Y010781D02*
X020704Y010806D01*
X020710Y010830D01*
X020719Y010852D01*
X020732Y010873D01*
X020748Y010892D01*
X020767Y010908D01*
X020788Y010921D01*
X020810Y010930D01*
X020834Y010936D01*
X020859Y010938D01*
X020884Y010936D01*
X020908Y010930D01*
X020930Y010921D01*
X020951Y010908D01*
X020970Y010892D01*
X020986Y010873D01*
X020999Y010852D01*
X021008Y010830D01*
X021014Y010806D01*
X021016Y010781D01*
X021014Y010756D01*
X021008Y010732D01*
X020999Y010710D01*
X020986Y010689D01*
X020970Y010670D01*
X020951Y010654D01*
X020930Y010641D01*
X020908Y010632D01*
X020884Y010626D01*
X020859Y010624D01*
X020834Y010626D01*
X020810Y010632D01*
X020788Y010641D01*
X020767Y010654D01*
X020748Y010670D01*
X020732Y010689D01*
X020719Y010710D01*
X020710Y010732D01*
X020704Y010756D01*
X020702Y010781D01*
X021194Y010781D02*
X021196Y010806D01*
X021202Y010830D01*
X021211Y010852D01*
X021224Y010873D01*
X021240Y010892D01*
X021259Y010908D01*
X021280Y010921D01*
X021302Y010930D01*
X021326Y010936D01*
X021351Y010938D01*
X021376Y010936D01*
X021400Y010930D01*
X021422Y010921D01*
X021443Y010908D01*
X021462Y010892D01*
X021478Y010873D01*
X021491Y010852D01*
X021500Y010830D01*
X021506Y010806D01*
X021508Y010781D01*
X021506Y010756D01*
X021500Y010732D01*
X021491Y010710D01*
X021478Y010689D01*
X021462Y010670D01*
X021443Y010654D01*
X021422Y010641D01*
X021400Y010632D01*
X021376Y010626D01*
X021351Y010624D01*
X021326Y010626D01*
X021302Y010632D01*
X021280Y010641D01*
X021259Y010654D01*
X021240Y010670D01*
X021224Y010689D01*
X021211Y010710D01*
X021202Y010732D01*
X021196Y010756D01*
X021194Y010781D01*
X021687Y010781D02*
X021689Y010806D01*
X021695Y010830D01*
X021704Y010852D01*
X021717Y010873D01*
X021733Y010892D01*
X021752Y010908D01*
X021773Y010921D01*
X021795Y010930D01*
X021819Y010936D01*
X021844Y010938D01*
X021869Y010936D01*
X021893Y010930D01*
X021915Y010921D01*
X021936Y010908D01*
X021955Y010892D01*
X021971Y010873D01*
X021984Y010852D01*
X021993Y010830D01*
X021999Y010806D01*
X022001Y010781D01*
X021999Y010756D01*
X021993Y010732D01*
X021984Y010710D01*
X021971Y010689D01*
X021955Y010670D01*
X021936Y010654D01*
X021915Y010641D01*
X021893Y010632D01*
X021869Y010626D01*
X021844Y010624D01*
X021819Y010626D01*
X021795Y010632D01*
X021773Y010641D01*
X021752Y010654D01*
X021733Y010670D01*
X021717Y010689D01*
X021704Y010710D01*
X021695Y010732D01*
X021689Y010756D01*
X021687Y010781D01*
X022179Y010781D02*
X022181Y010806D01*
X022187Y010830D01*
X022196Y010852D01*
X022209Y010873D01*
X022225Y010892D01*
X022244Y010908D01*
X022265Y010921D01*
X022287Y010930D01*
X022311Y010936D01*
X022336Y010938D01*
X022361Y010936D01*
X022385Y010930D01*
X022407Y010921D01*
X022428Y010908D01*
X022447Y010892D01*
X022463Y010873D01*
X022476Y010852D01*
X022485Y010830D01*
X022491Y010806D01*
X022493Y010781D01*
X022491Y010756D01*
X022485Y010732D01*
X022476Y010710D01*
X022463Y010689D01*
X022447Y010670D01*
X022428Y010654D01*
X022407Y010641D01*
X022385Y010632D01*
X022361Y010626D01*
X022336Y010624D01*
X022311Y010626D01*
X022287Y010632D01*
X022265Y010641D01*
X022244Y010654D01*
X022225Y010670D01*
X022209Y010689D01*
X022196Y010710D01*
X022187Y010732D01*
X022181Y010756D01*
X022179Y010781D01*
X022671Y010781D02*
X022673Y010806D01*
X022679Y010830D01*
X022688Y010852D01*
X022701Y010873D01*
X022717Y010892D01*
X022736Y010908D01*
X022757Y010921D01*
X022779Y010930D01*
X022803Y010936D01*
X022828Y010938D01*
X022853Y010936D01*
X022877Y010930D01*
X022899Y010921D01*
X022920Y010908D01*
X022939Y010892D01*
X022955Y010873D01*
X022968Y010852D01*
X022977Y010830D01*
X022983Y010806D01*
X022985Y010781D01*
X022983Y010756D01*
X022977Y010732D01*
X022968Y010710D01*
X022955Y010689D01*
X022939Y010670D01*
X022920Y010654D01*
X022899Y010641D01*
X022877Y010632D01*
X022853Y010626D01*
X022828Y010624D01*
X022803Y010626D01*
X022779Y010632D01*
X022757Y010641D01*
X022736Y010654D01*
X022717Y010670D01*
X022701Y010689D01*
X022688Y010710D01*
X022679Y010732D01*
X022673Y010756D01*
X022671Y010781D01*
X023163Y010781D02*
X023165Y010806D01*
X023171Y010830D01*
X023180Y010852D01*
X023193Y010873D01*
X023209Y010892D01*
X023228Y010908D01*
X023249Y010921D01*
X023271Y010930D01*
X023295Y010936D01*
X023320Y010938D01*
X023345Y010936D01*
X023369Y010930D01*
X023391Y010921D01*
X023412Y010908D01*
X023431Y010892D01*
X023447Y010873D01*
X023460Y010852D01*
X023469Y010830D01*
X023475Y010806D01*
X023477Y010781D01*
X023475Y010756D01*
X023469Y010732D01*
X023460Y010710D01*
X023447Y010689D01*
X023431Y010670D01*
X023412Y010654D01*
X023391Y010641D01*
X023369Y010632D01*
X023345Y010626D01*
X023320Y010624D01*
X023295Y010626D01*
X023271Y010632D01*
X023249Y010641D01*
X023228Y010654D01*
X023209Y010670D01*
X023193Y010689D01*
X023180Y010710D01*
X023171Y010732D01*
X023165Y010756D01*
X023163Y010781D01*
X023163Y009502D02*
X023165Y009527D01*
X023171Y009551D01*
X023180Y009573D01*
X023193Y009594D01*
X023209Y009613D01*
X023228Y009629D01*
X023249Y009642D01*
X023271Y009651D01*
X023295Y009657D01*
X023320Y009659D01*
X023345Y009657D01*
X023369Y009651D01*
X023391Y009642D01*
X023412Y009629D01*
X023431Y009613D01*
X023447Y009594D01*
X023460Y009573D01*
X023469Y009551D01*
X023475Y009527D01*
X023477Y009502D01*
X023475Y009477D01*
X023469Y009453D01*
X023460Y009431D01*
X023447Y009410D01*
X023431Y009391D01*
X023412Y009375D01*
X023391Y009362D01*
X023369Y009353D01*
X023345Y009347D01*
X023320Y009345D01*
X023295Y009347D01*
X023271Y009353D01*
X023249Y009362D01*
X023228Y009375D01*
X023209Y009391D01*
X023193Y009410D01*
X023180Y009431D01*
X023171Y009453D01*
X023165Y009477D01*
X023163Y009502D01*
X022671Y009502D02*
X022673Y009527D01*
X022679Y009551D01*
X022688Y009573D01*
X022701Y009594D01*
X022717Y009613D01*
X022736Y009629D01*
X022757Y009642D01*
X022779Y009651D01*
X022803Y009657D01*
X022828Y009659D01*
X022853Y009657D01*
X022877Y009651D01*
X022899Y009642D01*
X022920Y009629D01*
X022939Y009613D01*
X022955Y009594D01*
X022968Y009573D01*
X022977Y009551D01*
X022983Y009527D01*
X022985Y009502D01*
X022983Y009477D01*
X022977Y009453D01*
X022968Y009431D01*
X022955Y009410D01*
X022939Y009391D01*
X022920Y009375D01*
X022899Y009362D01*
X022877Y009353D01*
X022853Y009347D01*
X022828Y009345D01*
X022803Y009347D01*
X022779Y009353D01*
X022757Y009362D01*
X022736Y009375D01*
X022717Y009391D01*
X022701Y009410D01*
X022688Y009431D01*
X022679Y009453D01*
X022673Y009477D01*
X022671Y009502D01*
X022179Y009502D02*
X022181Y009527D01*
X022187Y009551D01*
X022196Y009573D01*
X022209Y009594D01*
X022225Y009613D01*
X022244Y009629D01*
X022265Y009642D01*
X022287Y009651D01*
X022311Y009657D01*
X022336Y009659D01*
X022361Y009657D01*
X022385Y009651D01*
X022407Y009642D01*
X022428Y009629D01*
X022447Y009613D01*
X022463Y009594D01*
X022476Y009573D01*
X022485Y009551D01*
X022491Y009527D01*
X022493Y009502D01*
X022491Y009477D01*
X022485Y009453D01*
X022476Y009431D01*
X022463Y009410D01*
X022447Y009391D01*
X022428Y009375D01*
X022407Y009362D01*
X022385Y009353D01*
X022361Y009347D01*
X022336Y009345D01*
X022311Y009347D01*
X022287Y009353D01*
X022265Y009362D01*
X022244Y009375D01*
X022225Y009391D01*
X022209Y009410D01*
X022196Y009431D01*
X022187Y009453D01*
X022181Y009477D01*
X022179Y009502D01*
X021687Y009502D02*
X021689Y009527D01*
X021695Y009551D01*
X021704Y009573D01*
X021717Y009594D01*
X021733Y009613D01*
X021752Y009629D01*
X021773Y009642D01*
X021795Y009651D01*
X021819Y009657D01*
X021844Y009659D01*
X021869Y009657D01*
X021893Y009651D01*
X021915Y009642D01*
X021936Y009629D01*
X021955Y009613D01*
X021971Y009594D01*
X021984Y009573D01*
X021993Y009551D01*
X021999Y009527D01*
X022001Y009502D01*
X021999Y009477D01*
X021993Y009453D01*
X021984Y009431D01*
X021971Y009410D01*
X021955Y009391D01*
X021936Y009375D01*
X021915Y009362D01*
X021893Y009353D01*
X021869Y009347D01*
X021844Y009345D01*
X021819Y009347D01*
X021795Y009353D01*
X021773Y009362D01*
X021752Y009375D01*
X021733Y009391D01*
X021717Y009410D01*
X021704Y009431D01*
X021695Y009453D01*
X021689Y009477D01*
X021687Y009502D01*
X021194Y009502D02*
X021196Y009527D01*
X021202Y009551D01*
X021211Y009573D01*
X021224Y009594D01*
X021240Y009613D01*
X021259Y009629D01*
X021280Y009642D01*
X021302Y009651D01*
X021326Y009657D01*
X021351Y009659D01*
X021376Y009657D01*
X021400Y009651D01*
X021422Y009642D01*
X021443Y009629D01*
X021462Y009613D01*
X021478Y009594D01*
X021491Y009573D01*
X021500Y009551D01*
X021506Y009527D01*
X021508Y009502D01*
X021506Y009477D01*
X021500Y009453D01*
X021491Y009431D01*
X021478Y009410D01*
X021462Y009391D01*
X021443Y009375D01*
X021422Y009362D01*
X021400Y009353D01*
X021376Y009347D01*
X021351Y009345D01*
X021326Y009347D01*
X021302Y009353D01*
X021280Y009362D01*
X021259Y009375D01*
X021240Y009391D01*
X021224Y009410D01*
X021211Y009431D01*
X021202Y009453D01*
X021196Y009477D01*
X021194Y009502D01*
X020702Y009502D02*
X020704Y009527D01*
X020710Y009551D01*
X020719Y009573D01*
X020732Y009594D01*
X020748Y009613D01*
X020767Y009629D01*
X020788Y009642D01*
X020810Y009651D01*
X020834Y009657D01*
X020859Y009659D01*
X020884Y009657D01*
X020908Y009651D01*
X020930Y009642D01*
X020951Y009629D01*
X020970Y009613D01*
X020986Y009594D01*
X020999Y009573D01*
X021008Y009551D01*
X021014Y009527D01*
X021016Y009502D01*
X021014Y009477D01*
X021008Y009453D01*
X020999Y009431D01*
X020986Y009410D01*
X020970Y009391D01*
X020951Y009375D01*
X020930Y009362D01*
X020908Y009353D01*
X020884Y009347D01*
X020859Y009345D01*
X020834Y009347D01*
X020810Y009353D01*
X020788Y009362D01*
X020767Y009375D01*
X020748Y009391D01*
X020732Y009410D01*
X020719Y009431D01*
X020710Y009453D01*
X020704Y009477D01*
X020702Y009502D01*
X020210Y009502D02*
X020212Y009527D01*
X020218Y009551D01*
X020227Y009573D01*
X020240Y009594D01*
X020256Y009613D01*
X020275Y009629D01*
X020296Y009642D01*
X020318Y009651D01*
X020342Y009657D01*
X020367Y009659D01*
X020392Y009657D01*
X020416Y009651D01*
X020438Y009642D01*
X020459Y009629D01*
X020478Y009613D01*
X020494Y009594D01*
X020507Y009573D01*
X020516Y009551D01*
X020522Y009527D01*
X020524Y009502D01*
X020522Y009477D01*
X020516Y009453D01*
X020507Y009431D01*
X020494Y009410D01*
X020478Y009391D01*
X020459Y009375D01*
X020438Y009362D01*
X020416Y009353D01*
X020392Y009347D01*
X020367Y009345D01*
X020342Y009347D01*
X020318Y009353D01*
X020296Y009362D01*
X020275Y009375D01*
X020256Y009391D01*
X020240Y009410D01*
X020227Y009431D01*
X020218Y009453D01*
X020212Y009477D01*
X020210Y009502D01*
X023562Y018857D02*
X023564Y018905D01*
X023570Y018953D01*
X023580Y019000D01*
X023593Y019046D01*
X023611Y019091D01*
X023631Y019135D01*
X023656Y019177D01*
X023684Y019216D01*
X023714Y019253D01*
X023748Y019287D01*
X023785Y019319D01*
X023823Y019348D01*
X023864Y019373D01*
X023907Y019395D01*
X023952Y019413D01*
X023998Y019427D01*
X024045Y019438D01*
X024093Y019445D01*
X024141Y019448D01*
X024189Y019447D01*
X024237Y019442D01*
X024285Y019433D01*
X024331Y019421D01*
X024376Y019404D01*
X024420Y019384D01*
X024462Y019361D01*
X024502Y019334D01*
X024540Y019304D01*
X024575Y019271D01*
X024607Y019235D01*
X024637Y019197D01*
X024663Y019156D01*
X024685Y019113D01*
X024705Y019069D01*
X024720Y019024D01*
X024732Y018977D01*
X024740Y018929D01*
X024744Y018881D01*
X024744Y018833D01*
X024740Y018785D01*
X024732Y018737D01*
X024720Y018690D01*
X024705Y018645D01*
X024685Y018601D01*
X024663Y018558D01*
X024637Y018517D01*
X024607Y018479D01*
X024575Y018443D01*
X024540Y018410D01*
X024502Y018380D01*
X024462Y018353D01*
X024420Y018330D01*
X024376Y018310D01*
X024331Y018293D01*
X024285Y018281D01*
X024237Y018272D01*
X024189Y018267D01*
X024141Y018266D01*
X024093Y018269D01*
X024045Y018276D01*
X023998Y018287D01*
X023952Y018301D01*
X023907Y018319D01*
X023864Y018341D01*
X023823Y018366D01*
X023785Y018395D01*
X023748Y018427D01*
X023714Y018461D01*
X023684Y018498D01*
X023656Y018537D01*
X023631Y018579D01*
X023611Y018623D01*
X023593Y018668D01*
X023580Y018714D01*
X023570Y018761D01*
X023564Y018809D01*
X023562Y018857D01*
D13*
X017328Y019447D02*
X017281Y019400D01*
X017188Y019400D01*
X017141Y019447D01*
X017141Y019540D01*
X017234Y019540D01*
X017141Y019633D02*
X017188Y019680D01*
X017281Y019680D01*
X017328Y019633D01*
X017328Y019447D01*
X015328Y019493D02*
X015234Y019400D01*
X015141Y019493D01*
X015141Y019680D01*
X015328Y019680D02*
X015328Y019493D01*
X014228Y019493D02*
X014088Y019493D01*
X014041Y019540D01*
X014041Y019633D01*
X014088Y019680D01*
X014228Y019680D01*
X014228Y019400D01*
X014134Y019493D02*
X014041Y019400D01*
X013328Y019680D02*
X013141Y019680D01*
X013234Y019680D02*
X013234Y019400D01*
X013083Y013392D02*
X013083Y012932D01*
X012930Y012932D02*
X012777Y013085D01*
X012623Y012932D01*
X012623Y013392D01*
X012930Y013392D02*
X012930Y012932D01*
X013083Y013162D02*
X013390Y013162D01*
X013544Y013162D02*
X013774Y013162D01*
X013851Y013238D01*
X013851Y013315D01*
X013774Y013392D01*
X013621Y013392D01*
X013544Y013315D01*
X013544Y013008D01*
X013621Y012932D01*
X013774Y012932D01*
X013851Y013008D01*
X014004Y013008D02*
X014004Y013085D01*
X014081Y013162D01*
X014311Y013162D01*
X014311Y013008D01*
X014234Y012932D01*
X014081Y012932D01*
X014004Y013008D01*
X014158Y013315D02*
X014311Y013162D01*
X014158Y013315D02*
X014004Y013392D01*
X014465Y013392D02*
X014465Y012932D01*
X014772Y012932D02*
X014772Y013392D01*
X014618Y013238D01*
X014465Y013392D01*
X014925Y013392D02*
X015232Y013392D01*
X015232Y012932D01*
X015385Y012932D02*
X015539Y013085D01*
X015462Y013085D02*
X015692Y013085D01*
X015692Y012932D02*
X015692Y013392D01*
X015462Y013392D01*
X015385Y013315D01*
X015385Y013162D01*
X015462Y013085D01*
X015232Y013162D02*
X015079Y013162D01*
X013390Y012932D02*
X013390Y013392D01*
X014554Y001493D02*
X014521Y001492D01*
X014489Y001489D01*
X014457Y001481D01*
X014427Y001470D01*
X014398Y001456D01*
X014370Y001439D01*
X014345Y001418D01*
X014322Y001395D01*
X014301Y001370D01*
X014284Y001342D01*
X014270Y001313D01*
X014259Y001283D01*
X014251Y001251D01*
X014248Y001219D01*
X014247Y001186D01*
X014526Y000907D02*
X014559Y000908D01*
X014591Y000911D01*
X014623Y000919D01*
X014653Y000930D01*
X014682Y000944D01*
X014710Y000961D01*
X014735Y000982D01*
X014758Y001005D01*
X014779Y001030D01*
X014796Y001058D01*
X014810Y001087D01*
X014821Y001117D01*
X014829Y001149D01*
X014832Y001181D01*
X014833Y001214D01*
X024297Y001136D02*
X024298Y001169D01*
X024301Y001201D01*
X024309Y001233D01*
X024320Y001263D01*
X024334Y001292D01*
X024351Y001320D01*
X024372Y001345D01*
X024395Y001368D01*
X024420Y001389D01*
X024448Y001406D01*
X024477Y001420D01*
X024507Y001431D01*
X024539Y001439D01*
X024571Y001442D01*
X024604Y001443D01*
X024883Y001164D02*
X024882Y001131D01*
X024879Y001099D01*
X024871Y001067D01*
X024860Y001037D01*
X024846Y001008D01*
X024829Y000980D01*
X024808Y000955D01*
X024785Y000932D01*
X024760Y000911D01*
X024732Y000894D01*
X024703Y000880D01*
X024673Y000869D01*
X024641Y000861D01*
X024609Y000858D01*
X024576Y000857D01*
D14*
X024606Y004028D02*
X024608Y004045D01*
X024613Y004062D01*
X024622Y004076D01*
X024634Y004089D01*
X024649Y004099D01*
X024665Y004105D01*
X024682Y004108D01*
X024699Y004107D01*
X024716Y004102D01*
X024731Y004094D01*
X024744Y004083D01*
X024755Y004069D01*
X024762Y004054D01*
X024766Y004037D01*
X024766Y004019D01*
X024762Y004002D01*
X024755Y003987D01*
X024744Y003973D01*
X024731Y003962D01*
X024716Y003954D01*
X024699Y003949D01*
X024682Y003948D01*
X024665Y003951D01*
X024649Y003957D01*
X024634Y003967D01*
X024622Y003980D01*
X024613Y003994D01*
X024608Y004011D01*
X024606Y004028D01*
X014556Y004078D02*
X014558Y004095D01*
X014563Y004112D01*
X014572Y004126D01*
X014584Y004139D01*
X014599Y004149D01*
X014615Y004155D01*
X014632Y004158D01*
X014649Y004157D01*
X014666Y004152D01*
X014681Y004144D01*
X014694Y004133D01*
X014705Y004119D01*
X014712Y004104D01*
X014716Y004087D01*
X014716Y004069D01*
X014712Y004052D01*
X014705Y004037D01*
X014694Y004023D01*
X014681Y004012D01*
X014666Y004004D01*
X014649Y003999D01*
X014632Y003998D01*
X014615Y004001D01*
X014599Y004007D01*
X014584Y004017D01*
X014572Y004030D01*
X014563Y004044D01*
X014558Y004061D01*
X014556Y004078D01*
D15*
G36*
X014485Y001200D02*
X014540Y001255D01*
X014595Y001200D01*
X014540Y001145D01*
X014485Y001200D01*
G37*
G36*
X024535Y001150D02*
X024590Y001205D01*
X024645Y001150D01*
X024590Y001095D01*
X024535Y001150D01*
G37*
D16*
G36*
X024549Y000858D02*
X024590Y000899D01*
X024659Y000830D01*
X024618Y000789D01*
X024549Y000858D01*
G37*
G36*
X014499Y000908D02*
X014540Y000949D01*
X014609Y000880D01*
X014568Y000839D01*
X014499Y000908D01*
G37*
D17*
X019849Y011380D02*
X020184Y011380D01*
X020184Y011680D02*
X019948Y011680D01*
X019948Y016483D01*
X020184Y016483D01*
X020184Y017659D02*
X019849Y017659D01*
X019849Y011380D01*
X018085Y012093D02*
X018085Y012407D01*
X018085Y012408D02*
X018067Y012410D01*
X018050Y012415D01*
X018033Y012423D01*
X018019Y012434D01*
X018007Y012447D01*
X017997Y012462D01*
X017991Y012479D01*
X017987Y012497D01*
X017987Y012515D01*
X017991Y012533D01*
X017997Y012550D01*
X018007Y012565D01*
X018019Y012578D01*
X018033Y012589D01*
X018050Y012597D01*
X018067Y012602D01*
X018085Y012604D01*
X018085Y013220D01*
X018067Y013222D01*
X018050Y013227D01*
X018033Y013235D01*
X018019Y013246D01*
X018007Y013259D01*
X017997Y013274D01*
X017991Y013291D01*
X017987Y013309D01*
X017987Y013327D01*
X017991Y013345D01*
X017997Y013362D01*
X018007Y013377D01*
X018019Y013390D01*
X018033Y013401D01*
X018050Y013409D01*
X018067Y013414D01*
X018085Y013416D01*
X018085Y014069D01*
X018085Y014070D02*
X018067Y014072D01*
X018050Y014077D01*
X018033Y014085D01*
X018019Y014096D01*
X018007Y014109D01*
X017997Y014124D01*
X017991Y014141D01*
X017987Y014159D01*
X017987Y014177D01*
X017991Y014195D01*
X017997Y014212D01*
X018007Y014227D01*
X018019Y014240D01*
X018033Y014251D01*
X018050Y014259D01*
X018067Y014264D01*
X018085Y014266D01*
X018085Y014857D01*
X018067Y014859D01*
X018050Y014864D01*
X018033Y014872D01*
X018019Y014883D01*
X018007Y014896D01*
X017997Y014911D01*
X017991Y014928D01*
X017987Y014946D01*
X017987Y014964D01*
X017991Y014982D01*
X017997Y014999D01*
X018007Y015014D01*
X018019Y015027D01*
X018033Y015038D01*
X018050Y015046D01*
X018067Y015051D01*
X018085Y015053D01*
X018085Y015054D02*
X018085Y015644D01*
X018085Y015645D02*
X018067Y015647D01*
X018050Y015652D01*
X018033Y015660D01*
X018019Y015671D01*
X018007Y015684D01*
X017997Y015699D01*
X017991Y015716D01*
X017987Y015734D01*
X017987Y015752D01*
X017991Y015770D01*
X017997Y015787D01*
X018007Y015802D01*
X018019Y015815D01*
X018033Y015826D01*
X018050Y015834D01*
X018067Y015839D01*
X018085Y015841D01*
X018085Y016494D01*
X018085Y016495D02*
X018067Y016497D01*
X018050Y016502D01*
X018033Y016510D01*
X018019Y016521D01*
X018007Y016534D01*
X017997Y016549D01*
X017991Y016566D01*
X017987Y016584D01*
X017987Y016602D01*
X017991Y016620D01*
X017997Y016637D01*
X018007Y016652D01*
X018019Y016665D01*
X018033Y016676D01*
X018050Y016684D01*
X018067Y016689D01*
X018085Y016691D01*
X018085Y017282D01*
X018067Y017284D01*
X018050Y017289D01*
X018033Y017297D01*
X018019Y017308D01*
X018007Y017321D01*
X017997Y017336D01*
X017991Y017353D01*
X017987Y017371D01*
X017987Y017389D01*
X017991Y017407D01*
X017997Y017424D01*
X018007Y017439D01*
X018019Y017452D01*
X018033Y017463D01*
X018050Y017471D01*
X018067Y017476D01*
X018085Y017478D01*
X018085Y018006D01*
X018085Y018007D02*
X018067Y018009D01*
X018050Y018014D01*
X018033Y018022D01*
X018019Y018033D01*
X018007Y018046D01*
X017997Y018061D01*
X017991Y018078D01*
X017987Y018096D01*
X017987Y018114D01*
X017991Y018132D01*
X017997Y018149D01*
X018007Y018164D01*
X018019Y018177D01*
X018033Y018188D01*
X018050Y018196D01*
X018067Y018201D01*
X018085Y018203D01*
X018085Y018517D01*
X010348Y018517D01*
X010348Y018203D01*
X010366Y018201D01*
X010383Y018196D01*
X010400Y018188D01*
X010414Y018177D01*
X010426Y018164D01*
X010436Y018149D01*
X010442Y018132D01*
X010446Y018114D01*
X010446Y018096D01*
X010442Y018078D01*
X010436Y018061D01*
X010426Y018046D01*
X010414Y018033D01*
X010400Y018022D01*
X010383Y018014D01*
X010366Y018009D01*
X010348Y018007D01*
X010348Y018006D02*
X010348Y017478D01*
X010366Y017476D01*
X010383Y017471D01*
X010400Y017463D01*
X010414Y017452D01*
X010426Y017439D01*
X010436Y017424D01*
X010442Y017407D01*
X010446Y017389D01*
X010446Y017371D01*
X010442Y017353D01*
X010436Y017336D01*
X010426Y017321D01*
X010414Y017308D01*
X010400Y017297D01*
X010383Y017289D01*
X010366Y017284D01*
X010348Y017282D01*
X010348Y016691D01*
X010366Y016689D01*
X010383Y016684D01*
X010400Y016676D01*
X010414Y016665D01*
X010426Y016652D01*
X010436Y016637D01*
X010442Y016620D01*
X010446Y016602D01*
X010446Y016584D01*
X010442Y016566D01*
X010436Y016549D01*
X010426Y016534D01*
X010414Y016521D01*
X010400Y016510D01*
X010383Y016502D01*
X010366Y016497D01*
X010348Y016495D01*
X010348Y016494D02*
X010348Y015904D01*
X010348Y015903D02*
X010366Y015901D01*
X010383Y015896D01*
X010400Y015888D01*
X010414Y015877D01*
X010426Y015864D01*
X010436Y015849D01*
X010442Y015832D01*
X010446Y015814D01*
X010446Y015796D01*
X010442Y015778D01*
X010436Y015761D01*
X010426Y015746D01*
X010414Y015733D01*
X010400Y015722D01*
X010383Y015714D01*
X010366Y015709D01*
X010348Y015707D01*
X010348Y015054D01*
X010348Y015053D02*
X010366Y015051D01*
X010383Y015046D01*
X010400Y015038D01*
X010414Y015027D01*
X010426Y015014D01*
X010436Y014999D01*
X010442Y014982D01*
X010446Y014964D01*
X010446Y014946D01*
X010442Y014928D01*
X010436Y014911D01*
X010426Y014896D01*
X010414Y014883D01*
X010400Y014872D01*
X010383Y014864D01*
X010366Y014859D01*
X010348Y014857D01*
X010348Y014266D01*
X010366Y014264D01*
X010383Y014259D01*
X010400Y014251D01*
X010414Y014240D01*
X010426Y014227D01*
X010436Y014212D01*
X010442Y014195D01*
X010446Y014177D01*
X010446Y014159D01*
X010442Y014141D01*
X010436Y014124D01*
X010426Y014109D01*
X010414Y014096D01*
X010400Y014085D01*
X010383Y014077D01*
X010366Y014072D01*
X010348Y014070D01*
X010348Y014069D02*
X010348Y013416D01*
X010366Y013414D01*
X010383Y013409D01*
X010400Y013401D01*
X010414Y013390D01*
X010426Y013377D01*
X010436Y013362D01*
X010442Y013345D01*
X010446Y013327D01*
X010446Y013309D01*
X010442Y013291D01*
X010436Y013274D01*
X010426Y013259D01*
X010414Y013246D01*
X010400Y013235D01*
X010383Y013227D01*
X010366Y013222D01*
X010348Y013220D01*
X010348Y012604D01*
X010366Y012602D01*
X010383Y012597D01*
X010400Y012589D01*
X010414Y012578D01*
X010426Y012565D01*
X010436Y012550D01*
X010442Y012533D01*
X010446Y012515D01*
X010446Y012497D01*
X010442Y012479D01*
X010436Y012462D01*
X010426Y012447D01*
X010414Y012434D01*
X010400Y012423D01*
X010383Y012415D01*
X010366Y012410D01*
X010348Y012408D01*
X010348Y012407D02*
X010348Y012093D01*
X018085Y012093D01*
X016598Y012267D02*
X011348Y012267D01*
X011348Y014142D01*
X016598Y014142D01*
X016598Y012267D01*
X012910Y015642D02*
X011535Y015642D01*
X011535Y017080D01*
X012910Y017080D01*
X012910Y017017D02*
X012910Y015642D01*
M02*
