%
M48
M72
T01C0.0150
T02C0.0315
T03C0.0320
T04C0.0354
T05C0.0360
T06C0.0400
T07C0.0433
T08C0.0866
T09C0.1181
%
T01
X6248Y6200
X6948Y6900
X8448Y8300
X9148Y9000
X9551Y8500
X10048Y9000
X10548Y11380
X10148Y11380
X9748Y11380
X9348Y11380
X9048Y11680
X9048Y12080
X8748Y11380
X8748Y12780
X8748Y13080
X8748Y13380
X9048Y13380
X11048Y13480
X11048Y12880
X11448Y12380
X11148Y14080
X11148Y14480
X11148Y14780
X11048Y15080
X11448Y15580
X12048Y16880
X12348Y16880
X12048Y17180
X11648Y18180
X12148Y18280
X13148Y18680
X12048Y19580
X10448Y18880
X10148Y19480
X10948Y17880
X9048Y15480
X12748Y13980
X13148Y14680
X13548Y14480
X14198Y13930
X14198Y13180
X14348Y12780
X14948Y13030
X15398Y12880
X15648Y11880
X15048Y11880
X14648Y11380
X16548Y13180
X17248Y12780
X17548Y13280
X16398Y14280
X15748Y15280
X14948Y16180
X15148Y16980
X14848Y17480
X14448Y17330
X14048Y17380
X13948Y16380
X14448Y15380
X16148Y16580
X15548Y17480
X16448Y18280
X16948Y18380
X17248Y17580
X18248Y18680
X18248Y19080
X18248Y19480
X20048Y17680
X19748Y17380
X19448Y17080
X19148Y16880
X18748Y16880
X19948Y15680
X19348Y15380
X20448Y14880
X20748Y15380
X21748Y15880
X22048Y14780
X22948Y13980
X23848Y13180
X23848Y12780
X24349Y12775
X24648Y12780
X25048Y13580
X25343Y13580
X25048Y15080
X22948Y15680
X20548Y17880
X21148Y18280
X22648Y18280
X22648Y18680
X22648Y19080
X22648Y19480
X25248Y18380
X25248Y19480
X21748Y12680
X20948Y12780
X19648Y12280
X19448Y12080
X18948Y12380
X20098Y8950
X19601Y8450
X19198Y8950
X18498Y8250
X18798Y7750
X20098Y7250
X20698Y6650
X20998Y6250
X20098Y5550
X20248Y4750
X19548Y4850
X20198Y3950
X19098Y3600
X18198Y4750
X17498Y4450
X16298Y5350
X16298Y6150
X16998Y6850
X15048Y8102
X13748Y5300
X13248Y5100
X13848Y4400
X13048Y3500
X12148Y3800
X12148Y2900
X12748Y2500
X13248Y2400
X13748Y2100
X14448Y1900
X14748Y2300
X13848Y1400
X13548Y600
X12448Y1700
X10948Y1800
X10448Y1600
X9948Y1600
X10748Y2500
X11148Y2800
X10148Y4000
X10198Y4800
X9498Y4900
X10048Y5600
X10948Y6300
X10648Y6700
X10048Y7300
X8748Y7800
X6248Y5400
X7448Y4500
X8148Y4800
X9048Y3650
X8048Y2300
X7548Y2300
X6998Y2200
X8748Y2050
X11648Y4800
X17048Y2150
X17598Y2250
X18098Y2250
X18798Y2000
X19998Y1550
X20498Y1550
X20998Y1750
X20798Y2450
X21198Y2750
X22198Y2850
X22798Y2450
X23298Y2350
X23798Y2050
X24498Y1850
X24798Y2250
X23898Y1350
X23598Y550
X22498Y1650
X23098Y3450
X22198Y3750
X21698Y4750
X23298Y5050
X23798Y5250
X23898Y4350
X25098Y8052
T02
X7148Y3694
X7148Y2906
X10525Y9502
X11017Y9502
X11509Y9502
X12001Y9502
X12493Y9502
X12985Y9502
X13477Y9502
X13477Y10781
X12985Y10781
X12493Y10781
X12001Y10781
X11509Y10781
X11017Y10781
X10525Y10781
X20367Y10781
X20859Y10781
X21351Y10781
X21844Y10781
X22336Y10781
X22828Y10781
X23320Y10781
X23320Y9502
X22828Y9502
X22336Y9502
X21844Y9502
X21351Y9502
X20859Y9502
X20367Y9502
X17198Y3644
X17198Y2856
T03
X13499Y8398
X11599Y8398
X21649Y8348
X23549Y8348
T04
X7748Y7600
X17798Y7550
T05
X8093Y14002
X8093Y14936
X8093Y15824
X8093Y16758
T06
X12616Y19130
X13616Y19130
X14616Y19130
X15616Y19130
X16616Y19130
X17616Y19130
T07
X7109Y14494
X7109Y16266
T08
X7148Y13096
X7148Y17663
T09
X24153Y18857
M30
